<mxfile host="app.diagrams.net" modified="2024-04-13T00:16:57.281Z" agent="Mozilla/5.0 (Windows NT 10.0; Win64; x64) AppleWebKit/537.36 (KHTML, like Gecko) Chrome/123.0.0.0 Safari/537.36 Edg/123.0.0.0" etag="h14vWhAcSaa3iemhVYIw" version="24.2.3" type="github" pages="2">
  <diagram name="Page-1" id="13e1069c-82ec-6db2-03f1-153e76fe0fe0">
    <mxGraphModel dx="996" dy="577" grid="1" gridSize="10" guides="1" tooltips="1" connect="1" arrows="1" fold="1" page="1" pageScale="1" pageWidth="1100" pageHeight="850" background="none" math="0" shadow="0">
      <root>
        <mxCell id="0" />
        <mxCell id="1" parent="0" />
        <mxCell id="KrIiGlDKNdtUVGEVLTY_-1" value="" style="rounded=0;whiteSpace=wrap;html=1;fontColor=default;strokeColor=none;shadow=1;" parent="1" vertex="1">
          <mxGeometry x="1380" y="51" width="300" height="589" as="geometry" />
        </mxCell>
        <mxCell id="KrIiGlDKNdtUVGEVLTY_-2" value="简道云- 设计研发应用" style="text;html=1;align=center;verticalAlign=middle;resizable=0;points=[];autosize=1;strokeColor=none;fillColor=none;fontSize=18;fontStyle=1" parent="1" vertex="1">
          <mxGeometry x="1380" width="200" height="40" as="geometry" />
        </mxCell>
        <mxCell id="KrIiGlDKNdtUVGEVLTY_-9" value="" style="group" parent="1" vertex="1" connectable="0">
          <mxGeometry x="1410" y="112" width="160" height="37" as="geometry" />
        </mxCell>
        <mxCell id="KrIiGlDKNdtUVGEVLTY_-5" value="" style="shape=image;verticalLabelPosition=bottom;labelBackgroundColor=default;verticalAlign=top;aspect=fixed;imageAspect=0;image=data:image/png,iVBORw0KGgoAAAANSUhEUgAAACUAAAAlCAYAAADFniADAAACm0lEQVRYCe2Yv2sVQRDH82eIlbUgQkSQFAoKFq/0f4jgf2AViCApjMRISDS8xsYmJIUQIU0Q/NEGTSQPBFNFw7OyCtze7ch3H3Pc3u3Ozl1e8CEOLLe3tzvzuZmduX1viiZQpiaQif4dKHv4lvLth5T3e2SeXKbs0UXX0McYnmFOV1F7yp7+pnx3YQQxf4EyRXOQuwuEtW1EBVXsvW4FUwcGHHRoJQmFUNSNdL2HLo2IUPnmg7EB8YtAZ0qiUOP0EAPxNeWxIBTizwqkq1maJvPyjt+eXVOtlfZYAwqZ4tI8kV1m+Xo0Cub5jSQYbMSysgGFtI95xx59LEHynTnie/vrG6FB7Pf3hGcsmBPTB1shaUBJXqorKPa3qHi36Lf9rfq0KBRshcSDQhWOvRXGu4qkM1T5PahUxsWgECIOZWiOBBXKRB+q32vtqeqeiYGJUP1e4z08KGk/xcIHEGQiWheo0L7yoNzXXigFjVdSDkiegs26nAmq+LRG5sVtyh5fomzxCplX9whjdTkTVJvwoSLbkwNnH2Hj0NmfB1R82fS4JKhk+HBAkxRULTmQ4aA6NAIcDkpAfijphM26eOHTlgQAwZBZven0ZU+vunt79IHM6i3XR1FlEaECxxkPSls87Y/PznC+MevsmvW7DtAOB5Rv3B9BfX3DTO4+BpYsntAi7avSSstODCi0n6Da8xQGpA9yS5ZyegxK/UGWji72eK80pO1gTQgKXlIfXWAsdsgzKzOuFqEeqdvKTBCq1SGPPZDKxNDba8dCH2G2i2tjT1UfTtwPB4Ybp8dSHmKboqd4EuIvlYpU2LBW2kNsh68qKExGpiCF28BhLtbEsowh6lc1VHUhqjBC8df/4KhCnXe/k6f+Q523B7T6/wBNu3ZYc7ThIwAAAABJRU5ErkJggg==;" parent="KrIiGlDKNdtUVGEVLTY_-9" vertex="1">
          <mxGeometry width="37" height="37" as="geometry" />
        </mxCell>
        <mxCell id="KrIiGlDKNdtUVGEVLTY_-8" value="商品企划案" style="text;html=1;align=center;verticalAlign=middle;resizable=0;points=[];autosize=1;strokeColor=none;fillColor=none;fontSize=17;fontStyle=0;fontFamily=Georgia;" parent="KrIiGlDKNdtUVGEVLTY_-9" vertex="1">
          <mxGeometry x="37" y="3.5" width="110" height="30" as="geometry" />
        </mxCell>
        <mxCell id="KrIiGlDKNdtUVGEVLTY_-14" value="" style="group" parent="1" vertex="1" connectable="0">
          <mxGeometry x="1410" y="205" width="205" height="37" as="geometry" />
        </mxCell>
        <mxCell id="KrIiGlDKNdtUVGEVLTY_-15" value="" style="shape=image;verticalLabelPosition=bottom;labelBackgroundColor=default;verticalAlign=top;aspect=fixed;imageAspect=0;image=data:image/png,iVBORw0KGgoAAAANSUhEUgAAACUAAAAlCAYAAADFniADAAACm0lEQVRYCe2Yv2sVQRDH82eIlbUgQkSQFAoKFq/0f4jgf2AViCApjMRISDS8xsYmJIUQIU0Q/NEGTSQPBFNFw7OyCtze7ch3H3Pc3u3Ozl1e8CEOLLe3tzvzuZmduX1viiZQpiaQif4dKHv4lvLth5T3e2SeXKbs0UXX0McYnmFOV1F7yp7+pnx3YQQxf4EyRXOQuwuEtW1EBVXsvW4FUwcGHHRoJQmFUNSNdL2HLo2IUPnmg7EB8YtAZ0qiUOP0EAPxNeWxIBTizwqkq1maJvPyjt+eXVOtlfZYAwqZ4tI8kV1m+Xo0Cub5jSQYbMSysgGFtI95xx59LEHynTnie/vrG6FB7Pf3hGcsmBPTB1shaUBJXqorKPa3qHi36Lf9rfq0KBRshcSDQhWOvRXGu4qkM1T5PahUxsWgECIOZWiOBBXKRB+q32vtqeqeiYGJUP1e4z08KGk/xcIHEGQiWheo0L7yoNzXXigFjVdSDkiegs26nAmq+LRG5sVtyh5fomzxCplX9whjdTkTVJvwoSLbkwNnH2Hj0NmfB1R82fS4JKhk+HBAkxRULTmQ4aA6NAIcDkpAfijphM26eOHTlgQAwZBZven0ZU+vunt79IHM6i3XR1FlEaECxxkPSls87Y/PznC+MevsmvW7DtAOB5Rv3B9BfX3DTO4+BpYsntAi7avSSstODCi0n6Da8xQGpA9yS5ZyegxK/UGWji72eK80pO1gTQgKXlIfXWAsdsgzKzOuFqEeqdvKTBCq1SGPPZDKxNDba8dCH2G2i2tjT1UfTtwPB4Ybp8dSHmKboqd4EuIvlYpU2LBW2kNsh68qKExGpiCF28BhLtbEsowh6lc1VHUhqjBC8df/4KhCnXe/k6f+Q523B7T6/wBNu3ZYc7ThIwAAAABJRU5ErkJggg==;" parent="KrIiGlDKNdtUVGEVLTY_-14" vertex="1">
          <mxGeometry width="37" height="37" as="geometry" />
        </mxCell>
        <mxCell id="KrIiGlDKNdtUVGEVLTY_-16" value="设计核价流程" style="text;html=1;align=center;verticalAlign=middle;resizable=0;points=[];autosize=1;strokeColor=none;fillColor=none;fontSize=17;fontStyle=0;fontFamily=Georgia;" parent="KrIiGlDKNdtUVGEVLTY_-14" vertex="1">
          <mxGeometry x="37" y="3.5" width="130" height="30" as="geometry" />
        </mxCell>
        <mxCell id="KrIiGlDKNdtUVGEVLTY_-21" value="" style="group" parent="1" vertex="1" connectable="0">
          <mxGeometry x="1410" y="500" width="187" height="37" as="geometry" />
        </mxCell>
        <mxCell id="KrIiGlDKNdtUVGEVLTY_-19" value="" style="shape=image;verticalLabelPosition=bottom;labelBackgroundColor=default;verticalAlign=top;aspect=fixed;imageAspect=0;image=data:image/png,iVBORw0KGgoAAAANSUhEUgAAACUAAAAlCAYAAADFniADAAACCklEQVRYCe1YvU4DMQzuGyGegDfgCdh4AyYW2BArEgNiYUViYWAF3oAFISY2ulQVcKUqFYIS9FVy9cXJ5Y+riBCWIjt3sf3VsZ1ce6ZC6lWIyfwdUFf372bvYmw2jhuztv9kVneH8wEZz/AOa0opOVLj6cwcXk7mIFZ2hiZlACR0oJtDSaDOb6ZZYDRggIONVIqCwlZoJ6Vz2EqhIKjts9fOAMkPgc0YtYLqMkICSHgsYl5Q2H8xwHz94NlsnjRZAzpsQ+RQjjmgUClITFFmfvv4EYu88x46bENk+GirSgcUSlgUNXc8Jj7QdmQOXz5yQLVFCYZKSUBoDl8+skChC2tFnrOBo+uJ4cHvtMw2tOzr/BaoWMWJs4fBp5XsW6cjMxi1d20NhOe+SrRA4dxiBS0LqFyu7fAcPjVZoEL5BEOlxCC07MsrCxROe63EcwYV61fYYiG2oWX41FQ/qCq3r8pET20JL5OZ1RJ8+ZWaU9GW8JPmyY0UcvP2tchfndw8jzZPWAnl1cJLpsAgWPa1A5i2qg8PqjyQQ1eXu37+1QU6HB2REaXkqwuiVd0lT9IlVonyi0u4r+LEL7iTU/yyug8HAddlxGIREp/BSMki5FioVcS2ELqhDwXxIzwJFBajUtAucsBhLXTaqkxAaJ4MihXRhbEVOCvh+Nf+4GBQy5aLIvUPatkRSLX/DTyIjg9yBPpvAAAAAElFTkSuQmCC;" parent="KrIiGlDKNdtUVGEVLTY_-21" vertex="1">
          <mxGeometry width="37" height="37" as="geometry" />
        </mxCell>
        <mxCell id="KrIiGlDKNdtUVGEVLTY_-20" value="T+原物料参数表" style="text;html=1;align=center;verticalAlign=middle;resizable=0;points=[];autosize=1;strokeColor=none;fillColor=none;fontSize=17;fontStyle=0;fontFamily=Georgia;" parent="KrIiGlDKNdtUVGEVLTY_-21" vertex="1">
          <mxGeometry x="37" y="3.5" width="150" height="30" as="geometry" />
        </mxCell>
        <mxCell id="KrIiGlDKNdtUVGEVLTY_-22" value="" style="group" parent="1" vertex="1" connectable="0">
          <mxGeometry x="1410" y="450" width="192" height="37" as="geometry" />
        </mxCell>
        <mxCell id="KrIiGlDKNdtUVGEVLTY_-23" value="" style="shape=image;verticalLabelPosition=bottom;labelBackgroundColor=default;verticalAlign=top;aspect=fixed;imageAspect=0;image=data:image/png,iVBORw0KGgoAAAANSUhEUgAAACUAAAAlCAYAAADFniADAAACCklEQVRYCe1YvU4DMQzuGyGegDfgCdh4AyYW2BArEgNiYUViYWAF3oAFISY2ulQVcKUqFYIS9FVy9cXJ5Y+riBCWIjt3sf3VsZ1ce6ZC6lWIyfwdUFf372bvYmw2jhuztv9kVneH8wEZz/AOa0opOVLj6cwcXk7mIFZ2hiZlACR0oJtDSaDOb6ZZYDRggIONVIqCwlZoJ6Vz2EqhIKjts9fOAMkPgc0YtYLqMkICSHgsYl5Q2H8xwHz94NlsnjRZAzpsQ+RQjjmgUClITFFmfvv4EYu88x46bENk+GirSgcUSlgUNXc8Jj7QdmQOXz5yQLVFCYZKSUBoDl8+skChC2tFnrOBo+uJ4cHvtMw2tOzr/BaoWMWJs4fBp5XsW6cjMxi1d20NhOe+SrRA4dxiBS0LqFyu7fAcPjVZoEL5BEOlxCC07MsrCxROe63EcwYV61fYYiG2oWX41FQ/qCq3r8pET20JL5OZ1RJ8+ZWaU9GW8JPmyY0UcvP2tchfndw8jzZPWAnl1cJLpsAgWPa1A5i2qg8PqjyQQ1eXu37+1QU6HB2REaXkqwuiVd0lT9IlVonyi0u4r+LEL7iTU/yyug8HAddlxGIREp/BSMki5FioVcS2ELqhDwXxIzwJFBajUtAucsBhLXTaqkxAaJ4MihXRhbEVOCvh+Nf+4GBQy5aLIvUPatkRSLX/DTyIjg9yBPpvAAAAAElFTkSuQmCC;" parent="KrIiGlDKNdtUVGEVLTY_-22" vertex="1">
          <mxGeometry width="37" height="37" as="geometry" />
        </mxCell>
        <mxCell id="KrIiGlDKNdtUVGEVLTY_-24" value="设计负责人参数表" style="text;html=1;align=center;verticalAlign=middle;resizable=0;points=[];autosize=1;strokeColor=none;fillColor=none;fontSize=17;fontStyle=0;fontFamily=Georgia;" parent="KrIiGlDKNdtUVGEVLTY_-22" vertex="1">
          <mxGeometry x="37" y="3.5" width="160" height="30" as="geometry" />
        </mxCell>
        <mxCell id="KrIiGlDKNdtUVGEVLTY_-25" value="" style="group" parent="1" vertex="1" connectable="0">
          <mxGeometry x="1403" y="407" width="127" height="37" as="geometry" />
        </mxCell>
        <mxCell id="KrIiGlDKNdtUVGEVLTY_-17" value="" style="shape=image;verticalLabelPosition=bottom;labelBackgroundColor=default;verticalAlign=top;aspect=fixed;imageAspect=0;image=data:image/png,iVBORw0KGgoAAAANSUhEUgAAACUAAAAlCAYAAADFniADAAABHklEQVRYCWP4PwgBwyB00/9RRxEbK6MhNRpSxIYAseqISlPnP775v//tU5yYWMuIVYfXUS9/fvuvcmj5f4YdM/Hi+tunibWPKHV4HVV84zhexyA7lpoOw+soh1ObiXYUsgMJsUtuHMcbYgPiKJCj1764h9NhA+YoUCzgAngdBUonxOKGO2f+gzA29cjiyGyyHIWvGKCGHFmOolVCB6UpsqNv1FFIcYk3oY+G1GhI4ajMR3MfocoYJk92SPXcv0iTVgLIYVlXDyMlbVQm3iIB1OLUOLyS6g4zOLoG3IpFdQqCh9dRIGWvfn7/P/XRVawVLbbKl5DYsmd3/r//9RPhAiwsgo7CoofmQqOOIjaIR0NqNKSIDQFi1Y2mKWJDCgC1uNr4oXDhWwAAAABJRU5ErkJggg==;" parent="KrIiGlDKNdtUVGEVLTY_-25" vertex="1">
          <mxGeometry width="37" height="37" as="geometry" />
        </mxCell>
        <mxCell id="KrIiGlDKNdtUVGEVLTY_-18" value="流程参数" style="text;html=1;align=center;verticalAlign=middle;resizable=0;points=[];autosize=1;strokeColor=none;fillColor=none;fontSize=17;fontStyle=0;fontFamily=Georgia;" parent="KrIiGlDKNdtUVGEVLTY_-25" vertex="1">
          <mxGeometry x="37" y="3.5" width="90" height="30" as="geometry" />
        </mxCell>
        <mxCell id="KrIiGlDKNdtUVGEVLTY_-26" value="" style="group" parent="1" vertex="1" connectable="0">
          <mxGeometry x="1403" y="70" width="147" height="37" as="geometry" />
        </mxCell>
        <mxCell id="KrIiGlDKNdtUVGEVLTY_-27" value="" style="shape=image;verticalLabelPosition=bottom;labelBackgroundColor=default;verticalAlign=top;aspect=fixed;imageAspect=0;image=data:image/png,iVBORw0KGgoAAAANSUhEUgAAACUAAAAlCAYAAADFniADAAABHklEQVRYCWP4PwgBwyB00/9RRxEbK6MhNRpSxIYAseqISlPnP775v//tU5yYWMuIVYfXUS9/fvuvcmj5f4YdM/Hi+tunibWPKHV4HVV84zhexyA7lpoOw+soh1ObiXYUsgMJsUtuHMcbYgPiKJCj1764h9NhA+YoUCzgAngdBUonxOKGO2f+gzA29cjiyGyyHIWvGKCGHFmOolVCB6UpsqNv1FFIcYk3oY+G1GhI4ajMR3MfocoYJk92SPXcv0iTVgLIYVlXDyMlbVQm3iIB1OLUOLyS6g4zOLoG3IpFdQqCh9dRIGWvfn7/P/XRVawVLbbKl5DYsmd3/r//9RPhAiwsgo7CoofmQqOOIjaIR0NqNKSIDQFi1Y2mKWJDCgC1uNr4oXDhWwAAAABJRU5ErkJggg==;" parent="KrIiGlDKNdtUVGEVLTY_-26" vertex="1">
          <mxGeometry width="37" height="37" as="geometry" />
        </mxCell>
        <mxCell id="KrIiGlDKNdtUVGEVLTY_-28" value="设计研发流程" style="text;html=1;align=center;verticalAlign=middle;resizable=0;points=[];autosize=1;strokeColor=none;fillColor=none;fontSize=17;fontStyle=0;fontFamily=Georgia;" parent="KrIiGlDKNdtUVGEVLTY_-26" vertex="1">
          <mxGeometry x="37" y="3.5" width="130" height="30" as="geometry" />
        </mxCell>
        <mxCell id="KrIiGlDKNdtUVGEVLTY_-29" value="" style="group" parent="1" vertex="1" connectable="0">
          <mxGeometry x="1410" y="159" width="180" height="37" as="geometry" />
        </mxCell>
        <mxCell id="KrIiGlDKNdtUVGEVLTY_-6" value="" style="shape=image;verticalLabelPosition=bottom;labelBackgroundColor=default;verticalAlign=top;aspect=fixed;imageAspect=0;image=data:image/png,iVBORw0KGgoAAAANSUhEUgAAACUAAAAlCAYAAADFniADAAACCklEQVRYCe1YvU4DMQzuGyGegDfgCdh4AyYW2BArEgNiYUViYWAF3oAFISY2ulQVcKUqFYIS9FVy9cXJ5Y+riBCWIjt3sf3VsZ1ce6ZC6lWIyfwdUFf372bvYmw2jhuztv9kVneH8wEZz/AOa0opOVLj6cwcXk7mIFZ2hiZlACR0oJtDSaDOb6ZZYDRggIONVIqCwlZoJ6Vz2EqhIKjts9fOAMkPgc0YtYLqMkICSHgsYl5Q2H8xwHz94NlsnjRZAzpsQ+RQjjmgUClITFFmfvv4EYu88x46bENk+GirSgcUSlgUNXc8Jj7QdmQOXz5yQLVFCYZKSUBoDl8+skChC2tFnrOBo+uJ4cHvtMw2tOzr/BaoWMWJs4fBp5XsW6cjMxi1d20NhOe+SrRA4dxiBS0LqFyu7fAcPjVZoEL5BEOlxCC07MsrCxROe63EcwYV61fYYiG2oWX41FQ/qCq3r8pET20JL5OZ1RJ8+ZWaU9GW8JPmyY0UcvP2tchfndw8jzZPWAnl1cJLpsAgWPa1A5i2qg8PqjyQQ1eXu37+1QU6HB2REaXkqwuiVd0lT9IlVonyi0u4r+LEL7iTU/yyug8HAddlxGIREp/BSMki5FioVcS2ELqhDwXxIzwJFBajUtAucsBhLXTaqkxAaJ4MihXRhbEVOCvh+Nf+4GBQy5aLIvUPatkRSLX/DTyIjg9yBPpvAAAAAElFTkSuQmCC;" parent="KrIiGlDKNdtUVGEVLTY_-29" vertex="1">
          <mxGeometry width="37" height="37" as="geometry" />
        </mxCell>
        <mxCell id="KrIiGlDKNdtUVGEVLTY_-13" value="企划设计任务" style="text;html=1;align=center;verticalAlign=middle;resizable=0;points=[];autosize=1;strokeColor=none;fillColor=none;fontSize=17;fontStyle=0;fontFamily=Georgia;" parent="KrIiGlDKNdtUVGEVLTY_-29" vertex="1">
          <mxGeometry x="37" y="3.5" width="130" height="30" as="geometry" />
        </mxCell>
        <mxCell id="KrIiGlDKNdtUVGEVLTY_-30" value="" style="group" parent="1" vertex="1" connectable="0">
          <mxGeometry x="1410" y="252" width="205" height="37" as="geometry" />
        </mxCell>
        <mxCell id="KrIiGlDKNdtUVGEVLTY_-31" value="" style="shape=image;verticalLabelPosition=bottom;labelBackgroundColor=default;verticalAlign=top;aspect=fixed;imageAspect=0;image=data:image/png,iVBORw0KGgoAAAANSUhEUgAAACUAAAAlCAYAAADFniADAAACm0lEQVRYCe2Yv2sVQRDH82eIlbUgQkSQFAoKFq/0f4jgf2AViCApjMRISDS8xsYmJIUQIU0Q/NEGTSQPBFNFw7OyCtze7ch3H3Pc3u3Ozl1e8CEOLLe3tzvzuZmduX1viiZQpiaQif4dKHv4lvLth5T3e2SeXKbs0UXX0McYnmFOV1F7yp7+pnx3YQQxf4EyRXOQuwuEtW1EBVXsvW4FUwcGHHRoJQmFUNSNdL2HLo2IUPnmg7EB8YtAZ0qiUOP0EAPxNeWxIBTizwqkq1maJvPyjt+eXVOtlfZYAwqZ4tI8kV1m+Xo0Cub5jSQYbMSysgGFtI95xx59LEHynTnie/vrG6FB7Pf3hGcsmBPTB1shaUBJXqorKPa3qHi36Lf9rfq0KBRshcSDQhWOvRXGu4qkM1T5PahUxsWgECIOZWiOBBXKRB+q32vtqeqeiYGJUP1e4z08KGk/xcIHEGQiWheo0L7yoNzXXigFjVdSDkiegs26nAmq+LRG5sVtyh5fomzxCplX9whjdTkTVJvwoSLbkwNnH2Hj0NmfB1R82fS4JKhk+HBAkxRULTmQ4aA6NAIcDkpAfijphM26eOHTlgQAwZBZven0ZU+vunt79IHM6i3XR1FlEaECxxkPSls87Y/PznC+MevsmvW7DtAOB5Rv3B9BfX3DTO4+BpYsntAi7avSSstODCi0n6Da8xQGpA9yS5ZyegxK/UGWji72eK80pO1gTQgKXlIfXWAsdsgzKzOuFqEeqdvKTBCq1SGPPZDKxNDba8dCH2G2i2tjT1UfTtwPB4Ybp8dSHmKboqd4EuIvlYpU2LBW2kNsh68qKExGpiCF28BhLtbEsowh6lc1VHUhqjBC8df/4KhCnXe/k6f+Q523B7T6/wBNu3ZYc7ThIwAAAABJRU5ErkJggg==;" parent="KrIiGlDKNdtUVGEVLTY_-30" vertex="1">
          <mxGeometry width="37" height="37" as="geometry" />
        </mxCell>
        <mxCell id="KrIiGlDKNdtUVGEVLTY_-32" value="生产BOM流程" style="text;html=1;align=center;verticalAlign=middle;resizable=0;points=[];autosize=1;strokeColor=none;fillColor=none;fontSize=17;fontStyle=0;fontFamily=Georgia;" parent="KrIiGlDKNdtUVGEVLTY_-30" vertex="1">
          <mxGeometry x="37" y="3.5" width="130" height="30" as="geometry" />
        </mxCell>
        <mxCell id="KrIiGlDKNdtUVGEVLTY_-33" value="" style="group" parent="1" vertex="1" connectable="0">
          <mxGeometry x="1410" y="302" width="205" height="37" as="geometry" />
        </mxCell>
        <mxCell id="KrIiGlDKNdtUVGEVLTY_-34" value="" style="shape=image;verticalLabelPosition=bottom;labelBackgroundColor=default;verticalAlign=top;aspect=fixed;imageAspect=0;image=data:image/png,iVBORw0KGgoAAAANSUhEUgAAACUAAAAlCAYAAADFniADAAACm0lEQVRYCe2Yv2sVQRDH82eIlbUgQkSQFAoKFq/0f4jgf2AViCApjMRISDS8xsYmJIUQIU0Q/NEGTSQPBFNFw7OyCtze7ch3H3Pc3u3Ozl1e8CEOLLe3tzvzuZmduX1viiZQpiaQif4dKHv4lvLth5T3e2SeXKbs0UXX0McYnmFOV1F7yp7+pnx3YQQxf4EyRXOQuwuEtW1EBVXsvW4FUwcGHHRoJQmFUNSNdL2HLo2IUPnmg7EB8YtAZ0qiUOP0EAPxNeWxIBTizwqkq1maJvPyjt+eXVOtlfZYAwqZ4tI8kV1m+Xo0Cub5jSQYbMSysgGFtI95xx59LEHynTnie/vrG6FB7Pf3hGcsmBPTB1shaUBJXqorKPa3qHi36Lf9rfq0KBRshcSDQhWOvRXGu4qkM1T5PahUxsWgECIOZWiOBBXKRB+q32vtqeqeiYGJUP1e4z08KGk/xcIHEGQiWheo0L7yoNzXXigFjVdSDkiegs26nAmq+LRG5sVtyh5fomzxCplX9whjdTkTVJvwoSLbkwNnH2Hj0NmfB1R82fS4JKhk+HBAkxRULTmQ4aA6NAIcDkpAfijphM26eOHTlgQAwZBZven0ZU+vunt79IHM6i3XR1FlEaECxxkPSls87Y/PznC+MevsmvW7DtAOB5Rv3B9BfX3DTO4+BpYsntAi7avSSstODCi0n6Da8xQGpA9yS5ZyegxK/UGWji72eK80pO1gTQgKXlIfXWAsdsgzKzOuFqEeqdvKTBCq1SGPPZDKxNDba8dCH2G2i2tjT1UfTtwPB4Ybp8dSHmKboqd4EuIvlYpU2LBW2kNsh68qKExGpiCF28BhLtbEsowh6lc1VHUhqjBC8df/4KhCnXe/k6f+Q523B7T6/wBNu3ZYc7ThIwAAAABJRU5ErkJggg==;" parent="KrIiGlDKNdtUVGEVLTY_-33" vertex="1">
          <mxGeometry width="37" height="37" as="geometry" />
        </mxCell>
        <mxCell id="KrIiGlDKNdtUVGEVLTY_-35" value="商品定价流程" style="text;html=1;align=center;verticalAlign=middle;resizable=0;points=[];autosize=1;strokeColor=none;fillColor=none;fontSize=17;fontStyle=0;fontFamily=Georgia;" parent="KrIiGlDKNdtUVGEVLTY_-33" vertex="1">
          <mxGeometry x="37" y="3.5" width="130" height="30" as="geometry" />
        </mxCell>
        <mxCell id="KrIiGlDKNdtUVGEVLTY_-37" value="" style="group" parent="1" vertex="1" connectable="0">
          <mxGeometry x="1410" y="344.5" width="177" height="37" as="geometry" />
        </mxCell>
        <mxCell id="KrIiGlDKNdtUVGEVLTY_-7" value="" style="shape=image;verticalLabelPosition=bottom;labelBackgroundColor=default;verticalAlign=top;aspect=fixed;imageAspect=0;image=data:image/png,iVBORw0KGgoAAAANSUhEUgAAACUAAAAlCAYAAADFniADAAACc0lEQVRYCe2Y3S4DQRTHvRtPILyASNy4QeIBJFy44gUkvRDXrohLxA0Joi4QtOqzWl9tSetj5D91NtMzZ3Znd9toxEkmO7t2zvnN+ZqtHtWF0tOFTOpvQZU3aupsvqwORm/Udn9BbfXl9MAcz/A3vJNEYnnqvfqp8guPTYjenNryGIDEGqz1FW+ou5VKLBgODDjo8BEvKISCG0l6D11REgl1PH3fNiDaCHSGSShUOz1EQHQN85gTCvEnBZ26unJMhEKl6DJn1bU7dKWy47eJBtbyzcGGVJUiFEqYK4DStIINcb2wxUWEkrwEhWnlImNvFra4WFDownw3uPeFOpktBeGtnTda7ElQ0M07vwXlqrjsmOwpGH7eewuMl9ZrqpB5Uvsj1y3P8YILileiBYVzS/SUAAUgSmCA1Isf6nSurJ8dTt56Q8GmKRaUlE86fAyKgBDW4lpVbwRzQH7Wv1R50z6MXZ7ieWVB6dOetQIJCiEDRL30oTd5ufik71/zrXlkesAFBZumJIYylfjOE0OFhQ/eSTNcUJHhC0t0KE07pCKKTHRnS+hQ8wRkZEtwNc+dwYK6WX5xho/yyhXe4mpFbQ8UxHYT2Tyh3JVXkuuPporEE1wvl55F49J6nk9QYlUfHkoHsqRwb/hKNR6aLSEg+pkcz/h9HHofyK5PFw6Gowe96nDCHtTp+RrzHl7y/nTBZrvuI49C4apEc7dJ57ziyCauYk6ZL3TdDweCa6fHwjxE9iI9RS8ix+K0Ch5WrHX9UCAbdPWGwgJUCko4DhzexRqpygiCX2NBmYvRhREKnFsa8rf+wWFCdXKe2FP/UJ30gK/ubxu6HKIYQKrBAAAAAElFTkSuQmCC;" parent="KrIiGlDKNdtUVGEVLTY_-37" vertex="1">
          <mxGeometry width="37" height="37" as="geometry" />
        </mxCell>
        <mxCell id="KrIiGlDKNdtUVGEVLTY_-36" value="商品开发仪表盘" style="text;html=1;align=center;verticalAlign=middle;resizable=0;points=[];autosize=1;strokeColor=none;fillColor=none;fontSize=17;fontStyle=0;fontFamily=Georgia;" parent="KrIiGlDKNdtUVGEVLTY_-37" vertex="1">
          <mxGeometry x="37" y="3.5" width="140" height="30" as="geometry" />
        </mxCell>
        <mxCell id="KrIiGlDKNdtUVGEVLTY_-39" value="" style="rounded=0;whiteSpace=wrap;html=1;fontColor=default;strokeColor=none;shadow=1;" parent="1" vertex="1">
          <mxGeometry x="90" y="51.5" width="300" height="589" as="geometry" />
        </mxCell>
        <mxCell id="KrIiGlDKNdtUVGEVLTY_-40" value="帆软- 企划案导入" style="text;html=1;align=center;verticalAlign=middle;resizable=0;points=[];autosize=1;strokeColor=none;fillColor=none;fontSize=18;fontStyle=1" parent="1" vertex="1">
          <mxGeometry x="90" width="160" height="40" as="geometry" />
        </mxCell>
        <mxCell id="KrIiGlDKNdtUVGEVLTY_-41" value="导入商品" style="text;html=1;align=center;verticalAlign=middle;resizable=0;points=[];autosize=1;strokeColor=none;fillColor=none;fontSize=17;fontStyle=1;fontFamily=Georgia;" parent="1" vertex="1">
          <mxGeometry x="110" y="73.5" width="90" height="30" as="geometry" />
        </mxCell>
        <mxCell id="KrIiGlDKNdtUVGEVLTY_-56" value="" style="shape=image;verticalLabelPosition=bottom;labelBackgroundColor=default;verticalAlign=top;aspect=fixed;imageAspect=0;image=data:image/png,iVBORw0KGgoAAAANSUhEUgAABDoAAACLCAYAAACA9Pl6AAAgAElEQVR4Ae19S8skvZJe/aWmoRcF/gvett1emMa4BhuMMQZjGuPGxobGi6H2DaZXhjG9M65Fb0wvverN2XxTM55pz8VzWXj8zeVc5pwjE5JCCkmhvFRlZWZJzwsvlZWlVIaeeBSSnpSUh5/85CcG/8AAHAAHwAFwABwAB8ABcAAcAAfAAXAAHAAHWuDAgQrxw/cf8Q8Mds+B//L5v5ml/8H9bev+0v6k/ODTbX26NP7gSFv+XJofU/IDh+ZzCJjNx2wKF5EGuIID4AA4sB4HIHRA4HiagSF1vJb8o/wQbNYLNhrW8Om2+Gs+2ds5cAQcuZeT4NB8DgGz+Zjdy1NcD8zBAXAAHFiWAxA6IHQ8zWCfOl6//vWvF/un/BBQlg0oc/GET7fFf66/tkgPjoAj9/IOHJrPIWA2H7N7eYrrgTk4AA6AA8tyAEIHhI6nGexTx+tXv/71Yv+UHwLKsgFlLp7w6bb4z/XXFunBEXDkXt6BQ/M5BMzmY3YvT3E9MAcHwAFwYFkOzBM6vn4wL16+NR+/LmvEXKd+ef/KvHjz2Xy5WaT4bF6/fGVev495fPn02Zfrm/n4/q3Nf65dSP9YXtiO169+bX610D/lN8tnO+F/zeYvXz13X74y76bUUVueV+bFyw+hLlHdOry8t35N58HmPv309q7yulj0wceOz+YdYTcxRn75xNfpeFlfHOb5gvJ8/fJgXrz/Zrlt4xrFtuTf/Vbj0d7Or8MRqjs5Tvz9g3mX4MfnxadoSwg/wnuwfaK6R74lrsxtxzbk7GLcCLGH+xOfzevDwbzg2PVVYJtgfxt31+GQXo9VzChWf/pg3r2heHsDBxTOfHxzsLHs9afbMMrt3B6zbz6e+vbslvY3tIl3Ymz9VeNken6w3lu/fTMf37w1r98o8Z/jgvab4vMfvru+7AtO//VbiDvEB4ov7xbiQ86P27636tMfzZf3b81r3+4m2Hx6a+Pa60ljlp65wfGzXY4kvPjuy/km9r/T3xmP+Llsv6Ifrs0SOr5QhT0czOHwyrz+FMEfcw79/qXacRGNxNcpDbTrEB2oU/T+87yBKjcUtjGhTkEkmO0k2DzJ+VTGOxtGvhc+b/ORght1vH75y18t9k/5TeEup9mW/5/NO985ekcNqj12Dairk8RZ8S+4zfYXn74e8KDY/k6DqMNhdv0u8lb8p6VZ26dFJ1QpL4sDRdq8TP5aiodOWKKGS8aVb24gQ/Ey7wBxDKKYw53USv7Dsdbd4wXdV/rf2+TEkuy3KdzIbdnw+zocie1KiuPBvH5PokSGYfFdtBeCF9VBJ/v/zXgbVvBwK84SB75SHPqQCWeiDU9EiQ8l7wOPPN6h/Nn3gGGGe0g/r/+xDofIJic2c3zmTxJw7H/BGxqMUgyQPPhmOAalAmWOcxzUUmx1/RaORfPw2UNsLm1I4+lo++sHlA7rjDe+b1feYyJONT4W/pyGf9VXfJ/BQTH1UUkgo/6rrDf++OUH89EOoggDEZdC3ZtY5oekb9WnJDg5zhXttdbPGsC2X24wL1vlCJfPf3Jdn1pHQ3oaf1fGyjP6FYNtBt+rkTikCh2DogQ98bUd97zR5e9p48sNi9rhzhqJIkAowcAFATeYGO4EkD2KYk6iiy2DHMzFBoI6leXvGUEVu7ic+HwcVtRZ/dtf/mqxf8pP89de+c+8pIEYd5ztoMw+tSG+fzM0q8P9535QnljTzCUeaPMAxdcNEhGT+pU9sdZwu+XcWj61tnHwlgN9f07GHsY5EYDyOi9E3zh7hhvot4bEKBaFq0KGHxRxumLWQM0XyWwBf08SNuh8Jha7snDn26dNBlU5T/b3fVWOsJ+ZKwVWjPfIAOJr7Pimg1iP79TOL9uxG876tjJru3NxKHwv8OOHHl48okGZjT3pdxrUUh6xXsoB3XyOrskhqnMcn+nzNQ1KPV52JqqP0VTuQsSy/GOOlYN1zsd+vnQzQuge9NTe1fURXjK/J3yuiZnedngcJPe5Iy/PhbIIbr70mFPb6Gc5DLbrHDc/fXDCM7eHnpuv81k3bIfCb7Us2YwQK4j7mM3t7JevM/qevn68eP/BzoQ6vPngRHYaNNnZnPfVF7UMAef59S/m15BPCzyYf9zeToz14EbWD2+ZI1x3mCs+xk+OI3f2Kzrlmip0BDFhamcmSac3tGmHm53tP4tOTfa7Dyguj5HGP7FFdpQ4T+5ECDtDo8EqmSeh2phyPviMjdc6WFDH6xd/+8vF/ik/rQx74/9QB83NIKDpqZkwwd+5A8dPfrL6kXScB38T9aVo4G/3/1o+tX7WBpda7NHOiTInccjGCBKXPrslbwFDv+TEdzrf5TM6RH72Kfl7HqhMiG9Jo6h0CkTe6dMhnza5/nbfaXXnEefW5IjFKwwaYoc1PGFnASuf1aAuFXNPXuNgXWCtcVH4LeCopdP4qZ0T+S3H2YkDKM1ub894fH1lhUKKTRG7ifcVZQ4Yfv/RvpZ8jbZD3tMeexzcLFh+COSfyFOsyAfQiv1DfSeHpYvNLt1ycXq1epd1vnngTw+q7FPyIOT7Nu79B/OOhXi13lE90+JiNrgIsVrwzNejsl3McPXpBsVw6ctktkkUvuR9iOscr2lZdcSBjpk7USi0S19ImLE8+mDbH3cdzQjKhUKOPdzH5e8P+uzBp9+VmVdW5OT+mMd6IBbaGNEbN7hedMERvX5xG2gfKNoVBPmsPv06177c0a/olGuq0JE21iwMZNNluAG3ivmQU9xvQ431D9WgHPONHTVWrPm3mR2gYDcvW+HypQ0ZEzF2tPh++Ez5sR4e1PH6+S9+udg/5TdeFubHdvxnLspO0eTjoUGt1gBPqIvjmE3nxKo+nVreCga8/4XF/iUtH/LLVDimcMe5EEhdjJL7CtF63jgTxONl7xsH13lc5E5weh136Llz5TrI9HTQrt/2nWD35NinHeIEd0J29LkmR2Rdk4OY2P5oQpTw2VTcNC5q12rpNH5q52h2Ig8WLQ/u46yr9xPbW83upHx5Ptl3X544s8wP6G7k7pocsjhRJ55ncpCYQbMKvPjMU9zt0oPqQJ1jKLc/af3mga/j6+OEjlXaW+/ryW0ax9lECGO8+JPjIvfzRDyUHKrUmxA7RVr5wMHurUL3zwQJfYaOs4mvt3tp8fLowAsnltM+NSoOwg4Zo9S01DYVSxk53xtiVVJvGd+Rzy586mNWxWdh7DAaC1m8cjMyQ51ulRvMpy44ktcT2S5wbOIYL5c959dN/A6uqWO6utCR7KnBqnFsbF0gdRt6RuW5rhaz0JE3DPbaYimJdCqvc6dArQXprIPElajyGRoJPxjhDqzs1CYdOvWe0j4cLznwHcqLOqs/+/nfqv///j9+MPz//t/9B/Pu37w3//Jf/Wvzz/75v1DTUz6UX/V+u+G/wi8fzMpOjlY/lOu5bmhBsdrxG8iH87vhc12fujiW1HWtvNo5XzaKFyxY2FjCccROj+YGS8ZF/1RSrhEP/svEM3tf4cPEDh8HCxGF78kdWffpng66J4exvJyWptNTZ1jc6wbfVevOwnmtypGw18HBHMTgwolOJV6u/UhF8hIXWjbGSzT4qbSybMwPhJ1I5evb1DqacCWtq4twNvh0Ynur2R3yIPt8PvnSFcbcl6eIcfx7klda3hJ/N6NjtbaDy1YZAFGZOIZotibnajj4OBAGRWHJ7RgXx7Hi+69d7/i+8ZPjVVmmfIkezeBgIcn1R7XZIIpYVq03Jc+5r1hwMvi5tDOWhWdrpHE65EX1gJcq2j2b/AyOqn20X44vD9/fCmpx+QvFfbuMlfPwosyQGCPtfcxxWz4tMGKfyHaaz/l6X1wj2xz2pfzshhscmxrliFjOWs7k4zK7cW51D46k3butXxHGwJJjfNwo1+pCR62BZUCUz9ihZsLGz/FGQkwfLJzpNl2kdahRVOGpfSzCZB1Jbf2rLBMFohCAaMDB+cVPVu11gSWWTQtcOLc8PtTx+unP/rb6/28zgeP0G/+0mpbyofyqfpJcUbgeOijit8fwP8Ux3ZCN1OFyVoFbB55ex+XMO4Pv5DRgqgP2u5gaXNnnhvO793NVn/r6bvfM4PrOnUv5ZG5QeGVcuWFKO7c0U8PtuZF2aOmesoMZ/SgGPZZzYjDtORieDCVxMbNDdqyo0//eTV2mwXpyX182x9/U9nt9+ajrV+HIiLDp2gL2jRtAUHkLoUOZjkuDDbcmP+WEFkPoXOLvHXHW+bccAKp+Z7urS7Z8PiJ+WjxYyCi4P/G+ah1xQsdqbYedSUNvcWOeiKd4QvAsB+tcp/mTeSPrqT+3ktCxJmb2TSTJJntc/rROcF8yqSe8VCXnk/xOG8LSd+YYcaXgGWNf8s3d18eArx+sWGz3ReJ7JzGY+S19x3lrnzH9O9EmubhR5kEztdySFS5TNotD2lIto2bHsuf68inzlThCx/5BRhhnuPhP/TM1ZlZiVxCFD7T3Fz+8oDe8UX7Pyw3GoHWO0EwueqgU2nue4efbBytG2mPa6Fv0EeSbQZfuV3TGtbrQkXdU6HvWaWaisrI8NNALaasATwmw3BgIMsiGLDnmTinnm13LjV5yzVC+2dPXu8rBNuFzDi9owPM3P/vF4D/N4PjHv/FPzD98+48G01E+g0LHzvjvgiXzk7nNDatv7KRiTLymZWU0gA/7dIw8VVLrAt/rMVxd1ae+wxcaHLW8jHHauS55ym87KTsaZdoKdtwB4k6ptU/MBhGdmiDwFlPdPQc4jxCXyL44Ay9czwKPJgSHayv2bvT7KhwZ4QbNgGHBm5+I2Cem1keCA0U+4jeJXx5f5G/yuMgv8lPjcTr4y/24AGd5tkKYiREfDCQc442Ox4SOkE/2tN2XO5bHt9+zBwkOg1U4JP3mj5OlQ2J2KO+hkAy6s+t5QJ/2q1IcHj2jY+32ljgdy8vtmxcn6I0/vCTDbvKairgy7jJ26ZPTFDubvuAZ15kybS50RNFEi8H++mQgqj2o4/oTXwse7+NeQZy+sUuIZjbmSzs/21fWfqFNrt/QhrhOXI/5cdlW+uT2rWmfMpaRq5a/HLcpvoVYH/kbOR6vT+KnaKd5rxq6JvryybnBsa51jsg+OQkc/ABqqO9JM7rCskf/gIz5FK67p1/RWRz6/qOZKHRw0PaNkCWnGPiHipwvXcmnE3JQp8GXe1VdtXIXHXoKCDKoc4DQzvFv8ZOJQ2t+bWNp19jHaeilWBPztY1GtcMW7yEbWhwvjwt1Vv/6p78Y/f97f/8fjKahfCi/qp8STm/If35ywwEu2ZiNdt13r5qNm5FSh4k6OX5AVAyAc79onTSXJjaq+TXLfV/Vp9y4ys9qRzdu/qZyJJkBIOJa0kHx54XQVOT19YN551/V7fCeO5Bl/6WiRpytVsnvxgFjYb/E8kHHq3MkcIKx/eA393Oin6wX7ljvdMhBaIFbEl9m1qdgX37dGpyNsVATWvJzZYeeba7kw7z0ZVxyj4712g7q98Qla3bwHh4S+eUEcg8PLnOoP+lg1j7l88sS8n6K5NgQFwv+hXuxP8rP1eudGBSQ38OGotz22U/R76yWIecWi/X+vMS7WpfKtLLesx+cUCXiRNUmZamJKFcU9HiW2IDQbmeTRBFDe6uX44Urt+TILTy465rWfWr97f3v/RnehMN9ryTWx7RJbPRp8vhJ35vlBteV1jli+4r52LiMt0U9s8uhy3SD9TnhWnmtvUeHXBsXOt6IqdihgcgqaxXcvMGJnW5beauAc8OUO6psfHTxI7/OfbdThNRphrERisFHu5eeb0FQrsD4rAsJN2BDHa+/+pufL/ZP+VV9x5zeAf9tB8t2dOv1KTaQou5UAmVa5nonLenY3eCv9D563VnPp4QdCUDZZsaVjq4ru3y6mNlfjV0xxrFPZEelwMTe3w2UGW/3OkrhR45ZydNBtifGYr4fzzyge+WNouwAF7Y8yMf33mc9jnhMmRPv3ZRT6z97zvmE/USbwrrjRwkde+TsxHaR42f1AUGeT/bd+yBy2ter0Adh/k/7XJNDro6VcaAoixjoxn5H7IvwbASORVSv89gg6/cQF2+pg2tiFu2jeEZiRnz6feDZtxS7J8SoFH+/tIOwI/GJMJcc4rruxeZoR8ZHEqbs7C0flxN+19vQkJ+dek6itiaKu/O8xDDYL+0M5ZYPD315lNfU8pKcMOhW85pWd0IZgg1zr2vUp36zZ16qSq95jnVctN8JVwi72Ga7cZCbndEnN5hL7XIk1h9Zd7U4IM6pD/odVjLmx7w9jgXXGF/+vU+ujQodScVNgnTcCOl1dZqqr9AyyMqGRXGK7EQWTrxjRkfMy9vEaisHb2mXPZc1dJwOn3Vx4MHYUMfrL//654v9U36RF3lAiPx2deBV1kmJv6/H/8xGamjp6Y5vYKtLywb9UqkPYf8B0WAP5lPaVsVW5LOeTyvlLOq9K8dwHIqDkThAcfknQkolb4mLbLTcMeGdxR4lTsY8KuVijOW13p6ko8/pdvy5Hkc8hzW/2XOuLkhuDA0upW+jv/w9pF+q2Fd8q9k3pb4W97yFsxk3a7YX9+L4wJ09Hz/zpSv83U/xjSLhxPtW7FmVQ/QKP5ppJzegtTM4SPxwb2CJfCAf0HK1/IlfNjuH8mRhRPRdJMeGuBjvx34Y/1wVM+k38YTXtr1U3qmxy6eLM3fjXmwknswWOsLsSN4fwbeH4T7kt0o9lWVi+9mHxSe3sz4v+7sm7PgyFNezsMb5pOliPRr3+y1cGb2mQZ+GfVLsrItvYb+XIHjwQxU1FtIyI7/0qnducD1pkCNpvUjrZBxbc92Nn0P1Vcb8NH+tX5rV9065Nip0UEee9gcIayOTAOuUd54mHTv9DK4P2ncJHaSks9KVd47ovHaO09Pmivk6Tr1RioMMtl1pFLlC4rMuEDwQG+p4/fhXP1vsn/IrAgXbLxqnbfkfXz2mLfPiDXOTDTYTQTLvQDO/+VOvD4SLHNBVcWK8bvxcz6eVcvrAnzcso2UX/HDYKPGiknfA0uehTX9296cZJRx7tU4v+VApF8Xr93HzUxfbuBGt5cN82N/nehzxZdf8Zs+5QYTsaAzxxKYTg9Jk88mCPxruim+pnmn2TamvxT1v4Kz6sEGxvbgXp5nW2XODBR600bWKrTNizuocCn6KIkbJG1e/+Ul+iAuVcnFMkLGqzHO5+r0FZnGTZvJ9yn9XVrF5c44Tx1Nb59Jrp8Zot+SIZ4G4mEniNW2EL+t66gvtXsz39JPacHqrUvSbWy8ffZ/WD+nrmIbyzO7JZVf62tqGlWleqY1L/9a2T7+5ZfihvrulJizM2TFRNRamuPfIDeZa2xxhP/s6K+toHsMqbTvjRJ82dtzVr/jRvtSjpzg0SegIQVU4KAG7WpEVx0pHKtfJxsQ5Nw38QyqY/lve8GcNhCWav4cgD3esSvGGSYtPWfnWOKaO1//7q58t9k/5Ve1OuFnyeD3+s+DAA9WZn6LO6mVN60PcAZqnxeb1Z1ner+fTtJwBCxmPRKNTxqGs3Ak/4uAziReVvPneyT18fnK2hesMO3/rHV65F8CrMLMnPAXl8nDeyaZwWXk47Q4/1+OIx0TxWxzYxLaCxKT4Zo0cz5Rv9npZF3P+qLineTBvFhM6fDnncJbbxQPPvEhEVfmAwb8+t5ipEHGiNwPxa/RsRzfg48udLNXyuIc0MZ+Ai4qhS7c2h2LH3Q2SyUZXnzmeyn04suV0Wjm4Did9lB/DK1VJLHEc5fzn4aNhuC5mEg8WaXP+Uxrf/tlNHmUZmTMsjuXXUtpYd8NDA7/hc4yvnMbtBSJFqCIGBH7yvcew93kf+A0ptL+WW+4Q7h/q5LDAzbbYDcdpmY/FhcvucAlYZfs8aL5+zLkefCo4mLUb9IY7y59Jsb43bjBuPXHEx4mhNizjUFkv07h2W7+iP67NFjp4IGSDKDe61YocnaI2LHwd7TLrO0zpa/y4Mgx9eqcNkSfpOESbuBHjRiM0NpSebRvoqJUkHLITv92LF3W8/uIvf7rYP+VXtSnxfwxQe+O/427awamWKakHzEdZH/yxmLWVDILU6zmf2z7X86mPE8lmrjTjy7+uzW5O7DZ2pTdsvLabuQ7gGjqkYuqynZbuZpjZGTbF9HuJEdvjOvXcKY0xSHTqSaDIXk9rfextYIGXnjy+zt6yE0Tq4FNagjU2y0fauf3xehzxZR3obLCfaMaBW0pQ4wjXq7eGZ11JEWta+8IcocGyFBG24izh420KfBoWXqvxw8dX4i6JHYwrYcQzRBO8+L6T2/mUt+txSHbcUwHDlTEdDEdBpMYjEjN42Uo9DcUD1xak+c9rCzbCzC6/9Dzi6fy2reE6xMIH2Se4QvtuZDN246wp7do6d2PcTTGQ+NnZHvQ2E8/9MNvOLlGgmc/yWr5X9IfsZ0YucJtLXOFrvJ85vquclyI3iz9v7SyYyAV68xrbO8wdWc5FjjvxaYJVrd1I+pKSI/G4K25wP7I7jvi6rtZnz4UahxizMJPr9n5Fj1ybKHRwAM47NT6IVysyB/H8Or+TsOjscGfdfc4Jyt62IfIEkhCZ0gaQnU5PqJzw4XdF952LakctyTMGrCTwIU1dSLgBG9tZ/fGn5i8W+qf8qv5KOL1f/jv+zqkvOVez+vCJBvtOeGQhsIrRDT7M81rPpxUf2jXYtEmp+A9CR7rjeW47dar51W92o0Da0M6uxefOpX/FryIscNyxHewQB108jQMbN7Wd3xhl75F07OlJnn+7Q4hf7F9a8scDJD/dOwyYnHBi33y1gA9zXJb+vh5HPHZaZ4OWA+WvfAt+o6e/jDt/pm1fsX9OEl/4mvxzX5x1fp3Y3jI2WrucD+g8Bx3PKf5QfyGPaRPvW+HzWhziuhuFSSd8RGEsDnxDPSGseD2/tF9yrsCDuSLf4kK4KfnLPGccr4VZ6JMlIgeVL22bAl5B1HGzLuT5eKxdq3DI1/Up/Tz5Jh2qz3Qv9reL/1JA5rqb9pG5nxmFDv9QzQrtrp8sbWEBsIgfdG+xp4F8y1qIU8wFX0bqW5M4s0a7HnzXsk/zuqS1G5RmLNZzrPRtePvciLHLbonQDUdiTOIH+8VnMcOMseLPO/sVnXKtLnRMaQC4AgeFWwZ6cozesFCjLzv4MrDTAIB+px3tY6M1dKzcIw9AyXcmm1DEuEEQQYmFl7IDO2QLfpvms9twoo7X//3xp4v9U35Ve/fMf9qXxs9AcE+X7unc+vpTDJRv81EVz6QOxrxX9enQa14z+xIhQv7mBx+hY0mxTxukfKcnblFoSNPIacnfwgA6Doa8QCJioNz4zA4Cg3jC8SwKtVEYUYQW0Tl2Hd88ZkffzPXlo9KvxRHrr1zkyvHKO2XcccgHouI8L89I8OG2c2zG4G4463nB5dIEjKSeUIxyr2/Xyk3cK9tWMRsi5M8DRv+wJJyfx9O1OJSUlfHggabt90ypb2lnNo0debkzfGRfhu9/4+eqmMk3hBHHCCuePXFT25THRcLN7YdBy82kn+wszSpGgpO2n6uIKyJGaIIE34tiOC13oxmDrv1gEYTe7lTjN3Mh3pfbJtdHjedpSRvPNrGcEWWS15Qb3+acWuh7Bz5l39rPW4UOK5h1xg3mZlccyWO1r/N+/MxjTr1t9HWS21/7Fqk0jlkOTuhXdBeHvv9o6kIHTSt6Q1NmFTCZpEFxL6cQJgEgpF8ogMr82PGTO0ByYEeDjHR6qVWiqbNLT7XFQGO18siy4TjpkFDHa+n/ql93zX/u/Bxch3Cwjo7VOVkfxtIu//vS/qT8qj5dqj7ZDiUN4qbECD+zQhnQxmnWbiaIewrmOq76UzeXVzpA1PzHr0XN3twgyu8G9e6p5MPxEve95V6rcYTbEj9ADz4gf6tilq8PFCsU//5AA5taG8L3mtxu3Vn3FuLsLf4rriGxsBKzrKBHWAvO0PIyO/C942n0ahwSdhflnvMb8WOiMGL3OqG+2h34aLZuiVmYyUAPvYrZUlPqghYXp1ynpBG+CDGh8KUTrFVRM0nLdgmBws5QoTf11GZb5MtiaL8XvZ2wDwor+VDMV+NUYp9S/oV+b9enDjMWk9L2ubJ/l4ppv9zg+NM2R7x/B9p8iuUu7g/Uw0X6FX1xrS50qBVxAHykf/wACxgDY3AAHAAHwAFwABwAB8ABcAAcAAfAAXBgkANW6PjN37oa/AMDcAAcAAfAAXAAHAAHwAFwABwAB8ABcAAceHYOWKHD4A8IdIrAT37yk05L3m6x4dN2fbtUycCRpZDsNx9waL7vgdl8zPZ+BXy6dw9tbx84sr0PerWAuAeho1fvo9wWAQTg9ogAn7bn06VLBI4sjWh/+YFD830OzOZjtvcr4NO9e2h7+8CR7X3QqwXEPQgdvXof5bYIIAC3RwT4tD2fLl0icGRpRPvLDxya73NgNh+zvV8Bn+7dQ9vbB45s74NeLSDuQejo1fsot0UAAbg9IsCn7fl06RKBI0sj2l9+4NB8nwOz+Zjt/Qr4dO8e2t4+cGR7H/RqAXEPQkev3ke5LQKrB+Dr2RwPR3M8Hs35Cic8AoHVfWqMuZwO5ng6G7j0ER5dPs8tOLJ8KZDjlggMceh6PprD8WQutYBwvZrr9WIu57M5nY7mOLkxuJrz8WhO58tTxpohzLb0Je59OwLw6e3Y9XIlONKLp/dXTuIehI79+QUWrYjA4wIwdWSV/wsJHTQovui/X2s94xVBefJbPc6ndWBI6Dhd6r/jl30hsAVH9oUArLkXgSEOkdCRiBdW4D6Ygxe5Seim49P5bC6Xi/2fHvmv5nIiIeX5hNUhzO71B67fBgH4dBvcn+mu4MgzeastW4l7EDra8um+SnM9m9OROnf+n55EaY+4inQnfbZDka6SX0CBnn7xvfVO4cMCcOjYivIzDkOfT9h5DXDv5OBhPjWeT0c3I4cGK/zvOB6/8zArHJwAACAASURBVPmj5d/JQAPZCTm8GY/jyE7KOTVWFunujL1Ffkdz1mL+JJj8gD7ESxIGpssBxS2ul9AeJSKETDjD/iEOFcIntQcytuffpQ3h+GJOoezT25Fq2UK+2x0MYbadVQ3embleUd+v55N94MLtVlqvhnhXzkSFTxvkjzEGHGnTr7so1VB8upzimFG0f4Ptmr2mjE1UVopPEDp24fX9GvFf//v/NGP/qvVioH88ndz0XE/ahLBKOm58kz6tko5mRlDaJD9pjKwwspMp0ow10mNlp99rf3ZGR/ajndJ80CuksTNAsgvwdTYCj/Spbgx1DCFm6Njs8+wYR/Zg9c2xZ2qsVNLdFXtDvD0ajvkuv1tmO0mRmtqPODCrxvsBp6Wd9kqbMdP+Oofc8hLbflFMJ7sI66QNmhIzhtLcIfgM4PTon+qYPfrOveR/NReaTXQ8mzPN+lGEjmJZFQ06hvpRDF3BYfcDfMoAtfMJjrTjy32VZDw+GWqHlbhVLwc/wNDHVRSfIHTU0ev+F+5o/+mf/7n5kz/7M/N//vRPzR//yZ+YP/rjPzZ/+Ed/ZP7gD//QiiD/6T//jwyr2ElN+ModSdHhoydfhVjB6cLF0/OLhrjG+0BP3UkQEfeMaZzaJ7/L49vLz7l4G4QqyR1/9bNiI+eGz2kIDHW87vcpBWo38KLBl/v309DDdz5/etq19NOQft5UQxzZQ6lu5+n0WLls7NXv64TdevytYs1tQBIT/YAsOVfNIfzANtByQRoEFu2NTTnf/oJDbHMe76kd86JSnOnl7LDtk50ZRu1gLpZSefNzrljWdzNxCIBseFBgtqEtTd76cg6zZi3vQx+KS+t4Xpwm7g7yqXKdf2LKueOzBQQqvgZHWnDutmUYjU/UVOoCbc1wWsZ5pL2uKg+Qqc2B0FFDD+etiDEkcvzvP/gD8/vfv5tS6OABft5Jy8/n3xn0/Hz+vZaOz/vKQsT3e2LUGvGhjhcNNm4rf7RDHnGHu+hk+ETYnkOidfvxo3169WvqeW09Lc+yg6jsvPv9OZ+83o7+c1w5xJE9lOD22DM1Vq6UjmeNDA6icsR10SFPNfU7zebg5TMcg8tZIRU8BuyvcogGBD7I0/3svZSn4eMdOrIpb0NdqUO+U0HYSboqZjuxryUzxvklSmt5rnPNphoY5MKnAseWD8GRlr27etlq8al2XjUwtKvUVmJGh4oRTg4jQJ3t2kwOFjl+7/d/XxE6KvlSYylnV9jAqT3t446uTtyQe54f/8D5UmeTjysd7aFG+vbyc6d5+rpqOcOj7IRzwfA5BYHH+LRyZ8uvgQ5i5TKc3haBIY5sa5m7++2xp2J9HiurcfHO2JvfPr9v/rv6nePn8vXKdqKmTNNnuwbsr3GI7sExPOzVQXiHNuhqrhda0pJ2zmipY/pHv+sYUL58j/SafX+rYbZvq5/TulkDBuJ54GdZ3sDj8ie7Bl45jVOtIQCOtObRTctTi0+y/Rw2kPoqPEZM21J5HbU5mNEhEcFxggB1trXlKlLk+F+/93sThQ7uvIoO2mhne2htt5Kft95O6+UOYvUeLvFQx+v28tPyBreTvnuq7960Qrvsn8WbWOI0apn2Yi5FhzdxC76MIPAon1JQlVPPw0ajwqf0yki7gWCetjaNZ6Qs+PkxCAxx5DF3nJfr7bFHu48SK6txkYWO22JvcvfrJWwGPY/+bC+9njXd0Nq+rSq5ybwvtnM1VegYsb/GoTgoFB0xK5gczcm+beWQzPhwr6F1WKU4EQ4OA96PSgri+rEujMxD6XGpa5g97o795lwbSJSIuDqfck+kSkQ6cd4fwqclJu2dAUfa8+m2JarFJyvin8bbfSuIhKBFbSWLHmm5KD5B6EgxwTeBAHW2aU+Ov/N3/031/3d/93cnCB28WUw2e+PmznYlP7LdP4ELT7uq93AFHWqklyl/tPV4iq8SLAUQATwO70Lg8T4l867mfKoMKi60N0f+dJaLxIO422b7DD114zvgcxyBIY6MX/34FMvEHrIzxp+EO9W4OCZ0VPITkLCY4GbvVd7iItIXh2yb3+uCNzYNg/3QuSmuHD3BtoX2QbmC04zZr3NIiBt2xoaPEVSmY1xCI29rXxUrZzqGH73QEb7zgffRHThwTmt/6pitbUUf97M8nsAR+2BoYDYH5TNUX+DT9vkEjrTv47VLWItPzLXwsjZ+4CBjmW9P49sMIXSs7b9m7kedbbnxaD6Tg0SO3/md3xkWOvgJt9aR4w5t0cgOdLaH8uPXf/JsDvJE9R7OTUON9L3lv/L+IL7Drj+B4wEvvTrx4nbob4ZB2xTkkT61JeLAazmdz/Lwm99OfWq8DUTd33WII3sA597YwzwNryfNY2w1Lt4aeyNqFPfsJr08e6F40qKJfUI0ZNsO2ayScF4+uRnJK5rlIKluRhoTjtvv0qocsjZ6cSeZ6q3ZybFfzHKMZjiRSrZl4TfOS2AWftv3gYrZvk1+WutqAwlZIJsmjw0yge1TyfqW/Gi/wKclJi2dAUda8uZ+yjIlPgVrfbvKwgaJIVL3sA90in6Gu5riE2Z0BCRxkCNAnW1+u0pN5KB1xeVmpD6n0DF1mzUWz7j596Kh5c521sByehpEnkpRwFacWue4uIezcaiRvrn8NBCmV7tZgYOnK2dlCRD5twAcRaf3dLZLXHJ/4Ps0BB7iU/bXxb3mkp4yxzX3uV2Ov3Zpy5Gmnue/4/vWCAxxZGvb6P43xx42fiRW1gXg22Iv37b4DHbIQTnNCskFwux3GzvlOcqZbZOdnLG8Uou4jRh6Qp1codrvUugccm9lOh6ofFLAINvz8rh8yKa008YWkKChXOOXwaT58zX7/tQx27fNz2rd2EDCziSq9ItCmYn/I2ng04BWcwfgSHMu3U2BxuJTaii1hX4MRX3wIiaJ39ML7R5CEDoyUPA1IkCdbXqF7JDI8du//dsVoYOfOjlRIuYqjzhNLgLwednJ43P1/OyUp7HZE1mPcqiRvrn8POvED3Jd59rN2OA3dfCnE0So/LRBnRtEJ1PMJVw4noTAw3xKYhRNPyfhYrADSIMax+ngUwrSLEdPKgUSPRKBIY488r5T87459tgbjMdK9wSExNVlYi8tGbRLS7L4Wr/PEBIsaOS28XkpdAzlU/7mYrEUIHyaG+wf5BAvoQyC/A1ChxpjPAaUr72HbCPL8u7tzCBmezP2ye0ZGkjY3yrCmyz2UB6cDj5lJNr6BEfa8ufeSjMltkSbqU/j+gOj47xMBKH4BKEjIomjDAHqbNM/vUKW3q5CG4/ychWayUEiB/2uzegIZCw6vulNOJ18wmYrAAkW4lpOJ8+lOdHY8+SmTJ/kp5hZQeezvROGGul7ym9IuPAGhvJURRjZob/Spfi7A4E1fMpPxNPNSeNT6nQA6d6ycEeRcOnCCAxxZOFb3ZTdPbFnSqwkozjdErGX60PKe7F0UJuZMIAMx0xpW7zH7YN7NV+yI8zckLFYni/vWeeQE5pOF78Zqx1QeoGimMnilrqJpi6iQkJG/oOfzeGasSh6xIv2fVTHbN92P6N1lus5f6gglusZzysFpBiR1EElHXyqgPLsp8CRZ/fg7u3X4xO1aUpssnws2+BYyCiExHPuiOIThI4cFXxPECARY+w/uYC+hE4jzb6QogMfn+N0/iJtFCaCJlGk4Xz4U+SXG8PXZiofJxtrpMfKrok8nDd/us61UnktVFRe/Te+Hp/zEFjDp5bjFU65Kfbw6TyvrZt6jCPrWqPf7abYw/HOLu/j+Cg/Raws0t4Xe1lEoHh2/waiYlbKkey/de8bt5TE7hlCbREvEbR5Oly4nZlrv86hXHzwmxZf6bzeUaP76uPRbBNI769k4Kmd0+m0i7M6ZrswrTkjLJ8LYjl+JhwaKDkJHUUWWXr4NAPk6b+CI0/vwicogB6faPh4tK+6Dku+/Qz54ZgFoeMJXN6YiaIDrW/AmQ0CicjcAaVZD37JR0Blbn7hQiG6VAalazTStuLapQs0WyP9d6+YzfCQ9uN4NgJr+BRCx2y37OqCVTiyRYnnxsqFY69dqpXEclqyd+sUNRIJWHxxy2zm5+WFh+psunQgN8f+gkO8SbHa1swVOtKOW1gCp406ednNUYhYW3Bvwj0LzCZcgyTTEeBZWlq/y1EnCohlmrwf4uqORjlpEXwq0WjhGBxpwYt7LMN4fCKr6eFEfLBBD07G2/20vZRlp/iEGR0SERx3h8AajbQTOuJmo+MdjO7csGiB1/Apz1qatnRl0eIhswUQWIUjC9iJLPaLQMmhq6G9l3RZxw8eJi5dsR1C2odDbGxNG3BX/4TApW3UXb1u5R9KzFY2ALdbHAH4dHFIm8sQHGnOpU9TIOIehI6ncRcMfQQCawRgFjq0firtK0KD5Zsfej4ClCfPcw2fOqFDn4pul66c4NM902gVjuwZANh2NwLzOERChx4v6OlV/sSKXnFrp+7aGTe0tEWXT9JCuGUye25L5mGWlg7f9okAfLpPv+zJKnBkT97oyxbiHoSOvnyO0mYIIABngDTwFT5twIkPLgI48mCAO8geHJrvZGA2H7O9XwGf7t1D29sHjmzvg14tIO5ZoYMO8A8MwAFwABwAB8ABcAAcAAfAAXAAHAAHwAFw4Nk5gBkdvcpcKLdFgCow/tpCAD5ty5+PKA048ghU+8oTHJrvb2A2H7O9XwGf7t1D29sHjmzvg14tIO5B6OjV+yi3RQABuD0iwKft+XTpEoEjSyPaX37g0HyfA7P5mO39Cvh07x7a3j5wZHsf9GoBcQ9CR6/eR7ktAgjA7REBPm3Pp0uXCBxZGtH+8gOH5vscmM3HbO9XwKd799D29oEj2/ugVwuIexA6evU+ym0RQABujwjwaXs+XbpE4MjSiPaXHzg03+fAbD5me78CPt27h7a3DxzZ3ge9WkDcg9DRq/dRbosAAnB7RIBP2/Pp0iUCR5ZGtL/86hy6msupfGUsIUSvEz8c/atj+4PMbnrfYbGbLnK9HjRdbBRuBgLgyAywkHRRBIh7EDoWhRSZPRsCCMDP5rFxe+HTcYx6TwGO9M6A+8tf59DFnA5Hc76W97icDuao/VAmjWeuZ3M8HMyh+q/fK2awn6M6ZvuxEZbMQwA+nYdXj6nBkR69vo8yE/cgdOzDF7BiIwQQgDcC/oG3hU8fCG4jWYMjjThyw2JUOXQ5mcPpolhWF0CUxPEUCR3Hs1F0E5ojYs5HCB0RLByNIkD8VESzXIC7Xoh3LLAdzemiM7BaD0YNQYJnR4BmqAUR9nhSxV0qIzjy7J5e0f6p8WkG9yB0rOg/3Gp/CCAA788n91oEn96LYPvXgyPt+/jRJaxxiGZtHA5HczzS/8EuVbFDxEoHLg46T0aTRwyEjke7sq/8q0KcgMHOIhIC2pVEuoPR9LtaPRC54bBBBK7nY7IMzwpjlZls4EiDBHhUkSbEp7ncg9DxKGch36dAAAH4Kdw0y0j4dBZcXSYGR7p0+6KFVjmUiRLUIXNPymnmRRwo0h4ex7Mqa5Q2ZnmmCTCjI8UD38YQsIMETbEQF6pLrGgAoswsUuuByAuHLSKgz06rcQscaZEDjylTjUPxbvO5B6EjooejDhFAAG7P6fBpez5dukTgyNKI9pdfySEnZsQlALFDZjtvYpCoDiRrEELoqCGD8zcgcOtAwhjicznrqKwHNxiFS54LATvjp+RCbfYZOPJc7t3S2tH4dAP3IHRs6VHce3MEEIA3d8HiBsCni0PaXIbgSHMuXb1ABYeuF3M+X+xeGtfz2Zz9ngZX2zETywCMMbOFjsPBL4XhJTHxk5bJzN3fdHWw/A0LzLYypOP70kAiinEKELWBRGU/GPhUwbD1UzWOVM6DI60TYrny3RyfBrgHoWM5/yCnJ0QAAfgJnTZiMnw6AhB+xuZo4MDdCAzFGRIy5OqAq9/jgPfucPtyeLHCbgypPB2928L9ZTCE2f6sbdMiK7KdzuYUNho9mOPJCXS2xJUBg9v4NuU1pYdP2+TJcKnibLUknd2HqIxl4EiCEr4MIDAan+zMMkXcH+AehI4BwPFT+wggALfnY/i0PZ8uXSJwZGlE+8tviEO50JG/HcV25ngaBg0sxbKWaUjSQIPfiCE/y0HGtPzWSTWE2ToW4C7EPdprI7xEhWYikejByhyEDpBkAgJ2iUHCI34NdjkIRb2fACiSWARG4xO9ayzbCNcumbLtoc49CB0gV9cIIAC35374tD2fLl0icGRpRPvLb4hD9wsdbr+P+EYWFjNYyND2S9DO7csvQ5jty9LOrJHihjxOYEg31OWf4FNGorfPq6FNlUOMOtIriM/Yx6U3GqxR3iImzeMehI41nIR77BYBNNK7dc3NhsGnN0PXzYXgSDeuflhBhzi0jNCRP52SQoY85iJq5/i3fXwOYbYPC3u1grjj+VYMKhgT/Q0/8Cnjg0/3ZJ3F2IgHOBKxwNEtCIj4VLu8EreIexA6aqDhfBcIIAC352b4tD2fLl0icGRpRPvLb4hDUei4muuVsEkHifR72BCSOmjF0pU0vUNXChnymLHXzvFv+/gcwmwfFvZqhRxIyGOJh84v+FRi1PkxXkHcOQEeVfxaTBL3G+AehA6BEw77QwCNdHs+h0/b8+nSJQJHlka0v/yGOMRCRxQ0UuEinrcLjiF09EefjUqc8jAYkT0NTfjJiQYGEpwEn70goPNI5Q02rO2FFAuUU+dVOlNITzPEPQgdC7gGWTwvAkOd1ectVd+Ww6d9+39K6cGRKSghzRACQxyyna7j0W76aCd0VGZ02E3VDkdz4o1Jww21zpx8oi6P+SLtHP+2j88hzPZhYftWlBv5EW/EDCOCwAofx/CKZOPfGsT7lUqU4FOJRj/HzCMX34y5Vt56QYiAI/3w4t6SMq/kZsl5fOI0U7kHoeNer+D6p0YAAfip3acaD5+qsOCkQAAcEWDg8CYE6hwikYI2D5Vr1a/meomv8Kw9fYqG+DyO/hW09lPm6Qanh+rvMac9HdUx25OVrdtyNZfz0RzDW3s0oc2JHfEVtLTRJA8rUnzg0xSPnr6lm5Ge4pt8MhDAkQwQfB1AYFp8msM9CB0DcOOn9hFAAG7Px/Bpez5dukTgyNKI9pffEIeul7MpJmkIiKYJHcpmpEc/mMiWGrisL+Z0PA3eV5iwyeEQZpsYhJvejQB8ejeEzWcAjjTv4t0WkLgHoWO37oFhayCAALwGyuveAz5dF+9nvBs48oxe25fN93BoXOjYV1mXsuYezJayAfksiwB8uiyeLeYGjrTo1ecoE3EPQsdz+ApWPggBBOAHAbthtvDphuA/ya3BkSdx1I7NBIfmOweYzcds71fAp3v30Pb2gSPb+6BXC4h7VuigA/wDA3AAHAAHwAFwABwAB8ABcAAcAAfAAXAAHHh2DmBGR68yF8ptEaAKjL+2EIBP2/LnI0oDjjwC1b7yBIfm+xuYzcds71fAp3v30Pb2gSPb+6BXC4h7EDp69T7KbRFAAG6PCPBpez5dukTgyNKI9pcfODTf58BsPmZ7vwI+3buHtrcPHNneB71aQNyD0NGr91FuiwACcHtEgE/b8+nSJQJHlka0v/zAofk+B2bzMdv7FfDp3j20vX3gyPY+6NUC4h6Ejl69j3JbBBCA2yMCfNqeT5cuETiyNKL95QcOzfc5MJuP2d6vgE/37qHt7QNHtvdBrxYQ9yB09Op9lNsigADcHhHg0/Z8unSJwJGlEe0vv5s4dDmZ4/FkLtdb8Lqa8/FgjqeLuenyW2658DU3YbawDchuWQTg02XxbDE3cKRFrz5HmYh7EDqew1ew8kEIIAA/CNgNs4VPNwT/SW4NjjyJo3Zs5nwOeaHifI9McTWX09EcDidz2TE2NdPmY1bLCef3ggB8uhdP7NcOcGS/vmndMuIehI7WvYzyDSKAADwIz1P+CJ8+pdtWNRocWRXuJm+mcehyOpjD8WiO/l8KEtczCRTp78fDwRw14eNycmkp/az/o9Gy24sDNMz2YltPdlzPJ0Pcc3w8jXPG8lHnFnzaJnMSjhyO5jQWWMCRNonwiFJdL+Z0PJjDaUCuH0kzlZ8UnyB0PMKJyPNpEEAj/TSummwofDoZqm4TgiPdun6xgmscIqEj9N2uZ3M8ns3VVGZh0O+1mRnh2jnm0owRfTA6J5dHptUwe+T9kHeJgBXcjuewfOp6IR4O8cYPSipp4NMS42c/4zgiltjRoLMmytrCgiPP7vN17L+ay5keBJzNmWYmhsZS3n08jXtokPGTlnUqYhzFJwgdEl8cd4cAGun2XA6ftufTpUsEjiyNaH/5aRyqCh3n/Km5W8ai9vMISno66kUS2pdDzhLh2SLxk353ggqEjv54OK/ENGAtRQ07cKiQkZZKHc9n9Tq6t1YP5tmE1PtCoBKbQkwqrQVHSkxwRkHgcjYnv0FVNeaMppnHT4pPEDoUX+BUPwigkW7P1/Bpez5dukTgyNKI9pefxqGa0EECRBQmjmLZgD9fGWQSqkmeGsw3zf7QMnr8OQ2zx98VdwgI1GYR1TgUzusCCeULnwZ02z4Y5Q440jYBli1dVegQt9HTVGYuVvhJ8QlChwAVh/0hgEa6PZ/Dp+35dOkSgSNLI9pffhqHSJQ4HFjU4JkWmViRdcioM6dNuWVE0zw5b/kZ78PX7PVTw2yvtjZpV8a9UEb1vBxQYBAbsOr1QJ3RAY70Sod7y62LGGmutTSq+K/y0wmxEDpSXPGtMwTQ8WrP4fBpez5dukTgyNKI9pefxqGkA0aDR7ukRBE6/HlCbYrQMTDhgzII99m7FzTM9m5zW/ZVBAsaJGT7xVheBuJVrsOMjrboUS2NvlwAHKkChh9GEKiJGPKyahrb5mV7dBzE/lgiE2pzIHQIQHDYHwLoeLXnc/i0PZ8uXSJwZGlE+8tP49AkoSN78mQHC8omag5RN8AYffOKEE727AkNsz3b26JtdvAgNiO1Qpl9A4vYu4MHEgEACB0Big4P7KyyPMaAIx0yYbkiV0UMcYuhNNeLeHMUvRXI7/0hLreH1OZA6MhRwfeuEEDHqz13w6ft+XTpEoEjSyPaX34ah3Shg8UKv9zEv9Yz7Nkx+DaDFNcwSE1PP803DbOnMb4ZQ/ktQPx6WRok0GajJ8Mve0x4bMsNoaMZ988sCMeca3YdOJIBgq+zEBgSMTijWhrmZNQ23BIqbQkotTkQOhhRfHaJADpe7bkdPm3Pp0uXCBxZGtH+8tM4lHT+K0tK+A0Fl2s+dBjDkAab+vTcsSv38ruG2V5s69oO4ioLHfSkNH96byB09MgPilXujU5Z6cGRDBB8nYtATcSQ+ehpKrFIxjCRCbU5EDoEIDjsDwF0vNrzOXzank+XLhE4sjSi/eWncYiEDm0z0ojOxZyOJ3M6DQkWTtAYXa7iZ4aU6cQShHjjXRxpmO3CsN6NEMupHIf9bA+NY5kIAp+2SR731DzO8pGlBEckGji+BQFdxEhzUtNUBA1TEWMpPkHoSHHFt84QQCPdnsPh0/Z8unSJwJGlEe0vP41DYzM6qONG02uTdBa6q6lP8PBLX8LGkB5rZQPJvXtBw2zvNrdln5vinW8JQ3zUpn3HsleeomIz0ghRS0d2MDlXMAVHWqLAo8uiihjZTfU0FZ5VBBBqcyB0ZMDia18IoOPVnr/h0/Z8unSJwJGlEe0vP41D6YDxai6XqwkLVKgj5p+GF0JHdWBxNZczLSU4+pkiJ3M+X8y1mn7fftAw27fF7VlnBw9iVgZt6pe/caUsdWVwAaGjhOrpzzhhdVj40goJjmio4JyOgC5ipGlraaj9pCVV6R4dB3PIHwb4+AShI8UV3zpDAB2v9hwOn7bn06VLBI4sjWh/+c3hkN0hXgwurdAhHqvng88amtcLiSW8rOBojifq7AUppXbZbs7PwWw3RjdoiN17gZelHMVrGqtlxSC2Ck1zP5CvOcbkn0OzPMCR5qiwcIGsQFHhFmsUU9IY4zZUPoa8qC28xIcKwm5qcyB0CEBw2B8C6Hi153P4tD2fLl0icGRpRPvLbxKHrhdz1jb0S16NR0+nTkboHsZcL1bAuFwu5nI5m/OJX6XnXqPnpI2rcQIKDUZ8R2/nmsckzPqj0lOXGD59avetYjw4sgrMuImCAHEPQocCDE71gwACcHu+hk/b8+nSJQJHlka0v/zGOUTLTupPmoYR809Vj/RKWl6uMnDFlTY5JRFkIM0OfhrHbAdGwoRZCMCns+DqMjE40qXbd1Fo4h6Ejl24AkZshQAC8FbIP+6+8OnjsG0lZ3CkFU9uVw5waD72wGw+Znu/Aj7du4e2tw8c2d4HvVpA3LNCBx3gHxiAA+AAOAAOgAPgADgADoAD4AA4AA6AA+DAs3MAMzp6lblQbosAVWD8tYUAfNqWPx9RGnDkEaj2lSc4NN/fwGw+Znu/Aj7du4e2tw8c2d4HvVpA3IPQ0av3UW6LAAJwe0SAT9vz6dIlAkeWRrS//MCh+T4HZvMx2/sV8OnePbS9feDI9j7o1QLiHoSOXr2PclsEEIDbIwJ82p5Ply4ROLI0ov3lBw7N9zkwm4/Z3q+AT/fuoe3tA0e290GvFhD3IHT06n2U2yKAANweEeDT9ny6dInAkaUR7S8/cGi+z4HZfMz2fgV8uncPbW8fOLK9D3q1gLgHoaNX76PcFgEE4PaIAJ+259OlSwSOLI1of/ltxaHL6WCO5+tTAr4VZk8J1pMYDZ8+iaM2NBMc2RD8zm9N3IPQ0TkJei8+AnB7DIBP2/Pp0iUCR5ZGtL/86hy6mNPhYA5z/o9nM1W6gNDRH9f2XOJ6Pdiz1bBtTQTAkTXRxr0kAsQ9CB0SERx3hwACcHsuh0/b8+nSJQJHlka0v/zqHLqa8/FoikkX17M5HU/q+SOEjv4ItGGJr+eTOQYh7mhOBVmNSdJovPX21+vBhgXEre9E4Gou9xQyyAAAD4lJREFUoxyZksaZAY7c6Y7WLr9ezOl4MIfTRS1ZEnsOE+JTJQ1lTtyD0KHCjJO9IIAA3J6n4dP2fLp0icCRpRHtL786h+pChypoXM+mOH85jcwIOZrjUfk/HEyl77gLB9Ux24V5XRhxPR/N4XAyF55C5AcdcjmUTXM8hzTXy9kcD4p45wcSXQDXUSHZ/0wRQxzJYsuUNAwZ6j0j0fsniWPUbp3N+XRUhQ7Hqyw+HdLlmlPSMNLEPQgdjAY+u0QAAbg9t8On7fl06RKBI0sj2l9+dQ5FocN1yFiQcMtZokDhRQlN6BiAE0tXBsDBTyMIEDcVMYyEtTCriAa1pahhuayoaPV6MGIKft4pAlP8PyVNLB44ErHo+uhyNievsOrxZEp8mpImokzcg9AR8cBRhwggALfndPi0PZ8uXSJwZGlE+8uvzqEodCSo1ASN2vnk4vgFQkfEAkdzERjgJs3yoOyIj3wss6/wtF4P5MU4fnoEEjGsUppKGnCkglfHp3WhowJILSbJ5JU0xD0IHRIoHHeHAAJwey6HT9vz6dIlAkeWRrS//OocGhhMhqfmAq/KAFKkSA4hdCRw4MtMBIg/xcQMOUCtDBhqAki9Hsw0DMl3jcCUgWktDTiya9duYlyNK6oxMj6pCYwxlTTEPQgdNdBwvgsEEIDbczN82p5Ply4ROLI0ov3lV+cQCx1uerdcqkJvYonfj+7JeUXosB3BsGHklLe4lMsN9uaVOmZ7s7RheyzfyjXwUfzQlyXYgYQy0wM+bZgrvmh2j5ajn/FTKe5QGnCkAlrHp6cLHdSeKuJsgl09DXEPQkcCFr70hgACcHseh0/b8+nSJQJHlka0v/zqHKoMFGsQVYQOLTk9jefX1srNI7W0ezxXx2yP1rZr0/WSvXUl7EzqymwHIWIzUjebg7hXimnwaas8cYNHG29I5Ag7k8ryTknj3nwhr8IxEJgqdNg2T5sJKSAcSkPxCUKHAAuH/SGARro9n8On7fl06RKBI0sj2l9+dQ6R0DH89DNBa6rQQYNTu1s97UBPr6otB51Jvjv8Usdsh8Y2alIhYhgarB5NKpxdzYXeisAzio5Hc6KNBBVew6eNEkUWS3kzj/zZHg+kAUcKtLo/MUXo4FilamwewbE0xD0IHd3TrW8AEIDb8z982p5Ply4ROLI0ov3lV+eQFDrc7I5kuYp/LeyB1wpMEjouQdigp1d2UOqFj6FO4N68Usdsb5a2ak9lthFxUBExEhQqaeDTBKV2v1T8nxS4kgYcSVDCF7vnsf56WQbHCq2jMzmO4m1RfGX6SdyD0JFigm+dIYAA3J7D4dP2fLp0icCRpRHtL78qh5LOvhQ9BEa0cdpkocNND+cn7kHo8J3F4+linkXsqGImoMHhAxFIuCnvUxFAkiTyFbTxB/g0YtH20QSOGD0NONI2M24p3dCMDjdLY3hW5JQ0ZBdxD0LHLR7CNc0ggADcjCtDQeDTAAUOKgiAIxVgcHoyAlUOJbu/3yt00BKCQxRF7ObyfkaHt3TKk6/JhXpwwipmD74vsmcE9IFo+kYVt5TlnKlnUmDj3OgTPpVoNHBcE8PkeXksi1w5D45IkHBMCFSFDsuhkWWZU9J4mIl7EDrAua4RQABuz/3waXs+XbpE4MjSiPaXX41DaQeOBpYHc/DLVcISFjo3NqPjerG7zVM6OebUBpz2ngfaR+GapN2bV2qY7c3Olu2xwpncaNTu0SH4yIMQMW2cNi89VJa2wKetscXPIJNxx8cinlVmPGeS2WRFmogLOBKxwJFDIG0nGZV09iKfTT+npIlXEPcgdEQ8cNQhAgjA7TkdPm3Pp0uXCBxZGtH+8tM5NK8TZlGjp1NiUEnnrmf3VoxkIOEh1oQOe82F9lmg2R4Xn3J/Hzpm+7OzbYvcRqPEFbfZ6NHoPJObkdbeuoEZHW1y5WrOcjNaElHPqeBqxY7RNA4d1Ps2WTK3VFZkDXGH44/7dLq/fzCgpuFZHlPSRMuIexA6Ih446hABBOD2nA6ftufTpUsEjiyNaH/5qRwaePKdI3S9nM3lcnEDikzoMOZizvnaAZ9BTejI89/jdxWzPRoKmyYjAJ9OhqrbhOBIt67fvODEPQgdm7sBBmyJAALwlug/5t7w6WNwbSlXcKQlb25TFo1Dl7N7Oj7JIrvO+GCOx5OZMwkDQsckdJFoJQS0erDSrXGbJ0EAHHkSRzVoJnEPQkeDjkWRpiOAADwdq2dJCZ8+i6e2sxMc2Q77Vu4MDs33JDCbj9ner4BP9+6h7e0DR7b3Qa8WEPes0PGbv3U1+AcG4AA4AA6AA+AAOAAOgAPgADgADoAD4AA48OwcsELHD99/NPgHBuAAOAAOgAPgADgADoAD4AA4AA6AA+AAOPDsHIDQAZEHIhc4AA6AA+AAOAAOgAPgADgADoAD4AA40AwHIHSAzM2Q+dlVR9gP5RwcAAfAAXAAHAAHwAFwABwAB8CB+zkAoQNCB4QOcAAcAAfAAXAAHAAHwAFwABwAB8ABcKAZDkwQOr6Zj+8/mC+K0z++eWVev/+s/sYq1MdPw7//8PWDeXF4ZV68fGs+KvfgfPB5v6oFDIEhOAAOgAPgADgADoAD4AA4AA6AA+BA6xwYFTq+vH9lDoeDOeRChBUoDuZweGVef/qmKz+f3rprh9JwPm8+63lA/AAu4AA4AA6AA+AAOAAOgAPgADgADoAD4AA4MJEDo0IHKT1fgmDBsy6+mXcvncjx7uuIGvb1s3lt0x7MC03M8ELHi/cVsWRiQVpXpFC+EZ6BJwh64AA4AA6AA+AAONAbB75+CP1s92DylXmnPoD8Zmgmtk1DDzDpIaTW9y7ye2tG+/q9Yd5oeWm898KP2cJDbm2cV3Ckxjn03TF+Yw6wdkCTJ9KVImFShY1LFJvif6EPzOTesNDx9bN59+mzoeUn7yg4vnxrv7974wx48eaD/e3jpw/mo1YRQiBwwfX1Jy6s+ITQgU5J4IngBc6BF+AAOAAOgAPgADgADtQ5EB5EvjIv3rw1r4WQkfa55SCD0r01L/xgIhlI8CzrAz2clPm9gtjROA/jYNNz6SWLYpnvJ3MOfXqIHIIDgTd1oYO2saDYJP8T0TbkMRbv4n1HhA7aPyOqKlJhSY+zSjAnGEDoqDdgc3BEWuAIDoAD4AA4AA6AA+BAJxyI4oUUNcKAVT415QGCPPf9s3lNgoY495EfZMqZHnytNisbXGuEa44LNMtHzt4JXAq+n8E5cKMRbkTR4HbhxvPr5SunK4iYQ3kyz2QcK+91G/cmCR2J2psR1xmXVozSOAbJbWxKM0TC/3unKsfZIfG3L4OzRDhPfNbxBjbABhwAB8ABcAAcAAfAgfY4wINTXlbufcyzMsJgQh8glHhU8vOCyOGQ3ScbD5T5gXNPg0nBGfZdzon8e41zfD0+n4YDD6zPQSv45CdQhNjk+OEE1jEt4TbuPU7o+Potihle2PjyNQbbdEaIPmtkWNlB5UHlAQfAAXAAHAAHwAFwABwABwIHeAZGGExUBgj5wKY62OW++9hABD4IPsix3fv3qu+ZOyO+LzgHLjwtF5bmKnOLZgXxcYhNjicsdMglddU9hHL7Rrg3TegIe3HE2RY8I8Pu3ZFNdbLO5RuHpS8VJdgXemjWCMiCgAEOgAPgADgADoAD4AA4AA4McID21vObScaHhTxYfWs+Zhv50UsCvvDAoTII+eE7Cx0HE/McsIHzw+fzLF1g3xezdpg7A0KHyjnwA3HKccCJGF4DYJ4lQkeMLyRu8N5AvHXGoD4wgXuThI7x2RcDFeD7jyYpZB74IHQ8TyDMfYfv8B04AA6AA+AAOAAOgAObcoDXuNv+Or04QC795sEFbz7qNxnlgcSB91/gdMkghAYrcSACoaPVAXz08Yv3LH7RiyR4xn05zhvkHOLBpvFgNyKLn/QQxIpKjPkSVn6I+hUmTJQTJeZwb1joyIhKGdOOqB+z8z98/RYV4fw3CB0gu8KJ3VRC2AZ+ggPgADgADoAD4MATc+DLpw/uTQXamzJ4cHHIZmSE834Qy98hdPRZF9j/YSY+vR2Dxn0kdihCxxDnnrguYXwixIa7/MjimdANmGNFjNHuydffx70BoYOmK9E7tj+bj+8/+NfK8quGotGsqgypvJjRoTkQ5xBMwAFwABwAB8ABcAAcAAcW5AAPJsIyBF5+EPvuDm8eSHgBhK8rBiGcrhxwwG8L+u2uQeVCdtD+iu/d6z3ptZ5fwmyeEd8zdwLnFrJnD5jAhpuEP1UfYJ4UMUbjy8S4w3lWuFcXOni6yRsSOkjgeGVeE+l5KkkwkgNovRJYoSOk/9HQpqQhOHoDw7QWECpiAyyABTgADoAD4AA4AA6AA+BAzoFP7q2FYelJ+D3vl9cGDHyeZ3rk1/Hgg8/nQgn/js8wpgk+aAQTHkTyGG4y5xopf2v+XLE8cdkTL39SPnnZnGoXxx2vL9zIvarQ4Qx0mTtVJgoZX95/MB9p/d8nmumhiR+S4D6Q+kpi85IFg9CBxlsluOQQjpttROF71H9wABwAB8ABcGA+B3gQmi8rCOejMMFPV5OHiko6HpzIdHxtKaigb9ZO34w2saWH2pEzVDb2feBD4EwcE1oMwvn0+nbwAdfn+vKLnxlEb1KJ/7wy5JU79/6b+eErCxoZd/KJFYFj87inCx2cmRQn8kAqKgDN9ODgSMcpGCx0vDXuDS0HkwRLf69QidDYZfihcqV8Ah7AAxwAB8ABcAAcAAfAAR6Iam8rSPra33kwcbB77b1+88rwZqRJ/5v7/4dDePuBeyFBNrhAX725vrrkkh2Y+rf31MSPcc6hfiJGZxzg+MIzhHwcYQ3Brh7xmyXzi1Dk1hiSo/nbWdJ4F++rCB1StHAJOWOXaVRmXJBkBeazeUfKTBH84tQ4Mjp5lRWlhdChYBYdVOKJ34AJOAAOgAPgADgADoAD4MCPdkm52zDSTw1/SfvrVfrjb/iJqttgUk1HT1jDIJc2pKTX0oJrPXCNnsKzAObGbB/Ul03QNgbTOAfe9MCbyWWsCB30ZifaG0Zyj+JO8vYory/M5Z4idDhSJvtokBIsgx7vyFsxIikwF8rv8ZH8BqEDIkchjCEoFnUEGKGegAPgADgADoAD4AA4AA6AA+AAODCZA1WhY9HBFu3lUVODWQiR+3bAgZMduKifgDtwBwfAAXAAHAAHwAFwABwAB8ABcAAceHIOrCN0PDlIEBMwywIcAAfAAXAAHAAHwAFwABwAB8ABcAAceA4OQOiACAO1EhwAB8ABcAAcAAfAAXAAHAAHwAFwABxohgP/H8g4nHS19ngZAAAAAElFTkSuQmCC;" parent="1" vertex="1">
          <mxGeometry x="470" y="70" width="856.26" height="110" as="geometry" />
        </mxCell>
        <mxCell id="KrIiGlDKNdtUVGEVLTY_-57" value="" style="shape=image;verticalLabelPosition=bottom;labelBackgroundColor=default;verticalAlign=top;aspect=fixed;imageAspect=0;image=data:image/png,iVBORw0KGgoAAAANSUhEUgAAA9YAAAC5CAYAAADNo6egAAAgAElEQVR4Ae29Tes0O5IvVp+r1vdD2HhhjHE1NhjjMRhjjG/b2NDQm/oQjTkL7wy1Ods564ZmFg25O7uGBl/PvX3nfeQTIYUUkiKUUr5VZlU88H8yK1MKhX4RilBISun2N3/zN87+DAPTAdMB0wHTAdMB0wHTAdMB0wHTAdMB0wHTgWU6cAPg/s1f/bX9HYzB//V//z9u6z+T43v0eGs5Aj2TpcnSdOA9OnAk7mY7xmVsmI1jdqROH1WW6cE+emC4Gq5HteF3l7OXrltgfXBATYoEAt3yH9Aj2nbdxzBquJosj8Vbk8MWz02WnyPLLfRhbxqmb+P6ZpiNY7a3Hr+DvunBPnpguBqu72jP7yhzL123wPqNgfW//uu/uq3+QEHeoZhW5l/jyoOt5Ah0TJb7OLYeXQXsTZbvw79HRp+UxvRtXNcMs3HMPqnNUF1MD/bRA8PVcKU29unXvXTdAus3Btb/8q//6rb6AwX59EZw1voB9lvJEeiYLPdxbD36Y7J8H/Y98vm0NKZv4/pmmI1j9mntBupjerCPHhiuhusn2gupTnvp+lhg/duf3c9/+rP7zW/3UTyp4tKzX/34F/fzH/7ofrU4KP6j++lPf3E//Zho/Op3fwz1+r37zY9/RvpS2Vs9Q4H+y7+6f9noD+gN8XYSWWo8/+q3QQ5/+ov7oUffsD5/cT//6eeoF6An7k9rdWVe198uy9/9eVU9fXv6Oej/H90PgFlnO//V7yifjBPKwI3JAGj+9Cfnfv7x96jT2DahfWZ//p2mP0ufHyNL0O2yPvT7Z/dDVk96zq7MbkE9AZemLYS2ATIAmY7azDfq1lIZVvmibSDf9Uf3k3PuZ7Itv2XYZtjvo2Ocv2P0TW6bnI94D3b3dz+7H/4AtnOBvgj69Zs/OLRPP/1uGzzfj9nv3Q9gn0B/fjeAbYkNtku3si+zovySn4v9Pl4Pfu9+84c/u5/+IPg8srHSOxFX3wf9mdL/9vfRhkN7AVv9w0btJbZtkY9af47H9a/dr378s/sp+PuM39/9GdvZT139/XPL5x24Zlj+Fdgt6IulPnL+vtaFbfsW55PPXjIZCqx/BUqOHwb/xf006FB+pXZeWKfmtz2O13eKgI2ff/zjWDBJhiU4NMeCMHT+SBOED9S36VRoigsC/ed//pfN/oCeVpb0/L2y/KP7ITioH8Cg4r03oF6/iq/PmZykuuAz6qRw4wxBgXPDuqqWQfpTXI+WZRVECfWkYLRKW/D+b0Je52gAw3caU9v4ve9kOxiIKtontSNoN9RBUOi37YUv4+c/FXIPPPngvHjXoxMlLx2/j5FlsmFFrdxPP0IQPPeP2SYmPzVwITn9Yd5eVvryLt0CWf0W7MTPxYAK8xdZEPxzrZ9R3gHvWP/id8SwwD2mrzscozZCS3+MvgH/fqCSbC1dITjEv6Lq8BPaIwxgJ95/78iu5INcpUxSkAB5vT8l+7Iey+Mw03gtbaSWrnweBvRj36nQQ8Kqc1AzyaUs5zt+v0MPVF0mG9IMAKFvCQNWENhw2Yf7P/3sfoPBD7Q+ZuOjHTtGrsfjCu3CG6CqnyD16xp4nFk+x+Na6AvpaK9uxfQQ7xV9P5LBQN+i6QuorIPbz14yEQPrZhAMs4DYyS6dKf3OnSoZf7FzXDjzqlGR8NjVNxwYAe/pcAkji38Fo2NQBx5wJcMGHcv6faGgjB+q3+gVBPpP//wvm/0BPYmHs8qSMAY5UOcOhYIjtaBLv3cwa+3/SvyFGT9YZUABHnW4g5xhACbrCBYzfhJuI8+OkiXyRAaIB5bhGW8/hC/N+or1YQNlaVUAdRr/7GDQgwbS1MA5dNgpXTXbqskgm2UNZUIgDc+LATZfF+qYh7RZh7/Uj+W/D5Ul2RGSaVUnwmWmk/Xb1DHJA6GAQ2/nhPg4jW4Fu4yGoeO/Cr+/dt7+hcGK6DPy3zDICP9S++Gd3uW6JLY5knm4Hqlv0I7I1sL1J+jkh3+4AizYW32WgvSRcinXP/kZbygDZt18+53R4QKXFnZHYibzEXDg7aSL/4Sf17Vcz8hmO22QsquMffVVxuM9ZR6iB7iCI/UfYKUCDkJTHwP91UCfMdian3/8GVfNgKw9zXw1jRNs2VHYH4Jrpctk68nPd/quC8nnPbhS2yR8g83u1a+1fYuTy2cvmYiBdQxeFb/Zfiw70LxzTMIO16pjU7wPjTA6njYD2dvUWSKa5NwYn9HY0ahMUMJhx0llzF9BoP/4T/+82R/Qkwzv2WTZCvTRwcTAOjmzGBTHgKswEpnEe34w2VcGfl52Jc5HyRLLlYIkqf1Iz1hds7aEeg6DGH/0n0FECMMSblyK/0f3Qzljzejh7OKP1ImOBPSbzLC3O6r5KHRIm+Ufl1kpQ/p9pCyxXrFjlToUcVaQBjbKWVvx0wg/G1LbO5j59YFkc5AFZCmlk/RIesZ0YTvdCu18TtYS34Gfefv3FxxAAkVN2HWWy+pM+jN6PVLfMt4CZjhIDsEv1iXMqAEYHcvAWz7d4+7trE+3nc19G2ZR3m17leEc85CNov4HzAIlPftNGICEgKpaNVLRIFrffT1ED8JSZBqQkhwa2A3yUfB5YeyvYPBNbSsN8uFS8t+xwT1cBg35YEVIOchHMqa+Kf3e73oIrn8lrH7BgT9YAu+xwHbUsO34/kLyOQZXWS/ID+IkE67ILVcjyfm8LVvRtzi5fPaSiRhY546BOwLWuMkxQyAkdvRyQbWcMC1HTR2bPC/wkzprNLJHaZJzyvmm98U18k3fGVD9csdPitjiqas8xSmCQP/hH/95sz+gN88P1bVY2hEx2V+WhKvkoGaftTrYkgFWnVShE4qM5vH0dA6VZW89lbrT98uI9Z9gGb5f/fEr0gESQjWo5NsZ39sAvouq2j6Wm4LEsm1TByTPF/SyGFT5VQjo4XvYbGk6zBq0dGGFPI+UJW8LPOhNto6Ewa8M2956Sjoj5ZXSSXokPQMbHb6NR25X6pZve522XeI7q19Jp/gd6pNWtoRO7046xu3KkfqG5cIMAs1U45Lj1MGl5ZjY1mZ9OvkS6ghTQOEDCa/b+wXWh/pO+CQhWwpJ9or6EOAH4Nt01j9i+hcHymiWEwbMcPVEHlz572oJx3CdlcO2vozr5tnvj2o7NBmA+77QZ4KwuoMCZ5jV4yaa3zMbwu09TxLvwWZWn0PR2wV2n+ngiCyPwbWBGR/knLXtNGDhV7pFu3NC+RyDa2kPuL0ne0W2m/erynydvy8un71kogfW2TfR5ACSE/UGwG8AlkboZMcCjZoC63pED2bJyqXZXKj0jScYGMm4FJ2kGWMSjVsIHKgTyzu23ghRw5fK5PwtuweB/v0//JP497//n79x9Pdv/7f/w/3P/8u/df/D//g/uf/2v/vvxfRAB+ipxvM0shSwCg2T3Ee6DuIuNXAlAFBxmtEdLd+xsvRtMdNXqZ7Ss1A/0HkKkLE9UFsAZxS/8eJt228mBrKJ5Ua5FYM0WC6TXcZHaMtV0M4MfVIAnEGkICCWy/mDb/NpA6qFsitleqgs6ZtKqDPrgPnBCIYhk9v8t3fwmUTxmYz0mUTo5PvBi9Aue9tQJtO8TW+iW1GWnbZd4jvSAP4CnXIpOGEe6sNUz9/S+4xWXt9Sf0Z/H6tv5NOqmsYHZBdm66FhFtp27OBG358PXM/Sb2B+LGbUd+Gd0DKwJvtVt1moJ/UxIsjdNzK9Ndh9Ut6j9CD2GSW5gU2hz51wCX+YoW7YSFoZFMmFb+pJT8DX4SdwRCPMgh+1kuEoXCtdpD4F7x/QM/zMj+/3kOzwVeRzOK5sGXe9AolsFmhh0YdTbe+yvsWZ5bOXTPTAWnOc0RrUN6nzm5SeGg8ZjTpXeiLPDvtNV+h7rRTE08guBf1FZzL7hjPww+sEjTc2Wr8sq6SNO6Mie9s7OBDo3/39P6l//2sRUD9+9d+oaYEO0COsqyuvd4K7ebePLHO9yDdQg5G1evbUf/uX56P65TMBP7sffoQ/0gsYsCmfyd/cE72l10NlSUEEXx5Mjj2re2uwivAk45p3emEmWtpAq9xNMsmP7WyLusbaS9A9uW0XfHCHCkvFfvTL4srlkbktyXlfKkPKd4gsZwa6vN0hDH0nC/jz9Wb1Lb5fAvsFHTL/zV6zeceXmVxOpFteHhsH1rHW4YYC50pHO8tVOyCk1/PXQ/SN8Yk2M3xLjbOsNHvNBs3KPQ6obaQr6RjTRRrwOiiwPsx3xsEvao8g01B/bq/Ix5JOMcwTbl4fuN3kKulPYtAnJ0o63/776LYj402DVbAnife5sPIlfjdd6AGs6kHfCpsGgvBxcJhpgaBTmY0u6Mk8zdudVr734Eo2BdoZ3IdgL/bRPUbQH2zxXr87j3yOwhVWWMCEQ/xHK5OC3cdBG7yHzUFjKn9yA+0/tHXfQtXb98pnL5nogTV1sui7Svitff9TplVBXNfg48wD0wX9ljtCKJcEGHKQYdMJFG96R3X66ggC/Y9//4/NP5ih/q9+9V+7//y/+C+b6YAO0KuNSuCllM+bZekbPsFLciLDGjprfLQNksIyYQgc43fW9F0T0em5Ull9MlLxLPT7UFlSB66nunxJVcGzrxvtxs07yIPYBN2KS7WRPzbbzTobceCqWt4odFSRX+AvrZKJ+WlJpTR4Jtazv06HyHJGhrBjM63OodFenMVALJmsKjrsHcehbP/8Hb+v6LWVrN3h20C3yGbHmWY2aMZ0AI9HZIFh3W6D7Y90QueWOmmh3qk+IT295xhtfH+Ivgk8Z8v22Uow+sYzW0FR5KeBrXzwNcfM663Xx2pAqKBXy6vdXo/FrPBLyLtkr6R0eT0yvwe6SEuIoV+F3yJSe/P286gZylH8z5L+OD2AZf6K7WFHQ3o994EhHFmXn6JRLsnl7eWPeIQXrBaDFVp0ZGiil+vR3vgfhyvVi9pOWBFHfgjbCK3Qo8EKtmou2pFryOcQXHm/GQJqmpwg0yJdYZKGBlhpYIdkENOv6VucVz57yaQzsA5GgDov2FFjgabacaPvUASjBJ3rbOamSFN1vqERcmNEjVJ6Ru/SlRQnjibiN4BpSSwtz0mdhUQXjR0NMMTGnGgvMXQg0L/83T/O/v0n/+l/NpsG6AA9lY9MPm+UJY3WUmPNvqmFnWT90VtpZ2lYggyOJmSgRq/KQOrweDnt6aQOlaVU9yowIN1MG6eIutFqf2VHgg1oVLR+C2cvc5xJwPI1BTCJT2njurSiRKbT6vxXPEq4Cc8Ol2WUHdNdfOYHgbje+nvZwfFApqp71v4J885r5K9Mf4RuJVulaED2ONnukleFDgXOoY7v+sb6OD8A/jh91gHgpcFyOoGBBQCET2wn7B3u/O0HPH+Dvpw6wH7GletjS28rXY1llTJMvw9to6Ht5LaGtVXOb9QjPuvMMENtZf0moT/D5VPbyYTBEtw+Lc9hekA6kFkb/4PLyOs53wSxkNdvfw4BtF99JJ204duNt/28DR0pu8NwxbaTgmq0R7RbOvX1Mt+V0ma2/iLyOQxX7NdxG1ToIbdZ/B4/BazTNvUwk0+dF/X2xPLZSybzgfUf2LLQ6GgLBVfBVTo0NJOmAq7NLAZ6kQ8QpPRMFjAugZCWcYFyVXXop7vE6IFA/8N//IfN/oCeygfV7QSyROeDS1N03Uj+i+mB0ujzOisdnriMltHjBmXl/XGyBMxgoKHYwE8JfsjRZ06I11Vtf0kCdMc7EDnmf+38N8F8doqO8uF4k82QAkN6R6XBNeUtDTvvfFS88PotuD9OlsFGkex+ZGfc4jNffy9Dfi/hR6s35He1bZPs4xl1q9MGk31TBz9LOsXvIAOufXif+RkJs/XPjtQ3326qWjYfZLaD7AXYn2hTIXvd3nmb9Tqs6ObZ2yi1z3j2NMhc8zNBrygooLohbvUsNNnnPGj39PGzDspvV7Fvc0jbwSWxMHBcTPzgb/+cVhbE9iXaDT7JFI7aCsdL0mw47ncR9C0dxzW69Pk6Nikui4cBPr50mfn+2nelvgL2SS4kn0P0NbMVXOck/WXPxIlMr0vcllf9rTnfe3L57CWT2cA6eV1/xiwZAVjqQt9h/kSb41Qdm9AIuKHhjkoQCu9IVkIUg+iik5QplmRkFKfI+UIao3SlsvRnINB//5d/2OwP6NV4hfKpQxSFeQZZ1tjADCV9G5JmUup0aj3VDg99n5qCNZ3GSHk+7XGy7NVdz1e7LUmDSZ5+FrhX7aLGhxtefw84F+1HaOtJBkq9qC3zvIGfujNa85Xo9787TpaBJwlffMaDaX4vByhcBlW9OX6EaXVVZCDxF4OqRnuqylyiW4UOVTwHDKuySN7UsQi+qlwKTr/Dcrk0eNRZrsbPwPND9Q2WG8OqIL65HXR82E7HSXdAXhAMljMfxUoFoEl+hQWUkWbUFVlvU3kks/nrcZiFNuFK3pW2Er/H5rOWpIOsExuCNNrDBXxd6leV9yX+8/gswfSKeQ7RA/I3pOPVlWwg6QokKPUFZBZsSpWfHhCdPF2yScfJ/QhceVD9E+ymH3COATZNHoi2HZbOh2PpLiSfI3DN23GuS6Rp0rWlZ9yW5/SlPmShpyeXz14ymQ2sYcQavg2SN8SBZU2wYU6+DCyBH4zNqsAaNi8jZ1N2kOC59IzSwwZW5bmQslP0ykPGjRlCzvtAhylhUChaoAEC/dv/8Peb/QE9tUwmn/fKMh2NIHUkUkej3ojOp5/rZMiyBVxmg8wVsj1Olkr9gvEqjeNsnZleeN0RAgqFdtS1QMMHujl/vnz4Jorsh9ThgPaR50PaYHN+pOMhaEaWXIJGR25rkdcOGR8ny8CrhC8+87aIO7WWPDEdC2yyDagqOUs4CTIAvCT+etpTVeYC3aLO6JwNrsqi+vV1LHxn7jjbz/XxcH2LMk1Bc61jvs3STBznV7qnds7tT01zuzZ7GGZB9+tBPKWtALaZPQQ97NNBsmzVdU73O2yaJLNPeHaYHsCACfZzyQ+BLvvvRhOOuZx5W0hpQB8K3an0JdlcOUAn27bf9Thcf+/wM5Jok/yAFO3zgKtlVNue1/8K8jkOV8Im6FrLhij+nevs+r7FedvPXjLpCqyjMWACysBWlV8QLBekkK/uPOYGq3I8sw9Kh14YNnRMoQzWMSWHmC2F29CJgUD/v//w95v9AT3eGLL7DOdaJsfJkgLcWaHJCZj+ZfWLcsllm3Y/pKVXpS6QAVp3PU6Wef0iBrxNRSwIax4wFPXM9CI59EznFdpUdtZeAz3eEfUdbC9OubMBMzr03edf4ooFzMHbI9GmfR5YPYmXLa7HyTLIQsA3BSrJLsEgA2zclwXMEYNcLzA/byulnGM+rg85jYilwB+8y+Qu0SvLDHRGdItsMGyMJw3ExWfqiqlUP9hhHmdGgHecuaUllqHe2SxTwJ1jKNVxg2dH6xvWHRsXbAroByp9GyXbyL4JplmjVj2pXfK2ihj7wW0Izr2uEP0kk6hjLfrCu2MwI72Q7KfSVpBXyjdT34hb2B0a9K+xHHMpVp+c7xg9AH2lPiidMw17wRSnbkT71h5EJtuOm7H+jnZlznVs3meub0MtvTgOV1aPws/A6QU4sFf6EcEeXEU+x+MabFHLjxW413qR27plfYvztp+9ZDIcWFOwMhSM8Y5R2CUYO9nUaNjRQflRM6zhiQ2KGb2W8mR5c0UBRSJjl3X8ibdqKVwPT/NpQKD/7t//3WZ/QK9uFIGPrC6psZ1Nll4OuZNR65TJlPDmsg33LETPOvVifqIzdj1OlhRoFTtl087buCGf3wAOdpams+Z/0DpssTMAHWzCCzp4YQUKtMtqmSzHhvjxM8vUIUjtiJaZeiGUx3WhbAMPJCZYho5n3WebpRFvlAo+ZZhbvcD57L8/TpaBp4ZjIzxhRtUvt9XaBun9nx2t+uCDGzSL1tZ/kuVZdAvwIYdMcm9f1foFfYbcEFwTroARrbbK8KJyu31Kv36V9uw4fdMDZo9HHgimAFzTuTBAgSLR00B9vV3P6Zc4jPw+BjN/zCfYopo3am9pRQ1PE4MCzcdEfQy4xeX0+9k1zt+n3B+jB6S/fjY1tRXySeAvyU4leWKzEO0HH0gO9gw2cQ3+jvqibtbmL7c5c/I/CteMD80PUl+k0Q8nzKDfcWb5HI9r0FFRD+f7H14+ZOuW9y3OLJ+9ZNIZWJPhCIYgXoKzVJWfjE/MEG94YB0fxpu2o84a5HAniBTFO0USejwuCM7PhZmh4OzUzprmNDufo0D/9u/cv9voD+jluDDDm8nnvLL0shiRPasj4l7I9ncQZPrZrt5ljSqGDbkeJ0tFdrhzOmxqxv5iYM2/9yvxgqX5sKSNzRjDJj343SUFc+GoMyGQpbaTt2VvE6j9QJPG3ZbpOAfY6Cj7PANG7UP5xawXBPt0lBLSoWNpgp2QdlVdIj+e5zhZNhwbLIMnvAgT1hlPAxckz9zOVvsTZO2f8pTXc+mWl0ngqdUxgHZJ2Ejpyk5vaMf+lAiwD6BMpc3pLLdhE7hOte6P0jdqj2lwywfaadBGCHwBV2nWmutnhR3pFd9lHDAW6C/E7yjMdLnlfkZPR1j4qz9ui86Xhc/o2HvSYYAqHC0JtrmX9jemO0QPSC7BDqfALdgdHMz2Don3FX06vut+kjU/do2feBJtPrUVNugMPnTPPgzXn0NwLdv+0sD6QvI5Htdkp+LqrnITPj7RWcoEf6/sW5xcPnvJRA+sg6JzY8EbH94H0Gjzkjqt0EGBgBUPf08dIp4POuvwXp1lq4QvlFGlSUYtzsyB86LOKxkyyEeK4G1l7vyadHkZ8/cg0P/3b/9usz+gV8mH+D2zLOEb+TDT6vVoTQcs6AIFI1T/na+HynKgs5UFvhyD0DGOTj105uqliGmACZtD1snmS978mcWQJnXUQweRzZbzDUswmInBenIAvvPAZtcCb9kMNT+rceOl4UfJEgOdcvCjrBdt0EKyi7apsI/sOS13zmwB2enGqL+35/0d+X11K9hPqpcUMBMmcIV0MKhUpqP8dAoFzxPOjEW9jvmC/cCHzuWz2PM2PcM8K0vPe5S+ibxRxx39cY/s804WBIC1zaC6FlhyH9uJjcjzX/01Hi15mO/kvOJgu++foIr0+Bn0b6RQ/qoPCIbBDpY8C745L3Z/mB6A34JPcWAVmPeZoY/C7XW0IaT/1FbS8WpkM71403PYx4L60NimmGx5nnojQSpr2+tbbNLSwBo/O7mGfI7HtbTBzLAUt6qdiT6U6SvTT4qXeAxX2u0zt5+9ZKIH1njmXvoOqwTL/6YOcTkLtW1Dl8sOZZDgK8Om8cCDLwgIys6Bf4YznSwoaPLAFa3zHgS69Z/K46llSQ7IB2ViYNCJaVw62tPh6aap6VF6vrUcgZ4qy634pk4izOjP6nmYORYCs2xWBYN+kKc3wvIIe1hiyWdraNVJJjc6fqrYhZjV3wen0lLNJJtRHA+TJdmtEBBGrHDgsbRJrD7QlgU5/Bvo/GlypLK6bSQrj+HdjeVGutVdXotHGESKAzh5vXCgB4JDlv83YWA3X1WR59uEr1DmYfrG6riKf9ClzkAcv2v/w5/dDxvPtr0Ps+SrYKnuD5kN03UEgyPArBuHsFxYXIaul7NKrlvpx4F0jtUD6jfmAQboeLVCKGIAqzZyecFKGejjRHsf0oKOaHTAz4k2P5aTl7FWD47F1fNOAwhVgNczKYQ4nF8+x+MaMGn4fdRftOcNHdqkb3FO+ewlEz2w3qnRrm30lr/RAExm+wekhrFhbDpgOmA6YDpgOmA6YDpgOmA6YDpQ6IAF1gUgFrhb4G46YDpgOmA6YDpgOmA6YDpgOmA6YDpgOjCiAxhYF8vt7edFEfibv/mbi3JubJcImCxLRK7722R5XdldkXPQt9uvb+rfFeu0N8/WRvdG+Br0TQ/2kZPharjug8D5qEIAboH1+eSymCMzXouhO11Gk+XpRLKYIZPlYugs4wIEQN+0wHoBua/IYm30K8Q8W0nTg1mIFiUwXBfBNpvJcJ2F6PAEFlgfDvm+BVoj2xffI6mbLI9Ee9+yTJb74mvUcwRA36TAOk9lvzgC1kY5Gt97b3qwj+wNV8N1HwTOR9UC6/PJZBVHZrxWwXeqzCbLU4ljFTMmy1XwWeZBBEDfysB6kMTXJbc2+nUiFytseiDCsvqh4boaQpGA4SrC8taHFli/Ff7tCx9tZK/Hzd0fTzdtz4pRXImAyXIlgCfKPirLE7FurFwQAdA3Hlh3VeH1cPf7w70WOYPJPe/gS16X9SVjbfTlHre7e766kFUTTU/AfBv/Oz3viH8qbHLTIlkmCt94N6YH34jQsjobrstwm8tluM4hdPx7C6yPx3zXEkcbGQTWj5Wdg10r9MXETZafI/xRWX5Oza0m70AA9I0C677yQ2D8XBOJTe71uLvb7eGu6FLG2igE1lvU0+N+Gw6uAeubuzN5YWBd/EZZrBFpn/J8VKoxPfioqu9aGcN1H3gN131wXUPVAusV6OFo8+2XnVfx7+4ezKkR2en1dPc7SyNMB/TQIXp4fT3cDUbLBYcpNzJy3nd3v+d/xHv53PO8Rcch49x+DCBgshwA6+RJZVmenOk3sNdjC7exqZN7wWzhjP3ug2ByTwwovZ2HWdvF/6aXe4C/EGn08wz6BoE1/weB2I3Zfx4AQ1CGvoC9B2x44BZpof8hnzZylX1WpPvmm7E2ulVgDZUG/3yXsW5iAjykgfEssG70EZok7aUb0wMDrMceA0qG65iu9PhCw3UM07Wpe2VigfVCpLEjwpfNQYeo7IhMT3fnAXBIw/tMXXQyHkPHi9Nl78eM15adA8aE3W6CgMlyExhPQWRMlqdg+XAmumzhRjbVl8WW4Aq2uQ+AYqZ3evkl0dKoZ5MgBM0w6Pn0QTp3EiHfCM+SvmWrkwBHnCVVZpkRZ2VgNeZtVqh46YPHYY539SIAACAASURBVFgKKnv+lDDTyxvznTioEQdxRgYjtEGWwBkLoEE/cCAElvSzgFuvg72REBjTA4nCFz3rsMeEhuFKSMxfu3xhIGO4zuO5RYoRmVhgvQhx35mq+j7g5NiSrnKpFhaVpemjw1mEpXb359N/39U9Yw0U/GzH4/Fw6Q9mKe7sN3v3vO63chyvK9/rBtNkeTW56rK8Wk324rfPFm5jUyEoqmdP0XFWRn2mvmDPyzwQ2Ix+a/x6ukdYzSTzMcazpG9qYP18FKufFFkQFNGH+XR8Flxc+RQCeJiV/dbAmqDLrx4/cVVAnrD5a2J6g7Sm5+pvv5sFfvhLqe18eJUXV2/eHifShmvCon2n2N9od/PchmuOxz6/xmRigfWWUshG+eWOkHMdI90ZHcZgnCnQaLeX20yvl3uxP1hyCB1A/izdC1E7Y8Vu90egZTBNlvvjv2UJLVluWc7H0cpsoWb3VthUDpjSceFJyvssWC1fLvwtB9YKMYVnSd8yXqMvgQ5D/nlQXB5Pz8uBA8ZKRpM9j7exnPjktDcSZigLWIlGWMRrmHWOvxmGODOtzPbz2kfZwaqBcnDDuUnaeQzyLJz5boiRc/X195IefD0oIgBj9thwFUHsf5j5wpTNcE1YHH6nyMQC6y0lER0lTBDDMnDJufqOTHPkntOJ/PF8mkFrB9aRFNyo/GWp7McbEeg2mCbLN0qpr+huWfaR+55U3Baqes5towINp6MkGQpokUZHuUpZrccjfGhpJX2DIBhWKPkgEb639kvhs+C4wBjot2ZUc5pEm19TOa06n+GdhJnKF+KUvm9W06kvwIdTftAjug8ZQF/LT8sUWhMu/b67x/3ubvh5mg2KK1B1PR7Sgy6KH5qosBWplrJdNFwTQovuFB9muC5Cc5tMikwssN4G3rABCXOOTaPD0lXlC04W42B+lMZIYO2NXD7iDh0sOFYFjuOgP+/oq2V9NsxdSeioB7XBNFkehf3W5dSy3LqET6RX2MKNbSpHzG/AIw2E8lTlvbfDjyffoHL9kVNasFyW3uJZ0rcqgNYCa/Y5U09g3XQRIDNGr6zDmX5LmKn8hcC3+gxAzZC/wAEJBlwucx505/myX/A9P2yaF/Z6QVnBp16w+d39jp8WWIidIdb1Y0gPuih+aKJBe2y4rtGDwhcyUoYrA+PQW10mFlhvJAh0lLwDMWh0iI2KDrzAzgnv9I0E1kSZrrCDLadFz51zr4e4szlLYbcHIjBvMJfKMgyiLFxSSDNdB0Jx+aLmZXn5Km5egcoWbmlTkVvvGP1u2EvOb6Z2BOcZhxAmbF62NOACtvIgq4S1j2dJ3wDPGMuhTxFmrIsR+HZgzXhp2RLuF8vqnOi3hJnGHsoI67zgu/EQlEdZQCH4DPyyx1RfJTA5GFDB2WnYH4UtfctkRUE3rFAY/d5fq/SXPB/Rgy+BRK7moD02XGUYe55WvpBlMlwZGAfetmRigfUGgkAnW3YeBo0OsCHSQZ/LOkTI78LAmjp90CFQvw1TjljZACcjMYZA02CaLMfAfHPqpizfzNsZixdt4YY2tapzOOZKD2iqHGCZ2XJe9l7lk6Vp3GLds6hLSdzgWdI3ObCm4Dgs3w4Bclzh1LkcGTgkma04bEyp6DGPJczkkin49TvADw2ihGXbcJxlLmIapJnxv6hbUrDsd3fngTbyPkEQrgyky5X7+qf9evDlUKl2zrePXL8HPlP8cljL6pNd1VafmL6WiO3/e04mFlivlAHs0i3O4DWNTj3KrdIBR1wG7dihq2lAVbRG5r/DgmWKEj0CIXQYcCnZkhkcomPXLRAwWW6B4jloaLI8B3fn4kK1hVvZVK26Ff0U7KQNo3iQog1wls/n6OQMdQfWkK3i2dOS9E0OrPOy6dQJ+Exo7J+vY9mZHqPx3tQSZiJHOLsc/C+/FxOzhxhU+4A6k0VIMtdZY5SE21LnhCT2qAuBbj3oovbBiRTbQ+eys8UUCILhOq4Lqi9kpAxXBsYBtz0yscB6hSC8I+QdLU5Mc3TwPM/TooPLDQaW2VWNLMxqwHdYaOjAGFaBOvENgbXvMFAgDpvdPK86BUHVuujVZHlRwQlsV7IU0tgjmvXM7WPCZRubmuiVdxr9Mh39lmdm/Ey2PPBJOVvXocBaGWSV9M37EtpYTNpU7IWzmw++ZLxiFDAaPIc5S78cl4qVjR9ImNVFeJnzWWrEVfWpngLKFDcr8wMWUmBNKyD0VROh7AzPAVnM8FjX9Tuf9OnBd2KT11qzl/C8tuGGa47e3K9WXMDzGq4cjX3ve2VigfVSOeBoXbuTAM6zcpIwws0dXAedmkXNoCkz1rBBGRHB8qTjQ3yHCwPplNjRGZmU3a7HISAaTJPlcQLYsCRRlhvS/whSHbZwE5uK5dQdP232t4WtGARr9FuE2LshmkpZkr5lwRzk434oLOUGf5WlQ75gg0vGYHZbB5r4On4znCU+9Q8Js5JhwAY3/sxehMEG9VtmwCjfXT3DGDcQDQTDDPjozD/pDPI3mjmri/3o0QNDySMA+jbbxw1gGa4DWoN2vR1fEDXDlZDY+TogEwusF8nCdyYqg1LSIkGwjW3SERuQuJNOSVeZpYBks41M6FAl8r4DUC7hSe/t7kgETJZHor1vWbOy3Lf4C1DvtIWb2NRQFg+Ewp4Fsza9QtIHVQ9m4+HopHE6iTAFSekJ3I3xLOlb3gme3OtVDLiGQDsL+rBoODpS6uRN7vWET4vu4Rivh3s+X24iGanBeF6zs/ySMOO8oVxEHGhJ/s3BTHZPtSPGsKKsoNkshzNE9xne3ofbhmUEzvh1Tg/GKX5wDtI9Zv/yPm6qu+GasGjfdfrCQMRwbaO5zdsxmVhgvQj1MEItLskqOiC4eQgt1/JHYKQiB+ikTGHTnKKc8H62kYEhLGYqEmnvlC2wToi8885k+U70ty17VpbbFndBagO2cBObCjvqQ0DIbDMEhUuQo89tkFa+U3MvOQi0Ei/5fZqA7Od5RN/wsx/mEzDoY04AAz32XquTP/6LeIcNtp54pKOW/mzPdcz8xmCwmivJQuAegwxYYj+/P4nHGAYs5EEYH1zDu5ZOhoGNIjCHQRj/HeAj7VYvsGuPZAR0PZDTf/3Tpj1O6BiuCYv23YAv7JlMaxdmb7sQGJOJBdZdoF4n0azxCs4/7vpa7A6eLwW/Tr0/kVOT5edIdVaWn1NVq8kJEOjSNzqSqQyawyZbMdCn/TmoXtMLA+bX6+Veryce3wgBog88aRYcjoWC2Wz/HGdQF41aUKH7X0XM4qCJPJBdcRXTt84z97MfgG9c6VARch4/xDUF6hNg/gxnVUNQjoMXQmaYRMdjufxAB/j7Vlkyhe98KurBd0Kxaa0N103hjMQM1wjFaW4ssD6NKLZhZLaRYWAtfF+IxfsZETZZsQ1TRmURAibLRbCdMtOsLE/JtTF1VQTm9Q1mO6Vjm3pqHEbvcVCWln838mGwOTPb28h+1CsJMz84kALbPl5gxridZ4LgmJbPtojiIEZK4FcPwKqI1kx2Sg93Ew6g+DPL8zf2S0JA0gMpnT0bQ8BwHcOrN7Xh2ovUcekssD4O60NKskZ2CMyHFGKyPATmQwoxWR4CsxUSEDB9G1cFw2wcs0/MYXqwj1QNV8N1HwTORzUG1nBjf4aB6YDpgOmA6YDpgOmA6YDpgOmA6YDpgOmA6cC4DtxsJOl8Ix5LOTJZLkXufPlMlueTyVKOTJZLkbN8SxAAfbv9+pfva5W/JTQ/PY+10U+XcF/9TA/6cBpNZbiOItaX3nDtw+nIVDAQYYH1kYjvXJY1sp0BPpC8yfJAsHcuymS5M8BGPkMA9M2C6gyS2R/WRmch+ooEpgf7iNlwNVz3QeB8VC2wPp9MVnFkxmsVfKfKbLI8lThWMWOyXAWfZR5EAPRNCqwHyXxVcmujXyVutbKmByo0q14YrqvgUzMbrio0b3thgfXboN+nYGtk++D6Dqomy3egvk+ZJst9cDWqMgKgb2VgLae0p4SAtVFC4ruvpgf7yN9wNVz3QeB8VC2wPp9MVnE0arxeD38W5smPGF2FyVUzmyyvKrma71FZ1hTsiSHQjwDoGw+su3LiudPtY6J0Ov5sZjyvWk906jfvaKNw7Na9PEd8IUpwFBfgn/5NbjLHnuDovHuHHnSydulkhus+4jNc98F1DVULrNegd8K8o40MAuvMF5+wTt/KksnycyQ/KsvPqbnV5B0IgL5RYN1XfgiMn2siMTi/+e5ut4fj4V1f+e9P1WqjUK87ntvdcR3C0ON+Gw6uAeubu7OyMLAufqMs1oj0/WI5nIOWHhzOzAcVaLjuI0zDdR9c11C1wHoFejjafPtl51X8u7sHc2pEdno93f3O0rxqL9dDh+jh9fVwt9vdCcU5uZGR8647BcR73WkAnq/ZQcqwuvAPk+WFhVewLsuySGQ/XY8t3MamTu4Fs4Uz9rtPJJN7YkDp7Xw+a9hHIaaaXu4B/kIc7eznGfQNAmv+DwKxGwsOuX2HoAx9AXsP2PDALdJC/0M+beQq+6xI9803rTaK+Igy4Ux7PzubjGfBe8h3l7Gu0vIHL/e4pYHxLLBu9BE4BbuvEWjpQZ3anvTYbEDJcB3TFcN1DK/DUzdsrAXWC6WBjvbOls1Bh6jsiExPd+cBcEjDHW8XnYzH0PHidNn7MeMFPFvwzOA71a3J8lTiWMXMmCxXFXXZzF22cCOb6st6ujjMKdjmPiB9MBUD0OnlnnclIG0ShKAZBj6fPkjnTiLkG+FZ0rdsdRLgiLOkyiwz4qz4hpi3WaHipQ8epcHgIuHbfkqYETOIvSATfD/Rkms9sMZBjTiIMzIYoQ2yBM5Y5w54RD2EJf0s4KY62LUPgZYe9FH4nlTeJs30gwMchmu/Xhiu/Vi9J2U7DrPAepFUFAcKTo4t6SqXamFRWZo+OpxFXJL2fLrHcGDtZzsej4dLfzBLcWe/2bvnK3U6OQN2fxgCuiMyWR4mhI0K0mW5UQGXJ9NnC7exqTCgWM+eNoMnDV+w52XABYHNY9B+vp7uEVYzyXyM8SzpmxpYPx/F6idFFoRB9GE+HZ8FF1c+hQAeZmUvH1hPtVxJXpObwY3wi1efPg7KxOdjNxPTG6Q1Pd3zimvxx6q9W2qp7exW2KUJK/oe7UNeOcM1x0P/Zbjq2JzjzVwcZoH1lnLKRvnljpBzHbPEGR3GYJwp0Gi3l9tMr5d7sT9YcggdQP4s3ce5HMaA3R6JQMsRmSyPlMT6slqyXE/9gylktlCzeytsKodO6RDyJOV9FqyWLxf+pkCtK7vCs6RvGa/Rl0AnrvhEiGZW6Xk5cMAYy2iy5/E2lhOfnPZGwoyYJZngFVZ5RffIddJj2T14EGUHqwbKwQ3nJmnnMchD8hm8NsRI1bSrLVlerwOZzU7kWu0rpbI7FQHDVYXm0BfRp3Hbn3NggXWOx7pf0VE655RG4HBUe2bkntOJHHGnrQu023ip/MUC7ebNCJgs3yyADYvvluWGZX4EKW4LVZvFbaNSa05HSULBk/JaeNxRrpBr7tEIH1paSd8gCIYVSn5WGb639kvhs+C4wBjot2ZUc5pEm19TOXP1fvd7CTPiieM8gS6F4Jo/7/LtRBAH2On7aNAjug8JsIy+TwqAH/jk7HG/uxt+nhaj/lia3fQj0NKDfipfnFKxtYbrSp0wXFcCuEV27vP1OMwC6y2wRhqFcyw6KKmYIl16Ee7k99jBiUPOukBr4+UVIV+iBx0sGHWHb8PoD2jmm9tgnlhmxag92BkBk+XOAB9IvpblgYVftqjCFm5sUzksfkM05ZtinjC793b48eQbVPpVQGtCmzxYywrMfrR4lvStCqC1wJp9zoR+pzEFm9HMuAs/QGaMnpTkLM8kzIi3UiY+uL67e7ZHife1DbiIHO7ozT8hyOl7XzzreuF7ftg0L+z1grKCT71g87v7HT8tWKOHkdkvu2npwZdBsaC6hc1mFAxXBsbwreE6DNkOGbyNpe9s9DjMAuuNwMeRe96BWNgJrOgAf9g54Z0+XaDzxgt2sOW0GACvh7izOUthtwcisJ8sfcdt6ZJCmuk6EIrLFzUvy8tXcfMKVLZwS5uK3PrOit8Nmy/v7a0KtaO7e9La4LB5GQ+aeqlRujzIoqd07eNZ0rcsCGYBb/a8mBXBjoQaKTJeWsuSuV+kapzwKmFGbAJG+cy9P+6K76zuZ6yLmWciwK9hNjoLnPEZ+GWPaV4Wzzw5GFDB2WmYpWayyWRFQTesUBj93p8X94X3LT34QjiGqlzZbJbbcGVgDN4aroOA7ZF8IA6zwHoDAWBHqOw8LOgEinScw9HtzAnjMjJ5OXnTeFGnT5qZhu/pQudId+obgGUkuhEwWXZDdfqETVmenvvjGRRt4YY2tapROOZqzPb5wDq3za3PgKpSxQdY94qokLTBs6RvWQAdA2sKjsPybfIB9H11edKFwAY9IpnReD49v8pVwox4LwPrWFc4piz6fo9lU3Rh2TYcwZmno0GaMoAnDsIV24AULPvd3XmgjTkmCMKVgfSCtP30CLT0wDDSEaA2oa2SMFx17FpvDNcWOse9y/wnFgs2W47DLLBeKRfYHS45Vkas2QmshaHSAUccHTfR1wWqGS//HRYsU5ToEd0wWo5LyZbM4BAdu26BgMlyCxTPQUOT5Tm4OxcXqi3cyqZq1a3op2Anre7gQYpmh8vnc3RyhrAjlUddeQL+q+LZv5T0LesYQL7Kr8AgLnxT/cTPhHgx8/e+jr1sz9M7PoWEmeeiqFucXfZvecc3w7isAgbVPqCW0nE6Zdb536XOzeewFDICuh7I6e2ptxtiP5iBY7gyMDpvVV/I8huuDIy9bgfjMAusVwjCO0Le0eLENEcHz/M8LTrggFOnTrgvOkdVIwuzGvAdFq4aUzpUnnMIrH3QT4E4bHZjR3dwuR53b7I8Duu9S6pkuXeBF6XfsoX+RIV6UFI6aaFNRwNHs9laem2GcpROTh95745Q5bIkffO+hDYWkzYVg7M54cjFcjaV8wflCX6o+5kkP07/ffcSZsgNDl4kv4g+sZiWQ2zhhA1lszeUKZ4t7TNKgbXX49aMtde3Zn+gJYeir/A+pM9dsqoH52b7bdz12lrDdUxEhusYXnumHo3DLLBeKg3mbDUSIIxqaWHxDZvfPXy0syF3poAP0XjBBmXEJPJ9CzvDUicrXfNOA3zPFXMSBbsehIDJ8iCgDyhGlOUB5V6qiKNsKpaTD24iTtrzBohiELyADi9iiKZSlqRvWTAH+YpAC8oFf5Wl88A46eQnz3MI9sqBgGJWl9fvrPcSZsCr7+A+/UZhytI/+L76Bb4S6l1iEU4C4X2BDGPcQDSggrjBxmNjKJHOAN26/DFa355a04Nvx0WsP9qfvv6r4SoiKD80XGVcTvVUj8MssF4kKN+Z4I5SJEONg4JTmD3GUWtK3UmHkserLtBZ4yV0qCLZnqPAUmK72xkBk+XOAB9IflaWB/JyzqI6beEmNjWUxTd1CvtPzNr0Cjyy6WEAcjGdRJiCpPQE7sZ4lvQNgq5UPx8IxmFT5heyoA+LfuJxTmyfrMDa5F5P+LToHo7xerjn8+UmklEkntfkrL8kzGgW2Qe6cILGDPdYdz9oA8s4H+T7i2wRY+wT5IEJyl8N4AtC8DPDG/RE+gZbyGePRARkPRCTfvnDTpsdUDJce9XFcO1F6r3p9DjMAutFkvGdKXlJVu4kwenh8Re4RKt0tAN0Mj51gc4aL9aBykjiD++U6w5UndKe7I+AyXJ/jI8qYVaWRzFy2nIGbOEmNhVOR4CAkJY1ww7LsCfzgn/0uQ3Z+AUGFGcaIy/Ek7+m2ct+nkf0DT/7YbPXGPSxOtCM7Rw2/vgv4h2CuyXfai/Af6MsNWZh52+GTU9RKMuH9/tJdnlOjzEMWPDBjpTGB9fwrqWTYWCjCsL9Rmb4+ZcS2KeS7K5EoNaDMoX99ggM2GxtNaVBKSBguAqgnPCRHodZYH1Cca1hadYp4Oh271LwNZxY3rUImCzXInie/LOyPA+rxskHINClb3QkUxk4hk224qAD7c9BuEwv3Nzs9Xq51wuWSD/CiRL87GT4jAhmsyHQDjOoc5E50X/TtcIM8Ql7kwzxBN+qwzfswucGSMfPSAG+2ow2JEv7nKSNRCfA/BnOqoagHAcvZOb8sVx+oANWFbTKkil859NKD74Ths1rbbhuDikSNFz3wXUNVQus16B3wryzjYwtVavZ9zMibLKiTmJPDkPAZHkY1LsXNCvL3TmwAr4JgXl9g9nOpUuGw4wKHslFy78b6OKMPgR2jTQneDWP2XZMThAc98wm4yBGKtevHhhbXTHhAMFz2WqMVPTX3B2pB18Dqs1Y7yZq09fdoF1M2ALrxdCdM6M1snPKZQlXJsslqJ0zj8nynHL5VK5M38Yla5iNY/aJOUwP9pGq4Wq47oPA+ajGwBpu7M8wMB0wHTAdMB0wHTAdMB0wHTAdMB0wHTAdMB0Y14GbjSSdb8RjKUcmy6XInS+fyfJ8MlnKkclyKXKWbwkCoG+3X//yfa3yt4Tmp+exNvrpEu6rn+lBH06jqQzXUcT60huufTgdmQoGIiywPhLxncuyRrYzwAeSN1keCPbORZksdwbYyGcIgL5ZUJ1BMvvD2ugsRF+RwPRgHzEbrobrPgicj6oF1ueTySqOzHitgu9UmU2WpxLHKmZMlqvgs8yDCIC+SYH1IJmvSm5t9KvErVbW9ECFZtULw3UVfGpmw1WF5m0vLLB+G/T7FGyNbB9c30HVZPkO1Pcp02S5D65GVUYA9K0MrOWU9pQQsDZKSHz31fRgH/kbrobrPgicj6oF1ueTySqORo3X6+HPwjz5EaOrMLlqZpPlVSVX8z0qy5qCPTEE+hEAfeOBdVdOPHc6nZnclScm8mcz3x+vyx7rtKiNvh7+vOqFDhSO3bqX54hHTLWbl3ve726vYzHhSC+QY/o3uWlh/RKN69wt0oPrVO9tnBqu+0BvuO6D6xqqFlivQe+EeUcbGQTWmQ89YZ2+lSWT5edIflSWn1Nzq8k7EAB9o8C6r/wQGK+K1ib3etzd7fZwPCzrK//9qbQ2CnW6i7h4zNb5T0/jNhhcTxDQ31JwTedb3/Fs8bvLrzeFf8AcZJa/x8Ca1Rdpg0y/JLjW9OD9GnptDgzXfeRnuO6D6xqqFlivQA9Hm2+/7LyKf3f3YM6IyE6vp7vfWRrBO/XQIXp4LZwqfyc3MnLepcOFThDwVj/3PF+zg8TxuPK9yfLK0st5l2WZp7FfzvXYwm1s6uReMFs4Y7/7ZDK5JwaU3s7ns319FGKq6eUe4C/EaK2fZ9A3CKz5Pwigbizw4gGwD57y94CNGFCi/yGfNnJNgSDn6yz3ahudnu4eg9iXe0SdadV9xHeCf9aCdx0dH0w/sxUC0kB5GSjXFH2dSOWy9I2+Rk3nM56oevAZ1du4FmM2aePCP59c0x/46pu+vkkNGrbRAuuFMvFOjY3iQgMoOyKZQ4bB4dyBQdFddDIeQ8crOvrspRtrZMDPSAcgL8t+7YuAyXJffI+kPibLIzk7T1ldtnAjm+rLYkGJYJv7kPGDljEAnWCZrhKQNglCBxUGOJ8+SKcoh+UZ4VnStyzoAhxxllSZZUacFd8Q8zLmZm998CiMPc/mPCqBhBmVjYMShUzgWZQ7JVSumL8rIBeC9aJcpQh8nMk4JAS9meWTdRJjevg04PZ9K9paetDC/hvfrbVJ34hZX53n/QHRMX0lJI68tuMwC6wXycJ3pip/B86JLekSHW+Wpo8OZ9EvS3u6x3Bg7UcWH4+HS38wY31nv9m753W/leN4XfleN5gmy6vJVZfl1WqyF799tnAbmwoDivXsKXYSK6M+U1+w52UeCEhGvzV+Pd0jrGaS+RjjWdK3LOiKwbG3JXnAq8iCoIg+zKfjs+D5EmQYKIBZcBjAgLQ15kTyDFcJs8TXyz0ebCDG5fKYFn2E7PGbDXojE1BmHXg/nn5GHbAXV6BhnjubdY8Es5uJ6R/yND3d84pr+rNajf9o68E4vc/NkbcBqqdsv9zgpA9R+9LrrD9IuJi+JiyOupuLwyyw3lIS2Si/bHQcOmRlJoB4yejQQ5zeDrMMGu228ZpeL/dif7DkEDqA/Fm6/5IPqhi8Z7ttGUyT5dmk1eanJct2zi9/m9lCze7B84U2lcMbA0b+sH2fBavtpN1vtY6pSEDhWdK3jFcWWOMyZLZEPC6Pp2flwAFjJKPJnsfbWE58ctobCTON2UxGigy0vPF5zAerBh7VZmSzwXqFrTx4AbxWwTuULQTpPc8a6hCrduWbET24cj134z3qdV6C4Zrj0fsrszVCJsNVAGXPR9Huav0R5yyw3lIA3KAA+GJnT3Z+GRucTnzB8+kC7W5kKn+xQLt5MwImyzcLYMPiu2W5YZkfQYrbQtVmcduo1JrTUZLMdWDqbB3l1plmn4zwoaWV9A2C4LSfBs0kO9y8KgZLBcZAvwrKWA1ymspeHWwVF8t6ulsJM5HJ8rMBwGy4juDDaZk16BHdhxJBX8tPyzJmhDzKqoA5GRJZ2BANviV/wMz3HT5z+87B9W49IODsmiEwYpOyjPZDREDDkxKbvhISR1y5z9fjMAusN5NF4eiKDkoqpkiXXoQ7+T06x9j70QVaNzKvCPkSPehgeccJo+L+zzv6allfLLNi1B7sjIDJcmeADyRfy/LAwi9bVGELN7apHBa/IdrMrDfPgPfeDuNS3LhBpV8FtCYkmetIERstniV9y2aXWTCoPYdy0O/k68SpeI/A3KkSrJws4wl/VJihvrGl1+QLQ9Dbmt1tDUZA1XFAgujRXivxt/fF8aeAVdKRoIO4ZBvuax2ekyHs/YKb72EwHWQOn4zhMv47fqKwRp8F9k/9qNKDU3N7LuZGbdK5uD8nN6mty/yZvsq47PEUFCnYkgAAIABJREFUbWk0zN72Su7RAuuN0EdHyUetF3YCKzrAH3ZOuMPUBTrfyGAHW06LAfB6iDubsxR2eyAC+8kS9Id1GEfvuZ4fiMeVi5qX5ZVrtw/vlS3c0qYiyz5wxwApBBVjNaF2dHdPOu0hbF5WfXc9QLjdkerjWdI3wDP2CdCn+G+Gs+fFzH47KGO8tGzIReyFhFkUG+ASwYtP/Q3Dsngj/wyBeUYOn4Ff9pi2AnN/1BasOIDg1we+Ds8gDzadlvDTFWSTFQZsTQ6CIJydhllq1jvMZE5BN5wcMrpvgFz70z9t6sHpuX8Hg8wONOyo4bpMNm1/0P78c1mJlktEYCAOs8BaRHDsISp+2XlY0AkU6YTR7dwvLgysqdMHjpacLr+GzlHLqY8hY6nXINB0RCbLNdAenrcpy8O5OX+Boi3c0KZWCMDy3uHdvH1gndvmMBAqzBxWZSoP5jpSMVuDZ0nfsgA6BoPUKQ7LuMkHkF9oLkeOnOANyeyq+11JmMUabhVYh+XWsKlbrjc0SNPeaRwxho33nv4cazwGrNx0LDLduMG2JAXLfpd4HmgH4boHBE0Nkp/yqqkHn1LJveoxaJP2YuOT6M75A9PXY6Sd+U8sUo/DLLBeKRPYHY7vBB7JNTuB9e6oKh0ciea7kUIJukC1Rua/n4Jlio/G92BhtByXgLGjxGKl7OZIBEyWR6K9b1maLPct9ZrUVVu4lU3VYKnop2AnLfvlwYVmh8vnc3RyhuY6Ulnqimf/VtK3rGMA+crBYBzEhW+qnwu+r/V1zIPFjNPT/5Awi0zHwFqSpbT6p/bxOKscvqvOZBEKoYEJddk1Bi2BLvGDcgSdJL6k79xht3Cut7FWwg3QEXgXUn7qo6YefGqlt6zXgE3asthPpTXnD0xfD5D8YBxmgfUKmXhHqDkszUHB8zxPiw444NSpE+6LzlHVyMIIIiwbw9VeSofKwwCBtXeqFIjDZjffeOTGCrXYLKvJcjMo306okuXbOTonAy1bqA8ojtlUveaazdZy+IHIOpgcpZPTn+tI5anlsiR9876EAq+0eVmiB7P2cORiOZuaUngZCH4ozHQ3fRWmOW/QJmEWa06BbHzAbpo+1adDmWJQ7cNmKbAmbLtWjBX8eJ15VH0LX3rZPmiVwkI5Fn0OhsRH3Db14CNquHcl+m3S3px8Av05f2D6ur+UR+MwC6yXygRH5dqdBBBG5STBIXLH1EGnZlE2XJBObGSwQRkRwfJuLt/MjDpb/lzr9LkVfIcVcxIFux6EgMnyIKAPKEaU5QHlXqqIDlu4iU3FcvLBTcRJe94AUez0LKDDixiiqZQl6VsWzEE+7ofCBlrgr7J0HhinbxAdgrRydAH8XDGAzOt4xnsJs8hnEcjG53AjYJm9D7t1875AhjFuIBpyIG7w3XROofrF+YlYlwE05dKe0/t0Jd0D/urvslO6T75r6sEnV3y0bortwfYgtH3DdRRgn57apJbbcNWQ2fu5HodZYL0Ie9+Z4I5SJIOGJ9/YJh2xATk66VTEdYHONrJmJwD4aQ8WVKzYg90QMFnuBu3hhGdleThHZyuw0xZuYlNDWXwzprBnwaxNr2ADWwwzvGEAcjGdRFjuSI3xLOkbBEupfpN7vYoB1xBoZ0EfsEWYV2Osk3s94dMiPyB7h1VRz5eb1PSpjme8kzDD6uMmX36zsLhJHa8ABLbFIAV/Ld1HjGFFWbH0GuVfPKtohMA6Twu0hAEjXCYuPS+oZnLzfYFv2bCMI6HpAU9j94DAeptkOM4jIPuDlM/0NWFx7F1tu6l8C6wJiaGr70zJy96KwHSCnTdpyVXYwTOWNUAn5oEbXaCzjQycp9oJ8M40zVhnhdqPgxEwWR4M+I7Fzcpyx7KvQXrAFm5iU+F0BAgImW2GoHAJWPS5TVjqXG381EETZwgjL8STv6bZy36eR/QNP/thPgGDPuYEsGPH3mvV8UftEO+wMdaSb7U16vs/rzHzG3n5M50hjnjhwDN+VvWCAQQ6qrK8vtzrBX9s4KJg32P8dHdlczgfMMNAiKKTFFi/nv4TL6QPbUgKoLXnxFQYIKmC+VR/cUCBsn/YtdaDD6vgptXZxyZtyuIFifX5A18x09d3CViPwyywfpdMdip3tpHhqHTvUvCdmDSyXQiYLLtgukSiWVleohbG5FUQ6NI3CBSlzTdx52oKkMNMLR9xmF64uZkPHp94fCMEiLAfB8zc+6TwGRHMZvvnOPPJaZwQSAmzl3Q0ZcDN143hFAZG4mdWbHAir66f6YNBnbjSIU+Av9I+J8JGoiGwzrOFwSna0T1egcc84J4g8H+Gs6ohuMdBkJwa/fLHcvl6Qt1aPFOeK18lPbhyfc7Cu+G6jyQM131wXUPVAus16J0w72wjw8A6d7KpGn70Ue0PpIR2dwACJssDQD6oiFlZHsSHFfMdCMzrG8xSSsct9eDDAzha/t3IF3azTjPvjbRvfDWP2XbMTRDU0ucDLbI4iFEnkJeHajPTflM6/tm2X4UA51crM+J1kW7CAYXyhBIh4cUfHakHF4dqiH3DdQiu7sSGazdUhyW0wPowqI8pyBrZMTgfUYrJ8giUjynDZHkMzlaKR8D0bVwTDLNxzD4xh+nBPlI1XA3XfRA4H9UYWMON/RkGpgOmA6YDpgOmA6YDpgOmA6YDpgOmA6YDpgPjOnCzkaTzjXgs5chkuRS58+UzWZ5PJks5MlkuRc7yLUEA9O3261++i1X+ltD89DzWRj9dwn31Mz3ow2k0leE6ilhfesO1D6cjU8FAhAXWRyK+c1nWyHYG+EDyJssDwd65KJPlzgAb+QwB0DcLqjNIZn9YG52F6CsSmB7sI2bD1XDdB4HzUbXA+nwyWcWRGa9V8J0qs8nyVOJYxYzJchV8lnkQAdA3KbAeJPNVya2NfpW41cqaHqjQrHphuK6CT81suKrQvO2FBdZvg36fgq2R7YPrO6iaLN+B+j5lmiz3wdWoygiAvpWBtZzSnhIC1kYJie++mh7sI3/D1XDdB4HzUbXA+nwyWcXRqPGCg+jhDMuTHzG6CpOrZjZZXlVyNd+jsqwp2BNDoB8B0DceWHflxHOnhTOTuzL7s5nxvOqu9OdLdEgbhSOrtGO28CjMu3u+nINzpt/lk+EoLpBj+je56V3MJCYOuztEDw6rzXkKMlz3kYXhug+ua6haYL0GvRPmHW1kEFhnPvSEdfpWlkyWnyP5UVl+Ts2tJu9AAPSNAuu+8kNg/FwTQU3u9bi72+3heFjWV/77U4ltFIPdXzaBuwl/j5fD86Cld3d5sNqfHy2/c1gWYAc43txNoYHvijK9D+fni9/d/R7+bjd3V+Xqy+LvMbBm6X0dlw64vF+uoxyIejBKxNJXCBiuFSSbPDBcN4FxUyIWWK+Ac3o+3D06uLt7MGdEZKfX093v5JTv7iGMVvfQIXp4fT3c7XZ3QnFObmS+03QjR8uuvsPAnHB8Bzxfs4OUYXXhHybLCwuvYF2WZZHIfroeW7iNTZ3cq8N+94lkck8MKL2dz2f7+ijEVNPLPcBfiKOd/TyDvkFgzf/5YC3Zem7fY4AY7f8dfRsPuCIt9D/k00auss+KdN98M9RGAQNRRs5hgCwGxT7w1bI5B+/J5+oDHeVgePoNeWqMy0C5hjnnK0vf6GvUdD7jyZAefEaV19eiabc8ecN1AcyG6wLQ9svS0z+B0i2wXigD7Ijc2SguNIByZJiWdtEkQEjDHWsXnYzH0PEaCqwzAuwHd+Tssd2eAoExR2SyPIXQFCbGZKkQ+fDHXbZwI5vqy2Izh4Jt7oO7CIBgqe+9NUOoUYWgGYLepw/SuZMIWUZ4lvQtBWA8+FNmmePsqcAvvBMDRyFtfCQHffH1CW4kzFS2FgTWKD9BrqmMwoZPk7gcPJOjczi77cnKGEO54gBJKhiIxMH6mB4+Dbh934q2IT3gGH7l/bzdIlgMV0Ki52q49qB0ZBrvf2divsCQBdaLJOM7U5WPBOfEOhzgACuHlqXpo8NZhKV29+fTPYYDaz/b8Xg8XPqDZXt39pu9e77vGy9e32++1x2RyfJqeqHL8mo12YvfPlu4jU2FAEae2VNnIbVqSwEWBCSwTFjLIz1/PeNqJjkAG+NZ0rcsIIvBsbcl+eonRRbEd/RhPp20EiouQ4bZd/SJkLbGnEie4SphBnxhoFnKk+ReDvT4DMLAQy4/8OOPpx+EEZeZx5VwdR8ik6MWWE8v93rB3xNXQFR9FQHwKaymi4H19MTvvYWkH/1I04OPrvTSys3arUTYcE1YzN4ZrrMQHZtA8YnRF+bcWGCd47HuVzbKnzvSRBie03Kv9DS7y+iwN7EzpNF2ylJwTwM2RPHO1l9hySF0APmzdD/ULWRM2u1WCLQckclyK5SPodOS5TEcXLSUzBZqdm+FTeWwKE6SJynvyyCnfL/ktxxYK5QUniV9y3iNvsQHvCkQ9kvAMdijZeGNqCyjKbEYy5FenuuZhJnnkAYQ2AoHCqwh8MaZXfjMK9RHqDMF55gCdVoaZOgbfADMy2Dcl83yYxkwqOED+MqbA/8seB+5j/U8l/g240bXg82K+EhCc3bLcF0mdsN1GW6H5EI7W8dzFlhviT7v5CiAO8ecn1Y2pxPT8HxaB7MdWEdScKPyl6WyH29EoNsRmSzfKKW+ortl2Ufue1JxW6jqObeNCjScjpJkrgNTZ+sot840+2SEDy2tpG8+IKNvrGkmmS8lrv0C0K9WXbEa5DSJNr+mcli2U95KmHFGcWO2+9NvzAb6xCNMHlyDnrKVa97XQjDscYEgNmHqv8/3+7NwfQrPhT1ZysGM9Jvn55z33ccBgvvd3fAztyoc7yN08VRzenDx6u3GvmaLqEDDlZAYuxquY3gdmlrpV1hgvZkUwKmx75GanUCWriq/oBPeYwcnOvKRwNo722xGAjdTg28F4BgN+gOafoQ7SxvLrBi1BzsjUDsik+XOkO9GvpblbkV9EOHCFm5sUzlQfkO0euSZp6nvvR1+PPkGlX4V0JqQZK4jRXy0eJb0LQVgIYAOwZ/2HMpBv5OvE6fi8Zrlzd6EH2WQKaU5yTMJs5I1WNGF/8rAGh5OYfl/VefJwTJrOLIKglf+uZgfaE/9gYSn7uNTGmKF8vv2Is4+80DfZ0v/w74AsPle2DPG9zUefhM9mPEG3lPqj7/r0YOPB2FBBefsluG6ANRgg7NBvIKM4VoActjPon/CyrXAmoGx5hacXeYwF3YCKzrAFDpq3unTne58I4ORcE6L1fr1EHc2Zyns9kAE9pNlGERZuBQw0/MD8bhyUfOyvHLt9uG9soVb2lRkmQUifCPK7upQO4Kzh0PoETYva3WE5si3O6h9PEv6lgVkLPjLnheBXzuwZry0bEkrqJsD48D3EmZS8X5mV9m5nXbxFesMG4/WS8A5/oA3jmUz+ZQ88PTwLv0GecCeKcUqA2kQwEGwD99fh31W2OBJJnMKumG2vfzOvGTsQ3736sGHVHezarTt1sBqys04+gxChus55Qh2V+sLW2C9gcxQ8UtHuqATKNLJHCcxuzCwpk6fNDMN39OFzlFapkbl2fUdCDQdvMnyHSJZXGZTloupfm5G0RZuaFMr5EJANGb7fGBdLepR+axKFR/MdaRipgbPkr6lAIwGa+GbYQqOw/Jt8gH0fXW2bDmWLN6QzOhTYzHRiR9KmHF2fSAKKxKeeFRbNniCsvCzvk84xq3sD6Af5wEv4c6/l747yAt0WzqAHbpiIMProA+sn3DEJ9vHJZM7VQh1VAqW/S7x1dGhEwThyoA80fyQ65wefEg1N69GS2ehMMN1GeSG6zLc9sxFvk5byWOB9Ur06burCmC1cxWcX5FBpQPfblVOejywplH2+0OiRyB4Z4/nbi+awSE6dt0CAc0RmSy3QPdYGposj+XiGqWptnArm6rBUNGnGWke/PDgQrPD5fM5OjlDcx2pLHXFs38r6VsWYEG+yq/A7Kc/dQI+Exr75+tYDTKMEXlragkzWKodzztHnxhwwVngpz93HXc+90umsQICtr4j9nAQ9MKpHPC51TOuKqel3DTgAcuw65ltAieTYzbwnvoWkMYPEoFcuM4SFe1a6q6W7nOfy3rwufXdqmZzdstwXYa04boMt71yqf0TVqAF1gyM0VtylvIIveagakfXogMOUvxmikasi85RZbzi0rSHw9VegtNP9U6OmYI32HCFOgApnd0dgYDJ8giUjymjkuUxxV6ulJYtdG4bm6qDotHXcviByDqYHKWT05/rSOWp5bIkffO+hDYWk5axwVJlOHKRBXp5YRDG+b04yP8MX/WAsSrq4AcSZsACdKTgO+PsHy2vlo5Wq3ys34jsjtg+/SkcceAi+VxP3+uUtsRQ2vw0BdqMFvAQNkurV2GEMoZlF/oiRZ8jw+UDfmh68AFV27UKc3bLcF0Gv+G6DLc9crX7J6lEC6wTFmN3wXGxT5Oq/GnUmL0qvmHzO4aOdjbkzhSUIhov2KCMWEC+bzhinm1SFpb+YSCdEuOmK5TVrsciYLI8Fu89SxNluWeBV6R9lE3FcoRZPO15A0ux07OADi9iiKZSlqRvKQCjmVF2fBQ+8kuVs3TImN94i/OY7kOQVo4ugJ8bmilNFN91J2Gm8kKBtZQAZNIdfIIv57ro8ayDYSqoTF9/Y019EpBj7s+Jhn4l3cO8pUz1bB/1ZkgPPqrm6ypDuqNRMVw1ZNrPDdc2Poe9RV/bF6tZYL1IKnPOLxAlQdBoN8we3/hsQCedisfBwJrnbzp94KdPcThJu98HgVlHZLLcB/gdqM7Kcocyr0Wy0xZuYlNDWXwzprBngR7QaGiSTQ+jkYvpJPpyR2qMZ0nfIFhK9Zvci+/2zGxJFVgT5nHAlXgNy6TDBlgwI/t8vtykpqd857xKmKmcLgqs/QkcsLM4bCCK3zEXA+0Y0N4f7BvpYlCDyYl4S/LK/TfoEQye67PfRCFcM7l5Wt+yYRlHYkgPeMYvv5ftVgLFcE1YjNwZriNo7ZU2+F8atZwpxgLrGYDk174zJS/RLgJT3PSDlnOXS8oG6GSMWGCdwfGhP2YdkdDJSlDknaz03O7egcCsLN/B1KnKHLCFm9hUvzw32fC7e0BQuAQT+twGl9YCnXEqGFApS3PTxGE/zyP6hp/9sBlWDNRYHbBjx95rEPnjv5Kvw02+4pJnLdd5njcxm15+CfcLrrCRVz5IMeHz9C7b2Iwvn8ddu/0ABHzHno7o9JuGURCcOtPQLtKMdnqecBMDa7Y3C+a5lX2PlD99R170XeD78nAMV9z1nmf70PumHnxonZdWq89ueeqGaz/Khms/VsekHOifOOcssD5GKoeVMmu8cFS6dyn4YWxbQQICJksBlIs+mpXlRetlbJ8TgS59g9l1DJzyJeEOgjIe5MNMNB8rgCBzghlvH0jC7KtP74M3nxSOc4JNuvxyZJz55DROCFsTs+A3YWk1zAKXgzDUEZbeaVWNAxY0MJMNXvigGwd+4siK79zRTwrmIcj3z/xg6kPYldzvmZICZ8z7DGdVw87vsNO5Ih/aDR14wfppCbWKXux5Uw8uVpczsWu47iMNw3UfXNdQtcB6DXonzDvbyLCDkEbA8yr4GZGsE5UnsF8HImCyPBDsnYualeXO5Rv570JgXt9gGbd03FIPTmH0HvfloOXfjXwYOELQ3UhzglfzmG3IJH4ykDCBQLeOa8tVRyCzNAhCM9HwPbeHFuSSgucWtz6orwcImnlwICaV30p75XeH6sGVgRrk3XAdBKwzueHaCdSBySywPhDsI4qyRnYEyseUYbI8BucjSjFZHoGylUEImL4REv1Xw6wfq09OaXqwj3QNV8N1HwTORzUG1nBjf4aB6YDpgOmA6YDpgOmA6YDpgOmA6YDpgOmA6cC4DtxsJOl8Ix5LOTJZLkXufPlMlueTyVKOTJZLkbN8SxAAfbv9+pfvm5W/JTQ/PY+10U+XcF/9TA/6cBpNZbiOItaX3nDtw+nIVDAQYYH1kYjvXJY1sp0BPpC8yfJAsHcuymS5M8BGPkMA9M2C6gyS2R/WRmch+ooEpgf7iNlwNVz3QeB8VC2wPp9MVnFkxmsVfKfKbLI8lThWMWOyXAWfZR5EAPRNCqwHyXxVcmujXyVutbKmByo0q14YrqvgUzMbrio0b3thgfXboN+nYGtk++D6Dqomy3egvk+ZJst9cDWqMgKgb2VgLae0p4SAtVFC4ruvpgf7yN9wNVz3QeB8VC2wPp9MVnE0arzg/E04w7I+6mMVG5Z5AwRMlhuAeBISo7I8CdvGxkURAH3jgXVXNfDc6Yd6nnGbhj93Gc+rbic87durt1E4QgvwT/8mN5ljT3B03l1dDzqreXgyw3UfyA3XfXBdQ9UC6zXonTDvaCODwDrzxSes07eyZLL8HMmPyvJzam41eQcCoG8UWPeVHwLj55pIbHKvx93dbo9wrnJfyWdJpbfRcG737ZfN4Ob+Ws709cD8dzz/++5mr7ebu6vyAKzz9xhYs/T+nOulAyVnkcrxfOh6cDwvn1Si4bqPNA3XfXBdQ9UC6xXoTc+Hu0dHe3cP5tSI7PR6uvudHPLdPV51x6WHDtHDKzrouxOKc3Ij852mm+DQfUdBcvLA8zU7SBlWF/5hsryw8ArWZVkWieyn67GF29jUyb067HefSCb3xIDS2/l81rCPQkw1vdwD/IUYoPXzDPoGgTX/B4EY9wHcvvsgLH8Pvk0M7EKAOBtkRt+Y/J/ksziP77xf20YRQ1FuoVaA271eHVYGxISB9pzeO+cDfioyS9/oI6T8dichsFYPJJpf86yhd4brmBb0+EKgaLiO4boudZ+vt8B6IcroRO9sNBg6RGVHZHq6+40FwCENOUIouotOxmPoeHG67P1YIwOeLXhm8J3q1mR5KnGsYmZMlquKumzmLlu4kU31ZbEgR7DNfUAWM73Tyz3vSkDaJAhBMwxwPn2Qzp1EyDfCs6Rv2eokwBGDPGWWGXFWfEPM26xQ8RJwYr6weHuGnxJmOV+Tm16T+tlUOYOc53XObR5YB5qhLwD6gQMhsKT/ZivRKvw7H8zrQSehr0u2Zd/068DLKtzlC0MO09cMuh1/9Pt6C6wXicEDXPV9CscpOtosTR8dziIstbs/n+4xHFj72Y7H4+HSHyzbu7Pf7N3zpXYgOD92vx8CusE0We6H+j6UdVnuU971qPbZwm1sKgwo1kEedmYqoz6DJNjzMg8ENo9B+/l6xtVMMh9jPEv6pgbWz0ex+kmRBUERfZhPx2fB6+XNMAsOAxiQtsacSJ7hKmGW8yXLgNJk+NJDfo248Yd+cF1aGRAD5Tx59QuCffgX009P9+SfWlc57EELgXk9aOX+3nfL+6bfi5lcc8X+KvbD9FVGcfOnA77eAust0c9G+TUnDM+VmQDiJaNDD9FzhlkGjXZ7Wcj0erkX+4Mlh9AB5M/Sfb1knXFitwcg0DKYJssDBLBhES1ZbljM55HKbKFm91bYVI6Y0nHhScr72WCqzNDxWw6slYwKz5K+ZbzGWWcf8GYBMS3hpk+HyoEDxkpGkz2Pt7Gc+OS0NxJmGbPNunQMHICsCNvOaxVwL6BBZTbEmFXz23/M6sG3AyTVP7YNzUa3+6YSSXtWIAAYC7GD6WuB004/Z30dK9cCawbG6lveyVEagesZued0IlPccW9gvFT+YoF282YEug2myfLNkpovvluW86S+KwW3haqec9uowMPpKEmGAlqk0VGuUlbr8QgfWlpJ36BjACuUfBBNM8mwQpktGy4wBvpVcMeYz2kSbX5N5bBsp7yVMMsYBWyEb6R9Gt0nRxqKDmoYa88jvXAz4dLvu3vc7+6Gn6fZoHiJ0cjvWT0YIfYVabkd1NuB4bpSGRT7YbiuxLUrO9fx+QwWWM9j1JkCgNc7KIlIkS69CHfye3Sycch5xHh5hchmJHAzNfg+HI7joD+gWWxeAzMWscyKUXuwMwK1wTRZ7gz5buRrWe5W1AcRLmxhEfSlihbp0otwN/feOb8h2sxKooqut8OPJ9+g0q8CWhPagK2vlpdXZbd5lvStCqBDkKg9hyLngrssr8CjawajUob3PZMwy7iBjq3mD1XdZBSUjrGGsfY8UoTv+WHTvLDXC6aHT73Av9/9Rqlr9DCW82U3s3rwZXjMVdfrHX17MNI3naNs7xMCug8zfU0o7Xc35ustsN5IEjhyz0ezVUerNxBgpaIDD7Fzwjt9a4wX7GrHaTEAXg9xZ3OWwm4PRGDeYC6VJegP7dS74Mr1/EA8rlzUvCyvXLt9eK9s4ZY2FVn2thiXyvKNKLurQ+3o7p502kPYvEwNwDpoQ0dVz9/Hs6RvWRCMPsVv3pY9L4K/dnDHeGnZk4vYCwkzLq6mXBiePE92X2BL7zSM5eewgdrTz07D/ihsm/UsPQXdsEJh9Ht/YuxLr3N68KWwyNXetG8qF2FPlbggAGP6eoSGjPl6C6w3kAk63LLzsKATKNIJwXY+UL4wsKZOnzQzDbPToXPUWvq3AVxGohOBpsE0WXaieI5kTVmeg8VTcSHawg1talXZcMzVmO3zzja3zWEgVPgWripTeYB1r4gKiRs8S/qWBdAxEKTgOCzfJh9A31eXJ10IbNAjkhnNXdHzq1wlzDjvONATl9Lz5e7MdyJufrCy0iUIrAFPwpauiHlBD95J2GMbkIJlv7s7D7SR9wmCcGUgnVfO7iMCc3oQE9pN/hkJ4rGwb2pYqgiQXdVWn5i+qtBt+GLM11tgvRJ62AlROpsSZ5nFzhV0ZOrdUVU68P1UGbTj+ZU1DaiK1sj8d1iwTFGiRyD4Thaeu71oBofo2HULBEyWW6B4DhqaLM/B3bm4UG1hM7Cu7aFKR6tuRd87U9r8yV95kKJ1Isvnc3RyhroDa8hW8expSfomB9Z52YAZnDoBnwmN/fN17BkPGKN7XGr4mAcAAAAgAElEQVQJs2Wlez9aYbHJjLXGUalzWjp7PofAdnowV9LF32/UN704Cruy3+PDTF93FUEgrtlX+bkF1itk4keSeEeLE5MBdxgU53ladPwoeWO5bhF0V40szGrAd1i4agw6YkWexHUK+ikQh81u7OiOhNCRdybLI9Het6xKlvsWd1nqLVvobWcdQI/aVB0czWZrOZQAqjHwqVHiz4cCa6UsSd/yGVdpUzE4hxaOXGR7hXDG8B4wavij2XeS/KpC3vJAwmwZI4oeTZN70ScDjDDIu5rdxvflmdle3/KBngFZqH6fMWO36uSEQZMjsLpvmpOzXwUCbV+YEm9ntxJNuysRGPP1FliX+PX+xpmCdicBDE/lMMtR6w46NUuK49ZmrGGDMiKC5QnL0cKyNAykU2JHZ2RSdrseh4BoME2Wxwlgw5JEWW5I/yNIddjCTWwqlpMPbiJ+2vMGuGIQvIAOL2KIplKWpG+AXZxFhXxFoEUBXpbOA+P0CewQ7EXCoSa47FnAmFf0ZPcaZuLybVrGHa8Q4Ib+gCITrbqEu/a+5znpDMhO/z6/h5KlkfTAUOlFYLBv2kv229KhDWnHFwSJ6Sshse+VbGxWimLrLbDOUOr94TsTVdBcZqfGQaPUMHt8Y50bPHpLCL5LOtXvFcYLeCo6VIk81KuvMac8drcXArMG02S5F/Sb052V5eYlXo3gkTY1lMU3dQp7Fsza9ApWsulhNHIxnURYdODkKzp5lvQtH5Tws6dpDDX5hSqwJj8WExOvk3s94dOiezjG6+Gez5eb1PSU75xXCbNFnGL9+wcVVgfWGd7eh9uGZYskh5k204PlLFw454q+6YVrvS3rnb4wFGr6ui36OrV+X2+BtY5i440HWF6SVQSmuHkILdfyR2AkwgN0UibYzsw9aHQ8e65/Yx2TgRO2wDrCceabWYNpsjyz+DLeZmWZpf7GHwO2cBObCjvqQ0DIbDMEhUugp89twiZU1QZSHTRxpjHyQjz5a5oM7ud5RN/wsx/mEzCwLnabFvcRKerljywj3mGDrSXfahdED/w5glmTrXJVWjPx/JFmevYwsFH1BfxGZvj5Fw3q60TsTYHAZnpQ0P2Onyv6pt8BUEctB3yhtkq1oxRLsgCBTl9vgfUCbM+cZdYp4Oh271LwM9f083kzWX6OjGdl+TlVtZqcAIEufYPZdWnzTdiUiAf5tD8H1Wt64eZmr9fLvV5PPL7Rp+dnJ8OxUDCbDYF22MV60agFFbr/tQszjQ3AJOCB50in0RAtR3wur1CIr7ObCcp4hrOqYddwHLzIksQf/lguP9ABqwoeFmRHbFo3q/SgRfjL3xmu+yiA4boPrmuoWmC9Br0T5p1tZBhYa8vU/IwIm6w4YQ2/hyWT5efIelaWn1NVq8kJEJjXN5jtlI5t6mE+zKjg98W0/LuRD0f5IbBrpDnBq3nMGkyGAesbYMKX6zeyLHmFQTgEyQOrKyYcQPFnli8p89vyrNKDbwNroL6G6wBYA0kN1wGwDkpqgfVBQB9VjDWyo5DevxyT5f4YH1WCyfIopK0cQMD0bVwPDLNxzD4xh+nBPlI1XA3XfRA4H9UYWMON/RkGpgOmA6YDpgOmA6YDpgOmA6YDpgOmA6YDpgPjOnCzkaTzjXgs5chkuRS58+UzWZ5PJks5MlkuRc7yLUEA9O3261++r1X+ltD89DzWRj9dwn31Mz3ow2k0leE6ilhfesO1D6cjU8FAhAXWRyK+c1nWyHYG+EDyJssDwd65KJPlzgAb+QwB0DcLqjNIZn9YG52F6CsSmB7sI2bD1XDdB4HzUbXA+nwyWcWRGa9V8J0qs8nyVOJYxYzJchV8lnkQAdA3KbAeJPNVya2NfpW41cqaHqjQrHphuK6CT81suKrQvO2FBdZvg36fgq2R7YPrO6iaLN+B+j5lmiz3wdWoygiAvpWBtZzSnhIC1kYJie++mh7sI3/D1XDdB4HzUbXA+nwyWcXRqPF6PfxZmCc/YnQVJlfNbLK8quRqvkdlWVOwJ4ZAPwKgbzyw7sqJ504/3LLjjif3vIMvebmr+pJmG0VsnguxKdCfJgUjOMbs7p6LjiV7ucdGZ1XDkV4gx/RvctNVhZoq0X3X1INuKpawRMBwLRHZ5rfhug2OW1KxwHpLNE9Aa7SRQWCd+dAT1MFY8AiYLD9HE0Zl+Tk1t5q8AwHQNwqs+8oPgfFzTQQ1udfj7m63h+NhWV/570/VaqM4AJ1h4/G63X7ZIE79u7ssS6gi0LqJAxAQWC/E7vVwt/uSs6pBZjd3Z4xiYF38RpmuUY33i7ebg5YedBOxhBUChmsFySYPDNdNYNyUiAXWK+Ccng93j0717h7MGRHZ6fV09zs537t7CNMBPXSIHl7BicLItuDo5EYWOgH3u7sXf75TUD/3PC908hmz9mMpAibLpcidL58sy/Px+W6OemzhNjZ1cq8O+92Hx+SeGFB6O5/P9vVRiKkmmHn0gVd8Fm/6eQZ9g8Ca/8OAjtl/HgBDMIW+gL0H38YDrkgL/Q/5tJGr7LMi3Tff6G00zCQL/nac5RatjsB6erI+x1bYQ7lpgD0LrBt9jfG6XyOHrgfX4P+tXDb0xXAdk0yPLwSKhusYrutS9/l6C6wXoowdkTtbNgcdorIjgk6QdSZCGj5D3EUn4zF0vIYC64wA+9HhyFlquz0WgTGDabI8VjpjpY3Jcoz2p6TusoUb2VRfFpvhE2xzH67FTO/08kuipVHPJkEImmGA8+mDdO4kQr4RniV9g8A6kgUccYZTmWVGnJWB1Zi3WaHiJeDEfGHx9gw/JcyQrzCQwAell80OO+eAljqzvMyGl3pR/u7ClgVEkB8HVGD5Owu4u+h8QCJVDz6gbvtWYcu+6b6cnp26b8Mz8UWohOnrUdLs9/UWWC+SiQc4dlKIRuE0yyVWmCxL00eHyMMVltrdn0//LZYwgq43Mj/b8Xg8XPqDWYo7+83ePa/7rRzH68r3JssrSy/nXZdlnu57f/XZwm1sKgQwdZCHnZnKqM9IBOx5mQcCEnGpb4PW6xlXM8l8jPEs6ZsaWD8fxeonRRbEfvRhPt2Nz3JX97cQSELaGnMieYarhJlzCfcYcEZm4d2tWgUGAbi2ogxkUC8dJ1yAnjKYEcssbsqBJnzt5SKuNiiy859TWE0X6zk9F37vzale717Wg+vV42iOl/dNj+b07OUp9jfa3Zx/09ccj91+Dfh6C6y3lEI2yp8ccl5Eh/PM6LDccaZAo91eFjK9Xu7F/mDJIXQA+bN0L0TtjBW73R+BlsE0We6P/5YltGS5ZTkfRyuzhZrdW2FTOWBKx4UnKe+zYLV8ufC3HFgrxBSeJX3LeI2+xAe8fDY2ft5EQXI5cMBYyWiy5/E2lhOfnPZGw4wGTmLAGWug6Z3yHGRVBs5d+h0LzG8wr7Jcn95pAzzIixTkzz9rqEPO30V/SXpw0aocx3Zs55qNbvdNj2P0wiVltiLVw/Q1YbHn3ayvY4VbYM3AWH3LOzlKI3CuY+Se04lM8XwbGC+Vv1ig3bwZgW6DabJ8s6Tmi++W5Typ70rBbaGq59w2KvBwOkqSoYAWaXSUq5TVejzCh5ZW0jfoGMBMqg+iaSYZVkEVS8RZ8FcHkznnOU2iza+pnDzn+X5JmOEAZhhjrrFQAmic5S5nniEtw5mqn+mlT4OryJqfEtDyfQqCOd7pPs6M3x/uKeztQizQdcKl33fcXfyGn7l95+C6pAeEkV0lBLgd3KBvKhVhz9TPSExfj1AOruPz5VlgPY9RZwoAnjnOZieQpauoF3TCe3Tqcah4xHh5hchmJHAzNfh+A47RoL/g1GmWgq6xzIpRe7AzArXBNFnuDPlu5GtZ7lbUBxEubOHGNpUD5TdEK4MhnkK693b48eQbVK4/ckoLlksOWjxL+lYF0OFbX+05lFcHkzkXWd78lf8FMlO/KZYyvO+Zhln0nbhRaQhcMUgG+Us6Uz73393jTuATrBBLdczxDflQzyU9YgE1BsuBLvnq4upnx9mGdxAsp6LTHewLAJvvhT1jfF/j4TfRC0d4fVOILelBAsvuSgS8vpBmeZsojQsZriVyI78LX8iyGq4MjN1uvV73+noLrDcSBI7c8w7Ewk5gRQf4w84Jd4prjBfsasdpMQBeD3Fnc5bCbg9EYN5gLpUl6A/Ndiy4cj0/EI8rFzUvyyvXbh/eK1u4pU1Fln1nxe+GzTaK6a4OtSM4e5imNVMQ1U2mSAgdVVp+XLwCZ4ADuHM8S/qWBcHoU/zmbdnzbAZ1LrBmvLTsyUXshYQZxz/DCV+A/CVfKjyns6tpVhjjkLKzzPLR7vAldvjdM4W5kJ++z+acSvflWdSTg4EZOPu6nCHPgn0KumGlg7asXCruws/m9ODCVdue9U37ptuz9ykUK1/IKmb6ysDY7XbM11tgvYEgsCMkOMC76HRLZ5oYEOnghmXlDDcIWXaozUYWdqz1nbK0ZCwfkVe+2Ups2t1BCJgsDwL6gGKasjyg/KsVIdrCBYG1SEcCIwQyYxs+eWdbLepR+ZQKrp8hzxXROp1r8CzpWxYYxsCaguM0Ewv+gfuEXkwIa5q7Ejg+9SMJs8Sw5LdDZ6uYKfZHVcr+GemF4Pr5LHcIB3o8UA+yuT/lmWYaZKnK97KsvudOlfGD9WKw7GfFq6NDJwjCOW+c2Gfdt/Xgs+q6tjaZTUFiC/umaxn54PxkV2k4rayq6WuJyB6/x3y9BdYrZQA7IYrHZ6idK3CWtdNV6YATLoN2tlNpyb7WyPz3U7C8TKJHVLwjx45BWBZGb+x6PAImy+Mx36tETZZ7lXdluqot3MqmauBU9EPglM3G8uBC60SWz+fo5Ax1B9aQreLZ05L0LesEQ77Kr6RTJ+AzobF/vo494wFjdI9LLWGWSicZ1r47pfF3sAHoLHqwMqA8nlP8NntytBiiLKdrv5Y608yTUndnkn/g67YefGCFl1Zpo77p0uK/IZ/qC1nlTV8ZGLvdanZRfm6B9QpB+JEk3tHixGTA/fEdeZ4WHVwCknXsiqW7ReeoamRxSVk4UkXpUHnOU9BPgTgeG3LVKQgujgvemywvKDSF5UqWSrpvf9yyhfzooxwnsLX9NjXPy39pNpun4fd+ILIOJkfpcJp++bW+FDxPq2Ei6Zv3JbRSSdpUDM6hhSMXyxVSvEyoW+GDhn7PB6a8tCPvJcxi+bREHgNiqoMkf4/PQ4+GkaTXc3aOOj6FvLkex/LFm+SvxdfqQ883rlwbkl2Qe9HnUIu56IumHly0TnuwvbpvugdTH0Sz7QtTRU1fExb73Um2HkqTfb0F1kslgTMF5GBlImB4qmV05KApSwcdSpqusjDhvdjI6PsuSIDlsaV+xTIyDKTjcDt8hxV/pOLt7hAETJaHwHxIIaIsDyn5QoV02MJNbCqWIwQw2vMGhNj5KSPrBXR4EUM0lbIkfQPsIquQrwiQoFzwV1k6ZKz8Pjfj1n/zHQmHdxiAChjzrCe7lzDzLOadKpQPBcCFPxdlV9TT55f6DnOB9f4BMfEPOtA/uFNU8OI/dT24eMUOYX+wb3oITxcsBO26ZCPqupi+1pjs8YRsY0Zb8b8WWGco9f7wDq4Kmsvs1DgoOIXZ4+zIjU46JV1llASSzTYyoUOVyAM/fY055bG7vRAwWe6F7PF0Z2V5PEsnK7HTFm5iU0NZfDOmsP/ErE2vUCObHgYgF9NJhEUHHr6nzTaQapQl6Vs+KDG512tKS5aZX6gCa8K8GmMNO06HDbDusFP18+UmNX2q4xnvJMyAT5RHMQgBy739P69Lflxhxn+CvODTMWV/FGk12yxOgeb98WRLxj1P4idqLYKZ3HxdMn1r5f2gd5oefFAVd6yKBdbrwfXtt9cXmb6uR7yPQr+vt8C6D9EilQdYXkpVBKa46Qctnbu7fInYAJ2MgxXGi3WgMpL4Y6ZjUGewJzsiMGswTZY7or8t6VlZblvcBakN2MJNbCrsqA9BDrPNEBQuQY4+t0Fa90UnK+AMYeSFePLXNBncz/OIvuFnPyxwxMCanZcjBZYSTP74L+IddpGGYG8RohL53Z/VmMHAQSsQDizRijCYvU7CYvzmx2TRODtLEG6hDfTN8sP52qC/OJgBAyTx2Ey4hyO9YLMxabl/XSp8q/16Pty9CvgD353nYEuUr/is1oMr1uJdPK/om76L5dOVO+ALeybTTle/CzPU6estsL6wjCXWZ50Cjkr3LgWXSrBnRyFgsjwK6f3LmZXl/ixYCV+EQJe+0QwqC6oRIty1mgJkCM7C/hyEHwRuE8x4+wAOjm+806BCnAWHz4hgo0ygE45qOnmMXWMWdsimyWmqP64YA1zoe3XahTvUFZ/7+zQ+4VcIRBLiTW9gHWa0YvnwXXz998TgWw6uITCHYBqDb9hELZvxzpnzx3J5fYDd4vPJgTztJ/yq9eATavX+Ohiu+8jAcN0H1zVULbBeg94J8842MgystVFxPyOSOgMnrOAXsWSy/Bxhz8ryc6pqNTkBAvP65mdjly31DTMqGNjR8u9GpXGUHwKyRpoTvJrHbG8m9dm+5SWDTy83SaPl7bC6on+VBsyES7SW83bOnO/Xg3PispYrw3UtgnJ+w1XG5Z1PLbB+J/o7lG2NbAdQ30TSZPkm4Hco1mS5A6hGUkXA9E2FRn1hmKnQfNUL04N9xG24Gq77IHA+qjGwhhv7MwxMB0wHTAdMB0wHTAdMB0wHTAdMB0wHTAdMB8Z14GYjSecb8VjKkclyKXLny2eyPJ9MlnJkslyKnOVbggDo2+3Xv3wXq/wtofnpeayNfrqE++pnetCH02gqw3UUsb70hmsfTkemgoEIC6yPRHznsqyR7QzwgeRNlgeCvXNRJsudATbyGQKgbxZUZ5DM/rA2OgvRVyQwPdhHzIar4boPAuejaoH1+WSyiiMzXqvgO1Vmk+WpxLGKGZPlKvgs8yACoG9SYD1I5quSWxv9KnGrlTU9UKFZ9cJwXQWfmtlwVaF52wsLrN8G/T4FWyPbB9d3UDVZvgP1fco0We6Dq1GVEQB9KwNrOaU9JQSsjRIS3301PdhH/oar4boPAuejaoH1+WSyiqNR4/V6+DMsT37E6CpMrprZZHlVydV8j8qypmBPDIF+BEDfeGDdlRPPnX641yJnEM5WfvQf39TF04GJ9Db6cg/hyCqJtel5x3O/ezGcnnDWd30clkR77hmUDcenpX+TmxbJMlH4xjtdD74Rje3qbLhuhyWnZLhyNM5xb4H1OeSwGRejjQwC68wXb8aJEVqLgMlyLYLnyT8qy/NwbpxcEQHQNwqs+/gPgfFzTSQ2udfj7m63h+PhXV/570+lt9GXe9xv7tbhKDG4HcLQ434bDq4B65u7s7LKsjHIB1msEen7xXI4B7oeHM7KRxVouO4jTsN1H1zXULXAegV6ONp8+2XnVfy7uwdzckR2ej3dHZwypRG8XA8doofX18PdbncnFOfkRkbO++7u9/yP+Cqfe56v2UHKsLrwD5PlhYVXsC7LskhkP12PLdzGpk7uBbOFM/a7TySTe2JA6e18PmvYRyGmmlpBXD/PoG8QWPN/EIjdmP3nAbAPwvL3gA0P3CIt9D/k00auss+KdN98026jL/fQ8GB8l8Ete9W4Bf98l7Fu5HLO80TxflZ2o4/QJGkvlT6UAdOFQEPv2u2ri/pXJerxcwCI4fomtWjougXWC2WCHZE7Gw2GDlHpeKenu/MAOKQhRwhFd9HJeAwdL06XvR9rZMCzBc8MvlPdmixPJY5VzIzJclVRl83cZQs3sqm+LLYEV7DNfUAWM73Tyz3vSkDaJAhBMwx6Pn2Qzp1EyDfCs6Rv2eokwBFnSZVZZsRZ8Q0xb7NCxUsfPEqDwUXCt/2UMMuYeT3FwWyeBmQkDUbgoEYcxBkZjJiZKWedu1g2LOm/2Uo0LpeR+1k9GCH2VWm37Jt+FXB1ZTv8HGUyfSUkjry2dd0C60Wy8J2pqu8DTo4t6SqXamFRWZo+OpxFWGp3fz7dYziw9rMdj8fDpT9Ytndnv9m753W/leN4XfleN5gmy6vJVZfl1WqyF799tnAbmwoDivXsKQaulVGfqS/Y8zIPBDaj3xq/nu4RVjPJfIzxLOmbGlg/H0XAqMiCoIg+zKfjs+DiyqcQwMOs7LUCaz9YXtZPWy0G8MTglrBqXj1+UiDezFa8nJjeIK3p6Z5XXItf1OtdP6W28y5erlTu8r7plWp5DK/zfi7xYfqasDjqbk7XLbDeUhLZKL/cEfLLt5SZAOIlo0MP0WuHWQaNdntZyPR6uRf7g+/GoAPIn6V7+zCLIf+W25bBNFm+RSSLC23JcjHRb8iY2ULN7sHzhTaVYxgDRv6wfZ8Fq+2k3W/lwFrJrvAs6VvGK+DKAt4sIKaZVVo2Xg4cMFYymux5vI3lxCenvZEwK5nlsoG6+0+ptOvMQEKUHawaKAc3nJuknccgD8ln8NoQY1nNr/7dowdfDZBU+djONRvd7ptKJL/3mYah7OdMXw/WlA5dt8B6S5lERxmCYLGzB6PUvQ6XM8fzaQ1vwHiBcoj88TLt/p0IdBtMk+U7xdRVdrcsu6h9UaJdbWqOIw+a8jfaL26TtTTjz0f40NJK+uYDQdpjA76n9kvhs+C4sCVAvzWjmtMk2vyayhlH4tgcEmYZBwU22bvwYw6vlAd8OC3X9jPXWeAbAugW9kRrwqXfd/e4047kNihO2Cy5zurBEqIfnYfbwQ36ph+NVUflVDvDcU50TF8TFvvfcRnoum6B9WaSKJxjs3GQQ5UKL+iEJOiwo+fVBVo3Mq8I2YwEbqYG34fDcRz05x19uext1UY8UvXsWTcCJstuqE6fsJbl6Vk+AYOFLdzYpvIK+o1iZma9eQa893b48eQbVPpVQGtCGy1YLotv8SzpWxVAa4F1eA7lzQWKGc2SQU8gzIxLL8/1TMIscej9I7pg0EO+v0pKNIsXJcUBiejPw14r8TcrizJIV/ieHzbNC7z4PsLD72B+v+OnBWv0UCryG5619eAbEBir4/K+6Vg5X5N60M+Zvh6nGb26boH1RjJBR8k6JG6wcRAbFR14QY6cEuFuoPKs93wjgx1slQ7k6yHubB6LtZtDEdhPlmEQZXApYVyCyPX8UESuW9i8LK9bt704r2zhljYVmfaBO+q1Eii160bt6O6edNpD2Lys+u66TSh7C85bz9/Hs6RvgGeM3dCnCDPWfIXAbGDNeGnZkovYCwkzL5hQz1APwNHPJPvnfFYZO15zH5KH2egoCygEn4FfrmlmyuEmBwMqODsN+6OwsrKyKei++bOtLcDOUWz90vWgletL323aN/1SDMtqD/o509cSwJ1+D+i6BdYbyAA7QmXnYbBxABsiHfS5rEOE/EKHbkFgTZ0+6ATR93P8GjpHvKOwATxGYiECTYNpslyI6nuyNWX5HpZOXapoCze0qVXlwzFXY7ZPmVlU+axKFR9g3bOoS0zmXINnSd/kwJqC47B8m3wA+YXypAuFFXhMMrvqvlkSZjCo7fciCUezIS58N/n85A/AoKlDYdk2HGeZi5gGaShoV4BG3ZKCZb+7Ow+0kQLyrwykK0V8+2NRD74dFKX+mU3BNAv7pgr9r3ys+g9vq3O7MfD551eCuV2lR3TdAuuVuMPucPStWkaq2TjqoFilA464DNoXzFj777BgmaJEjzgPo+WwVHzRDA7RsesWCGgO3mS5BbrH0tBkeSwX1yhNtYVb2VQNhop+Cnbiao1sXwqtE1k+n6OTM9QdWEO2imdPS9K3rGMA+Sq/AhOn/tQJ+Exo7J+vY9npG6Px3tQVZhRUw6xwwOtF3zPTCgU2oACINQNrzOsD6kwWodo0MDGKvM9e6tx7sbxy6ZUeXLkye/K+Ud90TxYvSVux6Q5Xs9Sxg+nrAVIe1HULrFfIxDtCbTRYc3TwPM/TogMOOHXqhPuic1Q1sjCrAYEyrhpTOlQeBgisfcOl4A2PFrnqFMQK2Z4hq8nyDFLYhodKltuQ/TgqLVvoT1SoOxbSSQttOhpsms3W0sszCDqfGp38OfLeHaHKPEv65n0JbSwmbSoGZ3PCkYvlbCrnD8oT/FD3M0l+nP777iXMIjfcb+I99+GTe5VHXsWM/gZlipuV+bBZCqy93rRmrL2+NfsDLTkUfYWCRfsZEGjqgaEUEVjdN42U7CZHQLbpkp+DfKavOXp7/BrVdQusl0oBR5XanQQQRrUsrPiGzc84tOnULGoNT2lksEEZEUG+by7fzIw6W/5c6/TZFnzPFXMSBbsehIBoME2WB6G/bTGiLLct4vrUjrKpWA4PjAJ02vMGsmIQvIAOL2KIplKWpG9ZMAf5ikALygV/laVDxmCDS84hvw/BXjkQEL8Z5mnPfS9hFjkW8Irv2A1hyB7BPDYOWPO+QIYxbiAaciBusPFYTmHuF+kM0NW/z5+jYu8BgaYeGEQzCAz2TWeofetraMfcXiAOZewQwDF9fZeW6LpugfUimfjORKX4JS3s9OQb26QjNiBxJ52S7oKl4JFEs4PgOwApsI657OYNCMwaTJPlG6SyrMhZWS4j+0G5Om3hJjY1lPWAraLCv7BnwaxNp/TxCs4VZngDpcV0IkH/rXIVWY3xLOlb3lnzs6yp/inQzoI+YIswj4mJ18m9nvBpkR+QhZ2yn8+Xm9T0lO+cVwmzyGnT1sZU7aXgKVkavIAVZcV+KRgkF89Y1vo2w9v7cDjNoxJXndOeCAg09UBIb484ArU+01vDlZDouFKbZn4ljx0SDcM1YXHsna7rFlgvkoTvTMlLsorZ5/Cdlk/rj8BIRQ7QSZlgO7PKGdPr2UbW7CB4p2yBNaH53qvJ8r34b1n6rCy3LOyStAZs4SY2FU5HgICQljXDDssLgxH63AZp5Ts194oCZxojL8STv6YYu5/nEX3Dz37Y7DUG1swJYKDH3ik0dgoAAAH0SURBVGt18sd/Ee+wwdYTj3TU0p/teROzpt9MNZFnrNN7uvMYw8ZnwsxU+FYbdPPe1MkwsFEF4X4jM/z8izrmVLBdZxFo6sFs7m9PsKJv+u3QlfVv+rmU2PQ1YXHsna7rFlgfK4ndS5ttZDgS1rsUfHd2rYAGAibLBjgXezUry4vVx9g9NwJd+gaz69Lmm2GTrTjoQPtzUJWnFwbMr9fLvV5PPL4RAkTYjwNm7v1MKXxGBLPZ/jnOoJ58CrWJWTOwhqXy/u95lwNlgs5f/eoDwDeudMgT4K+0z8nDUXw8AebPcFY1BN44eCFkhuAcj+XyAx2wqqBVlkzhO5829eA7Idmk1obrJjBWRAzXCpK3P7DA+u0i2JaB2UaGgbXwfSGy4WdE2GTFtswZtSEETJZDcJ068awsT829MXc1BOb1DWY7pWObemoaVhfg0VO0/LuRD2f0x78bblDc5VUTszm/SQMI96fr+Tx6guCYouVWbXAQIyXwqwfGVldMOIDCjghL5OxOQKCpB0J6e9SHgOHah9NoKsN1FLH901tgvT/Gh5ZgjexQuHctzGS5K7yHEjdZHgr31xdm+jauAobZOGafmMP0YB+pGq6G6z4InI9qDKzhxv4MA9MB0wHTAdMB0wHTAdMB0wHTAdMB0wHTAdOBcR34/wEOuFLNX3Lz9gAAAABJRU5ErkJggg==;" parent="1" vertex="1">
          <mxGeometry x="466.35" y="205" width="859.91" height="162" as="geometry" />
        </mxCell>
      </root>
    </mxGraphModel>
  </diagram>
  <diagram id="Gd8tYPD3WxnwvhUBAFtY" name="商品主数据梳理">
    <mxGraphModel dx="830" dy="481" grid="1" gridSize="10" guides="1" tooltips="1" connect="1" arrows="1" fold="1" page="1" pageScale="1" pageWidth="827" pageHeight="1169" math="0" shadow="0">
      <root>
        <mxCell id="0" />
        <mxCell id="1" parent="0" />
        <mxCell id="DUSzG-cbeZIV_EG89zr6-95" value="" style="rounded=0;whiteSpace=wrap;html=1;" parent="1" vertex="1">
          <mxGeometry width="1500" height="790" as="geometry" />
        </mxCell>
        <mxCell id="DUSzG-cbeZIV_EG89zr6-96" value="" style="rounded=0;whiteSpace=wrap;html=1;" parent="1" vertex="1">
          <mxGeometry x="50" y="218" width="460" height="330" as="geometry" />
        </mxCell>
        <mxCell id="DUSzG-cbeZIV_EG89zr6-97" value="" style="whiteSpace=wrap;html=1;strokeColor=#CCCCCC;" parent="1" vertex="1">
          <mxGeometry x="50" y="218" width="460" height="60" as="geometry" />
        </mxCell>
        <mxCell id="DUSzG-cbeZIV_EG89zr6-98" value="" style="whiteSpace=wrap;html=1;fillColor=#d5e8d4;strokeColor=#82b366;" parent="1" vertex="1">
          <mxGeometry x="50" y="158" width="460" height="60" as="geometry" />
        </mxCell>
        <mxCell id="DUSzG-cbeZIV_EG89zr6-99" value="简道云" style="text;html=1;align=center;verticalAlign=middle;resizable=0;points=[];autosize=1;strokeColor=none;fillColor=none;fontStyle=1" parent="1" vertex="1">
          <mxGeometry x="70" y="173" width="60" height="30" as="geometry" />
        </mxCell>
        <mxCell id="DUSzG-cbeZIV_EG89zr6-100" value="设计负责人参数表" style="rounded=0;whiteSpace=wrap;html=1;fontSize=16;" parent="1" vertex="1">
          <mxGeometry x="70" y="228" width="190" height="40" as="geometry" />
        </mxCell>
        <mxCell id="DUSzG-cbeZIV_EG89zr6-101" value="T+原物料参数表" style="rounded=0;whiteSpace=wrap;html=1;fontSize=16;" parent="1" vertex="1">
          <mxGeometry x="315" y="228" width="180" height="40" as="geometry" />
        </mxCell>
        <mxCell id="DUSzG-cbeZIV_EG89zr6-102" value="" style="edgeStyle=orthogonalEdgeStyle;rounded=0;orthogonalLoop=1;jettySize=auto;html=1;" parent="1" source="DUSzG-cbeZIV_EG89zr6-103" target="DUSzG-cbeZIV_EG89zr6-105" edge="1">
          <mxGeometry relative="1" as="geometry" />
        </mxCell>
        <mxCell id="DUSzG-cbeZIV_EG89zr6-103" value="商品企划案流程&lt;div style=&quot;font-size: 16px;&quot;&gt;（汇总）&lt;/div&gt;" style="rounded=0;whiteSpace=wrap;html=1;fontSize=16;" parent="1" vertex="1">
          <mxGeometry x="60" y="338" width="120" height="40" as="geometry" />
        </mxCell>
        <mxCell id="DUSzG-cbeZIV_EG89zr6-104" value="" style="edgeStyle=orthogonalEdgeStyle;rounded=0;orthogonalLoop=1;jettySize=auto;html=1;" parent="1" source="DUSzG-cbeZIV_EG89zr6-105" target="DUSzG-cbeZIV_EG89zr6-128" edge="1">
          <mxGeometry relative="1" as="geometry" />
        </mxCell>
        <mxCell id="DUSzG-cbeZIV_EG89zr6-105" value="企划设计任务&lt;div style=&quot;font-size: 16px;&quot;&gt;（明细表）&lt;/div&gt;" style="rounded=0;whiteSpace=wrap;html=1;fontSize=16;" parent="1" vertex="1">
          <mxGeometry x="220" y="338" width="120" height="40" as="geometry" />
        </mxCell>
        <mxCell id="DUSzG-cbeZIV_EG89zr6-106" value="" style="edgeStyle=orthogonalEdgeStyle;rounded=0;orthogonalLoop=1;jettySize=auto;html=1;" parent="1" source="DUSzG-cbeZIV_EG89zr6-128" target="DUSzG-cbeZIV_EG89zr6-108" edge="1">
          <mxGeometry relative="1" as="geometry" />
        </mxCell>
        <mxCell id="DUSzG-cbeZIV_EG89zr6-107" value="" style="edgeStyle=orthogonalEdgeStyle;rounded=0;orthogonalLoop=1;jettySize=auto;html=1;" parent="1" source="DUSzG-cbeZIV_EG89zr6-108" target="DUSzG-cbeZIV_EG89zr6-109" edge="1">
          <mxGeometry relative="1" as="geometry" />
        </mxCell>
        <mxCell id="DUSzG-cbeZIV_EG89zr6-108" value="生产BOM管理及定价流程" style="rounded=0;whiteSpace=wrap;html=1;fontSize=16;" parent="1" vertex="1">
          <mxGeometry x="375" y="418" width="120" height="40" as="geometry" />
        </mxCell>
        <mxCell id="DUSzG-cbeZIV_EG89zr6-109" value="企划链路跟踪&lt;div style=&quot;font-size: 16px;&quot;&gt;（仪表盘）&lt;/div&gt;" style="rounded=0;whiteSpace=wrap;html=1;fontSize=16;" parent="1" vertex="1">
          <mxGeometry x="215" y="418" width="125" height="40" as="geometry" />
        </mxCell>
        <mxCell id="DUSzG-cbeZIV_EG89zr6-110" value="" style="whiteSpace=wrap;html=1;fillColor=#f8cecc;strokeColor=#b85450;" parent="1" vertex="1">
          <mxGeometry x="980" y="158" width="330" height="60" as="geometry" />
        </mxCell>
        <mxCell id="DUSzG-cbeZIV_EG89zr6-111" value="T+ 系统" style="text;html=1;align=center;verticalAlign=middle;resizable=0;points=[];autosize=1;strokeColor=none;fillColor=none;fontStyle=1" parent="1" vertex="1">
          <mxGeometry x="995" y="173" width="70" height="30" as="geometry" />
        </mxCell>
        <mxCell id="DUSzG-cbeZIV_EG89zr6-112" value="" style="rounded=0;whiteSpace=wrap;html=1;" parent="1" vertex="1">
          <mxGeometry x="657" y="120" width="190" height="498" as="geometry" />
        </mxCell>
        <mxCell id="DUSzG-cbeZIV_EG89zr6-114" value="" style="whiteSpace=wrap;html=1;" parent="1" vertex="1">
          <mxGeometry x="980" y="218" width="330" height="330" as="geometry" />
        </mxCell>
        <mxCell id="DUSzG-cbeZIV_EG89zr6-115" value="" style="edgeStyle=orthogonalEdgeStyle;rounded=0;orthogonalLoop=1;jettySize=auto;html=1;" parent="1" source="DUSzG-cbeZIV_EG89zr6-116" target="DUSzG-cbeZIV_EG89zr6-118" edge="1">
          <mxGeometry relative="1" as="geometry" />
        </mxCell>
        <mxCell id="DUSzG-cbeZIV_EG89zr6-116" value="预测单" style="rounded=0;whiteSpace=wrap;html=1;fontSize=16;" parent="1" vertex="1">
          <mxGeometry x="1000" y="411" width="90" height="40" as="geometry" />
        </mxCell>
        <mxCell id="DUSzG-cbeZIV_EG89zr6-117" value="" style="edgeStyle=orthogonalEdgeStyle;rounded=0;orthogonalLoop=1;jettySize=auto;html=1;" parent="1" source="DUSzG-cbeZIV_EG89zr6-118" target="DUSzG-cbeZIV_EG89zr6-119" edge="1">
          <mxGeometry relative="1" as="geometry" />
        </mxCell>
        <mxCell id="DUSzG-cbeZIV_EG89zr6-118" value="生产加工单" style="rounded=0;whiteSpace=wrap;html=1;fontSize=16;" parent="1" vertex="1">
          <mxGeometry x="1180" y="411" width="90" height="40" as="geometry" />
        </mxCell>
        <mxCell id="DUSzG-cbeZIV_EG89zr6-119" value="产成品入库单" style="rounded=0;whiteSpace=wrap;html=1;fontSize=16;" parent="1" vertex="1">
          <mxGeometry x="1180" y="476" width="90" height="40" as="geometry" />
        </mxCell>
        <mxCell id="DUSzG-cbeZIV_EG89zr6-120" value="" style="edgeStyle=orthogonalEdgeStyle;rounded=0;orthogonalLoop=1;jettySize=auto;html=1;entryX=0.5;entryY=0;entryDx=0;entryDy=0;exitX=0;exitY=0.5;exitDx=0;exitDy=0;strokeColor=#0000FF;" parent="1" source="DUSzG-cbeZIV_EG89zr6-122" target="DUSzG-cbeZIV_EG89zr6-103" edge="1">
          <mxGeometry relative="1" as="geometry">
            <mxPoint x="425" y="248" as="targetPoint" />
            <Array as="points">
              <mxPoint x="580" y="248" />
              <mxPoint x="580" y="298" />
              <mxPoint x="120" y="298" />
            </Array>
          </mxGeometry>
        </mxCell>
        <mxCell id="DUSzG-cbeZIV_EG89zr6-121" value="" style="edgeStyle=orthogonalEdgeStyle;rounded=0;orthogonalLoop=1;jettySize=auto;html=1;entryX=0.5;entryY=0;entryDx=0;entryDy=0;strokeColor=#0000FF;" parent="1" source="DUSzG-cbeZIV_EG89zr6-122" target="DUSzG-cbeZIV_EG89zr6-105" edge="1">
          <mxGeometry relative="1" as="geometry">
            <Array as="points">
              <mxPoint x="752" y="298" />
              <mxPoint x="280" y="298" />
            </Array>
          </mxGeometry>
        </mxCell>
        <mxCell id="DUSzG-cbeZIV_EG89zr6-122" value="企划案导入表" style="rounded=0;whiteSpace=wrap;html=1;fontSize=16;" parent="1" vertex="1">
          <mxGeometry x="684" y="237" width="148" height="40" as="geometry" />
        </mxCell>
        <mxCell id="DUSzG-cbeZIV_EG89zr6-123" value="商品信息表&lt;div&gt;&lt;br&gt;&lt;/div&gt;" style="rounded=0;whiteSpace=wrap;html=1;fontSize=16;fillColor=#ffcc99;strokeColor=#36393d;" parent="1" vertex="1">
          <mxGeometry x="684" y="318" width="148" height="160" as="geometry" />
        </mxCell>
        <mxCell id="DUSzG-cbeZIV_EG89zr6-124" value="新增流程数据" style="text;html=1;align=center;verticalAlign=middle;resizable=0;points=[];autosize=1;strokeColor=none;fillColor=none;fontColor=#0000FF;" parent="1" vertex="1">
          <mxGeometry x="577" y="225" width="100" height="30" as="geometry" />
        </mxCell>
        <mxCell id="DUSzG-cbeZIV_EG89zr6-125" value="新增表单数据" style="text;html=1;align=center;verticalAlign=middle;resizable=0;points=[];autosize=1;strokeColor=none;fillColor=none;fontColor=#0000FF;" parent="1" vertex="1">
          <mxGeometry x="577" y="275" width="100" height="30" as="geometry" />
        </mxCell>
        <mxCell id="DUSzG-cbeZIV_EG89zr6-126" value="" style="edgeStyle=orthogonalEdgeStyle;rounded=0;orthogonalLoop=1;jettySize=auto;html=1;entryX=0;entryY=0.25;entryDx=0;entryDy=0;strokeColor=#0000FF;" parent="1" source="DUSzG-cbeZIV_EG89zr6-128" target="DUSzG-cbeZIV_EG89zr6-123" edge="1">
          <mxGeometry relative="1" as="geometry">
            <mxPoint x="370" y="338" as="sourcePoint" />
            <mxPoint x="507" y="337" as="targetPoint" />
          </mxGeometry>
        </mxCell>
        <mxCell id="DUSzG-cbeZIV_EG89zr6-127" value="智能助手触发" style="text;html=1;align=center;verticalAlign=middle;resizable=0;points=[];autosize=1;strokeColor=none;fillColor=none;" parent="1" vertex="1">
          <mxGeometry x="300" y="313" width="100" height="30" as="geometry" />
        </mxCell>
        <mxCell id="DUSzG-cbeZIV_EG89zr6-128" value="设计核价流程" style="rounded=0;whiteSpace=wrap;html=1;fontSize=16;" parent="1" vertex="1">
          <mxGeometry x="375" y="338" width="120" height="40" as="geometry" />
        </mxCell>
        <mxCell id="DUSzG-cbeZIV_EG89zr6-129" value="webhook 推送(设计定版）" style="text;html=1;align=center;verticalAlign=middle;resizable=0;points=[];autosize=1;strokeColor=none;fillColor=none;fontColor=#0000FF;" parent="1" vertex="1">
          <mxGeometry x="505" y="328" width="160" height="30" as="geometry" />
        </mxCell>
        <mxCell id="DUSzG-cbeZIV_EG89zr6-130" value="智能助手触发" style="text;html=1;align=center;verticalAlign=middle;resizable=0;points=[];autosize=1;strokeColor=none;fillColor=none;" parent="1" vertex="1">
          <mxGeometry x="385" y="378" width="100" height="30" as="geometry" />
        </mxCell>
        <mxCell id="DUSzG-cbeZIV_EG89zr6-131" value="" style="edgeStyle=orthogonalEdgeStyle;rounded=0;orthogonalLoop=1;jettySize=auto;html=1;strokeColor=#0000FF;" parent="1" edge="1">
          <mxGeometry relative="1" as="geometry">
            <mxPoint x="495" y="438" as="sourcePoint" />
            <mxPoint x="680" y="438" as="targetPoint" />
          </mxGeometry>
        </mxCell>
        <mxCell id="DUSzG-cbeZIV_EG89zr6-132" value="年份|季节|系列|品类|&lt;div&gt;&lt;b&gt;&lt;font color=&quot;#ff3333&quot;&gt;商品代码&lt;/font&gt;&lt;/b&gt;&lt;span style=&quot;background-color: initial;&quot;&gt;|价格|&lt;/span&gt;&lt;/div&gt;&lt;div&gt;&lt;span style=&quot;background-color: initial;&quot;&gt;&amp;nbsp;&lt;b&gt;&lt;font color=&quot;#ff3333&quot;&gt;商品批次&lt;/font&gt;&lt;/b&gt; | 工艺| 物料清单&lt;/span&gt;&lt;/div&gt;" style="text;html=1;align=center;verticalAlign=middle;resizable=0;points=[];autosize=1;strokeColor=none;fillColor=none;" parent="1" vertex="1">
          <mxGeometry x="681" y="408" width="160" height="60" as="geometry" />
        </mxCell>
        <mxCell id="DUSzG-cbeZIV_EG89zr6-133" value="" style="rounded=0;whiteSpace=wrap;html=1;fillColor=#dae8fc;strokeColor=#6c8ebf;" parent="1" vertex="1">
          <mxGeometry x="657" y="120" width="190" height="60" as="geometry" />
        </mxCell>
        <mxCell id="DUSzG-cbeZIV_EG89zr6-134" value="业务系统（FineReport）" style="text;html=1;align=center;verticalAlign=middle;resizable=0;points=[];autosize=1;strokeColor=none;fillColor=none;fontStyle=1" parent="1" vertex="1">
          <mxGeometry x="677" y="135" width="150" height="30" as="geometry" />
        </mxCell>
        <mxCell id="DUSzG-cbeZIV_EG89zr6-135" value="webhook 推送" style="text;html=1;align=center;verticalAlign=middle;resizable=0;points=[];autosize=1;strokeColor=none;fillColor=none;fontColor=#0000FF;" parent="1" vertex="1">
          <mxGeometry x="535" y="408" width="100" height="30" as="geometry" />
        </mxCell>
        <mxCell id="DUSzG-cbeZIV_EG89zr6-136" value="" style="whiteSpace=wrap;html=1;" parent="1" vertex="1">
          <mxGeometry x="459" y="658" width="600" height="100" as="geometry" />
        </mxCell>
        <mxCell id="DUSzG-cbeZIV_EG89zr6-137" value="" style="edgeStyle=orthogonalEdgeStyle;rounded=0;orthogonalLoop=1;jettySize=auto;html=1;entryX=0;entryY=0.5;entryDx=0;entryDy=0;fontColor=#FF6666;strokeColor=#FF6666;" parent="1" source="DUSzG-cbeZIV_EG89zr6-138" target="DUSzG-cbeZIV_EG89zr6-116" edge="1">
          <mxGeometry relative="1" as="geometry">
            <mxPoint x="926" y="508" as="targetPoint" />
          </mxGeometry>
        </mxCell>
        <mxCell id="DUSzG-cbeZIV_EG89zr6-138" value="订货会" style="rounded=0;whiteSpace=wrap;html=1;fontSize=16;" parent="1" vertex="1">
          <mxGeometry x="684" y="500" width="148" height="40" as="geometry" />
        </mxCell>
        <mxCell id="DUSzG-cbeZIV_EG89zr6-139" value="写库" style="text;html=1;align=center;verticalAlign=middle;resizable=0;points=[];autosize=1;strokeColor=none;fillColor=none;fontColor=#FF6666;" parent="1" vertex="1">
          <mxGeometry x="918" y="400" width="50" height="30" as="geometry" />
        </mxCell>
        <mxCell id="DUSzG-cbeZIV_EG89zr6-140" value="写库" style="text;html=1;align=center;verticalAlign=middle;resizable=0;points=[];autosize=1;strokeColor=none;fillColor=none;fontColor=#FF6666;" parent="1" vertex="1">
          <mxGeometry x="910" y="313" width="50" height="30" as="geometry" />
        </mxCell>
        <mxCell id="DUSzG-cbeZIV_EG89zr6-141" value="写库" style="text;html=1;align=center;verticalAlign=middle;resizable=0;points=[];autosize=1;strokeColor=none;fillColor=none;fontColor=#FF6666;" parent="1" vertex="1">
          <mxGeometry x="910" y="268" width="50" height="30" as="geometry" />
        </mxCell>
        <mxCell id="DUSzG-cbeZIV_EG89zr6-142" value="商品目录" style="rounded=0;whiteSpace=wrap;html=1;fontSize=16;" parent="1" vertex="1">
          <mxGeometry x="508" y="698" width="148" height="40" as="geometry" />
        </mxCell>
        <mxCell id="DUSzG-cbeZIV_EG89zr6-143" value="商品进货单" style="rounded=0;whiteSpace=wrap;html=1;fontSize=16;" parent="1" vertex="1">
          <mxGeometry x="831" y="698" width="148" height="40" as="geometry" />
        </mxCell>
        <mxCell id="DUSzG-cbeZIV_EG89zr6-144" value="百胜ERP" style="text;html=1;align=center;verticalAlign=middle;resizable=0;points=[];autosize=1;strokeColor=none;fillColor=none;fontStyle=1" parent="1" vertex="1">
          <mxGeometry x="457" y="658" width="70" height="30" as="geometry" />
        </mxCell>
        <mxCell id="DUSzG-cbeZIV_EG89zr6-145" value="" style="edgeStyle=orthogonalEdgeStyle;rounded=0;orthogonalLoop=1;jettySize=auto;html=1;entryX=0;entryY=0.5;entryDx=0;entryDy=0;strokeColor=#FFB570;" parent="1" source="DUSzG-cbeZIV_EG89zr6-147" target="DUSzG-cbeZIV_EG89zr6-119" edge="1">
          <mxGeometry relative="1" as="geometry">
            <mxPoint x="1000" y="568" as="targetPoint" />
          </mxGeometry>
        </mxCell>
        <mxCell id="DUSzG-cbeZIV_EG89zr6-146" value="" style="edgeStyle=orthogonalEdgeStyle;rounded=0;orthogonalLoop=1;jettySize=auto;html=1;entryX=0.5;entryY=0;entryDx=0;entryDy=0;strokeColor=#FF6666;" parent="1" source="DUSzG-cbeZIV_EG89zr6-147" target="DUSzG-cbeZIV_EG89zr6-143" edge="1">
          <mxGeometry relative="1" as="geometry" />
        </mxCell>
        <mxCell id="DUSzG-cbeZIV_EG89zr6-147" value="产成品入库单" style="rounded=0;whiteSpace=wrap;html=1;fontSize=16;" parent="1" vertex="1">
          <mxGeometry x="683" y="548" width="148" height="40" as="geometry" />
        </mxCell>
        <mxCell id="DUSzG-cbeZIV_EG89zr6-148" value="DataX 抽取" style="text;html=1;align=center;verticalAlign=middle;resizable=0;points=[];autosize=1;strokeColor=none;fillColor=none;fontColor=#FFB570;" parent="1" vertex="1">
          <mxGeometry x="865" y="536" width="80" height="30" as="geometry" />
        </mxCell>
        <mxCell id="DUSzG-cbeZIV_EG89zr6-149" value="" style="edgeStyle=elbowEdgeStyle;elbow=vertical;endArrow=classic;html=1;curved=0;rounded=0;endSize=8;startSize=8;exitX=0.25;exitY=1;exitDx=0;exitDy=0;entryX=0.5;entryY=0;entryDx=0;entryDy=0;strokeColor=#FF6666;" parent="1" source="DUSzG-cbeZIV_EG89zr6-123" target="DUSzG-cbeZIV_EG89zr6-142" edge="1">
          <mxGeometry width="50" height="50" relative="1" as="geometry">
            <mxPoint x="660" y="478" as="sourcePoint" />
            <mxPoint x="710" y="428" as="targetPoint" />
            <Array as="points">
              <mxPoint x="670" y="488" />
            </Array>
          </mxGeometry>
        </mxCell>
        <mxCell id="DUSzG-cbeZIV_EG89zr6-150" value="" style="edgeStyle=elbowEdgeStyle;elbow=vertical;endArrow=classic;html=1;curved=0;rounded=0;endSize=8;startSize=8;exitX=0.5;exitY=1;exitDx=0;exitDy=0;entryX=0.5;entryY=0;entryDx=0;entryDy=0;" parent="1" source="DUSzG-cbeZIV_EG89zr6-123" target="DUSzG-cbeZIV_EG89zr6-138" edge="1">
          <mxGeometry width="50" height="50" relative="1" as="geometry">
            <mxPoint x="770" y="498" as="sourcePoint" />
            <mxPoint x="820" y="448" as="targetPoint" />
          </mxGeometry>
        </mxCell>
        <mxCell id="DUSzG-cbeZIV_EG89zr6-151" value="" style="whiteSpace=wrap;html=1;strokeColor=#CCCCCC;" parent="1" vertex="1">
          <mxGeometry x="980" y="218" width="330" height="160" as="geometry" />
        </mxCell>
        <mxCell id="DUSzG-cbeZIV_EG89zr6-152" value="&lt;span style=&quot;text-wrap: nowrap; font-size: 16px;&quot;&gt;存货（原物料）&lt;/span&gt;" style="rounded=0;whiteSpace=wrap;html=1;fontSize=16;" parent="1" vertex="1">
          <mxGeometry x="1000" y="228" width="110" height="40" as="geometry" />
        </mxCell>
        <mxCell id="DUSzG-cbeZIV_EG89zr6-153" value="&lt;span style=&quot;text-wrap: nowrap; font-size: 16px;&quot;&gt;计量单位&lt;/span&gt;" style="rounded=0;whiteSpace=wrap;html=1;fontSize=16;" parent="1" vertex="1">
          <mxGeometry x="1180" y="228" width="110" height="40" as="geometry" />
        </mxCell>
        <mxCell id="DUSzG-cbeZIV_EG89zr6-154" value="存货（成品）" style="rounded=0;whiteSpace=wrap;html=1;fontSize=16;" parent="1" vertex="1">
          <mxGeometry x="1000" y="318" width="110" height="50" as="geometry" />
        </mxCell>
        <mxCell id="DUSzG-cbeZIV_EG89zr6-155" value="物料清单" style="rounded=0;whiteSpace=wrap;html=1;fontSize=16;" parent="1" vertex="1">
          <mxGeometry x="1180" y="318" width="110" height="50" as="geometry" />
        </mxCell>
        <mxCell id="DUSzG-cbeZIV_EG89zr6-156" value="" style="edgeStyle=orthogonalEdgeStyle;rounded=0;orthogonalLoop=1;jettySize=auto;html=1;entryX=0.5;entryY=0;entryDx=0;entryDy=0;exitX=1;exitY=0.25;exitDx=0;exitDy=0;fontColor=#FF6666;strokeColor=#FF6666;" parent="1" edge="1">
          <mxGeometry relative="1" as="geometry">
            <mxPoint x="832" y="358" as="sourcePoint" />
            <mxPoint x="1235" y="318" as="targetPoint" />
            <Array as="points">
              <mxPoint x="880" y="358" />
              <mxPoint x="880" y="298" />
              <mxPoint x="1235" y="298" />
            </Array>
          </mxGeometry>
        </mxCell>
        <mxCell id="DUSzG-cbeZIV_EG89zr6-157" value="" style="edgeStyle=orthogonalEdgeStyle;rounded=0;orthogonalLoop=1;jettySize=auto;html=1;entryX=0;entryY=0.5;entryDx=0;entryDy=0;fontColor=#FF6666;strokeColor=#FF6666;" parent="1" edge="1">
          <mxGeometry relative="1" as="geometry">
            <mxPoint x="832" y="398" as="sourcePoint" />
            <mxPoint x="1000" y="343" as="targetPoint" />
            <Array as="points">
              <mxPoint x="832" y="399" />
              <mxPoint x="910" y="399" />
              <mxPoint x="910" y="343" />
            </Array>
          </mxGeometry>
        </mxCell>
        <mxCell id="DUSzG-cbeZIV_EG89zr6-160" value="凤禧商品主数据链路图V1.0" style="text;html=1;align=center;verticalAlign=middle;resizable=0;points=[];autosize=1;strokeColor=none;fillColor=none;fontSize=20;fontStyle=1" parent="1" vertex="1">
          <mxGeometry x="30" y="15" width="260" height="40" as="geometry" />
        </mxCell>
        <mxCell id="DUSzG-cbeZIV_EG89zr6-161" value="写库" style="text;html=1;align=center;verticalAlign=middle;resizable=0;points=[];autosize=1;strokeColor=none;fillColor=none;fontColor=#FF6666;" parent="1" vertex="1">
          <mxGeometry x="585" y="458" width="50" height="30" as="geometry" />
        </mxCell>
        <mxCell id="DUSzG-cbeZIV_EG89zr6-162" value="写库" style="text;html=1;align=center;verticalAlign=middle;resizable=0;points=[];autosize=1;strokeColor=none;fillColor=none;fontColor=#FF6666;" parent="1" vertex="1">
          <mxGeometry x="860" y="610" width="50" height="30" as="geometry" />
        </mxCell>
        <mxCell id="OCG4fN0_Edy3kQACTgUV-1" value="webhook 推送（核价金额）" style="text;html=1;align=center;verticalAlign=middle;resizable=0;points=[];autosize=1;strokeColor=none;fillColor=none;fontColor=#0000FF;" parent="1" vertex="1">
          <mxGeometry x="500" y="358" width="170" height="30" as="geometry" />
        </mxCell>
        <mxCell id="OCG4fN0_Edy3kQACTgUV-4" value="" style="edgeStyle=orthogonalEdgeStyle;rounded=0;orthogonalLoop=1;jettySize=auto;html=1;strokeColor=#FFB570;" parent="1" source="OCG4fN0_Edy3kQACTgUV-2" target="DUSzG-cbeZIV_EG89zr6-152" edge="1">
          <mxGeometry relative="1" as="geometry">
            <mxPoint x="911" y="208" as="targetPoint" />
          </mxGeometry>
        </mxCell>
        <mxCell id="OCG4fN0_Edy3kQACTgUV-6" value="" style="edgeStyle=orthogonalEdgeStyle;rounded=0;orthogonalLoop=1;jettySize=auto;html=1;strokeColor=#0000FF;" parent="1" source="OCG4fN0_Edy3kQACTgUV-2" target="DUSzG-cbeZIV_EG89zr6-101" edge="1">
          <mxGeometry relative="1" as="geometry">
            <Array as="points">
              <mxPoint x="550" y="208" />
              <mxPoint x="550" y="248" />
            </Array>
          </mxGeometry>
        </mxCell>
        <mxCell id="OCG4fN0_Edy3kQACTgUV-2" value="存货（原物料）" style="rounded=0;whiteSpace=wrap;html=1;fontSize=16;" parent="1" vertex="1">
          <mxGeometry x="683" y="188" width="148" height="40" as="geometry" />
        </mxCell>
        <mxCell id="OCG4fN0_Edy3kQACTgUV-5" value="DataX 抽取" style="text;html=1;align=center;verticalAlign=middle;resizable=0;points=[];autosize=1;strokeColor=none;fillColor=none;fontColor=#FFB570;" parent="1" vertex="1">
          <mxGeometry x="860" y="165" width="80" height="30" as="geometry" />
        </mxCell>
        <mxCell id="OCG4fN0_Edy3kQACTgUV-7" value="新增表单数据" style="text;html=1;align=center;verticalAlign=middle;resizable=0;points=[];autosize=1;strokeColor=none;fillColor=none;fontColor=#0000FF;" parent="1" vertex="1">
          <mxGeometry x="577" y="186" width="100" height="30" as="geometry" />
        </mxCell>
      </root>
    </mxGraphModel>
  </diagram>
</mxfile>
